<?xml version="1.0" encoding="UTF-8" standalone="no"?>
<!DOCTYPE svg PUBLIC "-//W3C//DTD SVG 1.1//EN"
 "http://www.w3.org/Graphics/SVG/1.1/DTD/svg11.dtd">
<!-- Generated by graphviz version 14.1.4 (20260321.0153)
 -->
<!-- Title: AttackTimeline Pages: 1 -->
<svg width="1742pt" height="695pt"
 viewBox="0.00 0.00 1742.00 695.00" xmlns="http://www.w3.org/2000/svg" xmlns:xlink="http://www.w3.org/1999/xlink">
<g id="graph0" class="graph" transform="scale(1 1) rotate(0) translate(4 690.5)">
<title>AttackTimeline</title>
<polygon fill="white" stroke="none" points="-4,4 -4,-690.5 1738.16,-690.5 1738.16,4 -4,4"/>
<text xml:space="preserve" text-anchor="middle" x="867.08" y="-669.2" font-family="Helvetica,sans-Serif" font-size="14.00">CC4 Attack Timeline &#45;&#45; Typical 500&#45;Step Episode</text>
<text xml:space="preserve" text-anchor="middle" x="867.08" y="-653.45" font-family="Helvetica,sans-Serif" font-size="14.00">Red Attack vs Blue Defense Race</text>
<g id="clust1" class="cluster">
<title>cluster_phases</title>
<path fill="#fafafa" stroke="black" d="M20,-549C20,-549 709.06,-549 709.06,-549 715.06,-549 721.06,-555 721.06,-561 721.06,-561 721.06,-627 721.06,-627 721.06,-633 715.06,-639 709.06,-639 709.06,-639 20,-639 20,-639 14,-639 8,-633 8,-627 8,-627 8,-561 8,-561 8,-555 14,-549 20,-549"/>
<text xml:space="preserve" text-anchor="middle" x="364.53" y="-621.7" font-family="Helvetica,sans-Serif" font-size="14.00">Phase Timeline</text>
</g>
<g id="clust2" class="cluster">
<title>cluster_red</title>
<path fill="#ffebee" stroke="black" d="M127.75,-8C127.75,-8 1714.16,-8 1714.16,-8 1720.16,-8 1726.16,-14 1726.16,-20 1726.16,-20 1726.16,-200 1726.16,-200 1726.16,-206 1720.16,-212 1714.16,-212 1714.16,-212 127.75,-212 127.75,-212 121.75,-212 115.75,-206 115.75,-200 115.75,-200 115.75,-20 115.75,-20 115.75,-14 121.75,-8 127.75,-8"/>
<text xml:space="preserve" text-anchor="middle" x="920.95" y="-194.7" font-family="Helvetica,sans-Serif" font-size="14.00">RED ATTACK LANE</text>
</g>
<g id="clust3" class="cluster">
<title>cluster_blue</title>
<path fill="#e3f2fd" stroke="black" d="M451.71,-220C451.71,-220 1521.02,-220 1521.02,-220 1527.02,-220 1533.02,-226 1533.02,-232 1533.02,-232 1533.02,-411 1533.02,-411 1533.02,-417 1527.02,-423 1521.02,-423 1521.02,-423 451.71,-423 451.71,-423 445.71,-423 439.71,-417 439.71,-411 439.71,-411 439.71,-232 439.71,-232 439.71,-226 445.71,-220 451.71,-220"/>
<text xml:space="preserve" text-anchor="middle" x="986.37" y="-405.7" font-family="Helvetica,sans-Serif" font-size="14.00">BLUE DEFENSE LANE</text>
</g>
<g id="clust4" class="cluster">
<title>cluster_reward</title>
<path fill="#fff8e1" stroke="black" d="M259.5,-431C259.5,-431 1158.92,-431 1158.92,-431 1164.92,-431 1170.92,-437 1170.92,-443 1170.92,-443 1170.92,-529 1170.92,-529 1170.92,-535 1164.92,-541 1158.92,-541 1158.92,-541 259.5,-541 259.5,-541 253.5,-541 247.5,-535 247.5,-529 247.5,-529 247.5,-443 247.5,-443 247.5,-437 253.5,-431 259.5,-431"/>
<text xml:space="preserve" text-anchor="middle" x="709.21" y="-523.7" font-family="Helvetica,sans-Serif" font-size="14.00">REWARD IMPACT</text>
</g>
<!-- ph0_start -->
<g id="node1" class="node">
<title>ph0_start</title>
<polygon fill="#e0e0e0" stroke="black" points="86.75,-593 16,-593 16,-557 86.75,-557 86.75,-593"/>
<text xml:space="preserve" text-anchor="middle" x="51.38" y="-576.95" font-family="Helvetica,sans-Serif" font-size="9.00">Step 0</text>
<text xml:space="preserve" text-anchor="middle" x="51.38" y="-566.45" font-family="Helvetica,sans-Serif" font-size="9.00">Episode Start</text>
</g>
<!-- ph0_mid -->
<g id="node2" class="node">
<title>ph0_mid</title>
<polygon fill="#e0e0e0" stroke="black" points="214.75,-593 127.5,-593 127.5,-557 214.75,-557 214.75,-593"/>
<text xml:space="preserve" text-anchor="middle" x="171.13" y="-576.95" font-family="Helvetica,sans-Serif" font-size="9.00">Step ~45</text>
<text xml:space="preserve" text-anchor="middle" x="171.13" y="-566.45" font-family="Helvetica,sans-Serif" font-size="9.00">Decoys deployed</text>
</g>
<!-- ph0_start&#45;&gt;ph0_mid -->
<g id="edge1" class="edge">
<title>ph0_start&#45;&gt;ph0_mid</title>
<path fill="none" stroke="#333333" stroke-width="2" d="M87.07,-575C95.64,-575 105.05,-575 114.35,-575"/>
<polygon fill="#333333" stroke="#333333" stroke-width="2" points="114.31,-578.5 124.31,-575 114.31,-571.5 114.31,-578.5"/>
</g>
<!-- r0 -->
<g id="node6" class="node">
<title>r0</title>
<ellipse fill="#ef9a9a" stroke="black" cx="171.13" cy="-150" rx="47.38" ry="27.93"/>
<text xml:space="preserve" text-anchor="middle" x="171.13" y="-157.2" font-family="Helvetica,sans-Serif" font-size="9.00">Red starts at</text>
<text xml:space="preserve" text-anchor="middle" x="171.13" y="-146.7" font-family="Helvetica,sans-Serif" font-size="9.00">state U on</text>
<text xml:space="preserve" text-anchor="middle" x="171.13" y="-136.2" font-family="Helvetica,sans-Serif" font-size="9.00">starting host</text>
</g>
<!-- ph0_start&#45;&gt;r0 -->
<!-- ph1_start -->
<g id="node3" class="node">
<title>ph1_start</title>
<polygon fill="#ffcdd2" stroke="black" stroke-width="2" points="368.48,-596.75 297.73,-596.75 297.73,-557.25 368.48,-557.25 368.48,-596.75"/>
<text xml:space="preserve" text-anchor="middle" x="333.11" y="-584.2" font-family="Helvetica,sans-Serif" font-size="9.00">Step 167</text>
<text xml:space="preserve" text-anchor="middle" x="333.11" y="-573.7" font-family="Helvetica,sans-Serif" font-size="9.00">Phase 1 Start</text>
<text xml:space="preserve" text-anchor="middle" x="333.11" y="-563.2" font-family="Helvetica,sans-Serif" font-size="9.00">(Mission A)</text>
</g>
<!-- ph0_mid&#45;&gt;ph1_start -->
<g id="edge2" class="edge">
<title>ph0_mid&#45;&gt;ph1_start</title>
<path fill="none" stroke="#333333" stroke-width="2" d="M215,-575.54C236.33,-575.8 262.19,-576.13 284.17,-576.4"/>
<polygon fill="#333333" stroke="#333333" stroke-width="2" points="283.87,-579.9 293.92,-576.52 283.96,-572.9 283.87,-579.9"/>
</g>
<!-- b0 -->
<g id="node18" class="node">
<title>b0</title>
<ellipse fill="#90caf9" stroke="black" cx="505.7" cy="-280" rx="54.27" ry="27.93"/>
<text xml:space="preserve" text-anchor="middle" x="505.7" y="-287.2" font-family="Helvetica,sans-Serif" font-size="9.00">Deploy decoys</text>
<text xml:space="preserve" text-anchor="middle" x="505.7" y="-276.7" font-family="Helvetica,sans-Serif" font-size="9.00">(~45 steps)</text>
<text xml:space="preserve" text-anchor="middle" x="505.7" y="-266.2" font-family="Helvetica,sans-Serif" font-size="9.00">3 per host</text>
</g>
<!-- ph0_mid&#45;&gt;b0 -->
<!-- ph2_start -->
<g id="node4" class="node">
<title>ph2_start</title>
<polygon fill="#ef9a9a" stroke="black" stroke-width="2" points="552.7,-607 458.7,-607 458.7,-557 552.7,-557 552.7,-607"/>
<text xml:space="preserve" text-anchor="middle" x="505.7" y="-594.45" font-family="Helvetica,sans-Serif" font-size="9.00">Step 334</text>
<text xml:space="preserve" text-anchor="middle" x="505.7" y="-583.95" font-family="Helvetica,sans-Serif" font-size="9.00">Phase 2 Start</text>
<text xml:space="preserve" text-anchor="middle" x="505.7" y="-573.45" font-family="Helvetica,sans-Serif" font-size="9.00">(Mission B)</text>
<text xml:space="preserve" text-anchor="middle" x="505.7" y="-562.95" font-family="Helvetica,sans-Serif" font-size="9.00">(&#45;16.83/step spike!)</text>
</g>
<!-- ph1_start&#45;&gt;ph2_start -->
<g id="edge3" class="edge">
<title>ph1_start&#45;&gt;ph2_start</title>
<path fill="none" stroke="#333333" stroke-width="2" d="M369.45,-578.04C391.23,-578.67 419.7,-579.51 444.91,-580.25"/>
<polygon fill="#333333" stroke="#333333" stroke-width="2" points="444.61,-583.74 454.71,-580.53 444.82,-576.74 444.61,-583.74"/>
</g>
<!-- b5 -->
<g id="node23" class="node">
<title>b5</title>
<ellipse fill="#81c784" stroke="black" cx="505.7" cy="-361" rx="57.98" ry="27.93"/>
<text xml:space="preserve" text-anchor="middle" x="505.7" y="-368.2" font-family="Helvetica,sans-Serif" font-size="9.00">Phase transition</text>
<text xml:space="preserve" text-anchor="middle" x="505.7" y="-357.7" font-family="Helvetica,sans-Serif" font-size="9.00">Apply blocks</text>
<text xml:space="preserve" text-anchor="middle" x="505.7" y="-347.2" font-family="Helvetica,sans-Serif" font-size="9.00">(1&#45;2 steps)</text>
</g>
<!-- ph1_start&#45;&gt;b5 -->
<!-- ph_end -->
<g id="node5" class="node">
<title>ph_end</title>
<polygon fill="#e0e0e0" stroke="black" points="713.06,-600 644.56,-600 644.56,-564 713.06,-564 713.06,-600"/>
<text xml:space="preserve" text-anchor="middle" x="678.81" y="-583.95" font-family="Helvetica,sans-Serif" font-size="9.00">Step 500</text>
<text xml:space="preserve" text-anchor="middle" x="678.81" y="-573.45" font-family="Helvetica,sans-Serif" font-size="9.00">Episode End</text>
</g>
<!-- ph2_start&#45;&gt;ph_end -->
<g id="edge4" class="edge">
<title>ph2_start&#45;&gt;ph_end</title>
<path fill="none" stroke="#333333" stroke-width="2" d="M553.45,-582C577.67,-582 607.14,-582 631.31,-582"/>
<polygon fill="#333333" stroke="#333333" stroke-width="2" points="631.11,-585.5 641.11,-582 631.11,-578.5 631.11,-585.5"/>
</g>
<!-- rew_spike -->
<g id="node29" class="node">
<title>rew_spike</title>
<ellipse fill="#ff8f00" stroke="black" stroke-width="2" cx="678.81" cy="-474" rx="78.14" ry="35.36"/>
<text xml:space="preserve" text-anchor="middle" x="678.81" y="-486.45" font-family="Helvetica,sans-Serif" font-size="9.00" fill="white">Phase Transition Spike</text>
<text xml:space="preserve" text-anchor="middle" x="678.81" y="-475.95" font-family="Helvetica,sans-Serif" font-size="9.00" fill="white">Step 334: &#45;16.83/step</text>
<text xml:space="preserve" text-anchor="middle" x="678.81" y="-465.45" font-family="Helvetica,sans-Serif" font-size="9.00" fill="white">Step 335: &#45;12.83/step</text>
<text xml:space="preserve" text-anchor="middle" x="678.81" y="-454.95" font-family="Helvetica,sans-Serif" font-size="9.00" fill="white">Step 336: &#45;11.67/step</text>
</g>
<!-- ph2_start&#45;&gt;rew_spike -->
<!-- r1 -->
<g id="node7" class="node">
<title>r1</title>
<ellipse fill="#e57373" stroke="black" cx="333.11" cy="-110" rx="41.54" ry="27.93"/>
<text xml:space="preserve" text-anchor="middle" x="333.11" y="-117.2" font-family="Helvetica,sans-Serif" font-size="9.00">PrivEsc</text>
<text xml:space="preserve" text-anchor="middle" x="333.11" y="-106.7" font-family="Helvetica,sans-Serif" font-size="9.00">(2 steps)</text>
<text xml:space="preserve" text-anchor="middle" x="333.11" y="-96.2" font-family="Helvetica,sans-Serif" font-size="9.00">INVISIBLE</text>
</g>
<!-- r0&#45;&gt;r1 -->
<g id="edge5" class="edge">
<title>r0&#45;&gt;r1</title>
<path fill="none" stroke="black" d="M215,-139.28C235.88,-134.06 261.11,-127.75 282.79,-122.33"/>
<polygon fill="black" stroke="black" points="283.44,-125.78 292.3,-119.95 281.75,-118.98 283.44,-125.78"/>
</g>
<!-- r2 -->
<g id="node8" class="node">
<title>r2</title>
<ellipse fill="#ef5350" stroke="black" cx="505.7" cy="-98" rx="52.15" ry="20.51"/>
<text xml:space="preserve" text-anchor="middle" x="505.7" y="-99.95" font-family="Helvetica,sans-Serif" font-size="9.00">Root obtained</text>
<text xml:space="preserve" text-anchor="middle" x="505.7" y="-89.45" font-family="Helvetica,sans-Serif" font-size="9.00">(step ~2)</text>
</g>
<!-- r1&#45;&gt;r2 -->
<g id="edge6" class="edge">
<title>r1&#45;&gt;r2</title>
<path fill="none" stroke="black" d="M374.53,-107.16C394.85,-105.73 419.91,-103.96 442.6,-102.37"/>
<polygon fill="black" stroke="black" points="442.62,-105.88 452.35,-101.68 442.13,-98.89 442.62,-105.88"/>
</g>
<!-- r3 -->
<g id="node9" class="node">
<title>r3</title>
<ellipse fill="#e57373" stroke="black" cx="678.81" cy="-74" rx="59.57" ry="27.93"/>
<text xml:space="preserve" text-anchor="middle" x="678.81" y="-81.2" font-family="Helvetica,sans-Serif" font-size="9.00">DiscoverRemote</text>
<text xml:space="preserve" text-anchor="middle" x="678.81" y="-70.7" font-family="Helvetica,sans-Serif" font-size="9.00">(1 step)</text>
<text xml:space="preserve" text-anchor="middle" x="678.81" y="-60.2" font-family="Helvetica,sans-Serif" font-size="9.00">INVISIBLE</text>
</g>
<!-- r2&#45;&gt;r3 -->
<g id="edge7" class="edge">
<title>r2&#45;&gt;r3</title>
<path fill="none" stroke="black" d="M555.27,-91.19C572.29,-88.8 591.73,-86.07 610.03,-83.51"/>
<polygon fill="black" stroke="black" points="610.33,-87 619.75,-82.14 609.36,-80.07 610.33,-87"/>
</g>
<!-- r4 -->
<g id="node10" class="node">
<title>r4</title>
<ellipse fill="#f44336" stroke="black" cx="891.63" cy="-112" rx="52.68" ry="35.36"/>
<text xml:space="preserve" text-anchor="middle" x="891.63" y="-124.45" font-family="Helvetica,sans-Serif" font-size="9.00">Scan + Exploit</text>
<text xml:space="preserve" text-anchor="middle" x="891.63" y="-113.95" font-family="Helvetica,sans-Serif" font-size="9.00">new hosts</text>
<text xml:space="preserve" text-anchor="middle" x="891.63" y="-103.45" font-family="Helvetica,sans-Serif" font-size="9.00">(5&#45;8 steps)</text>
<text xml:space="preserve" text-anchor="middle" x="891.63" y="-92.95" font-family="Helvetica,sans-Serif" font-size="9.00">95% VISIBLE</text>
</g>
<!-- r3&#45;&gt;r4 -->
<g id="edge8" class="edge">
<title>r3&#45;&gt;r4</title>
<path fill="none" stroke="black" d="M737.96,-78.7C758.73,-80.87 782.24,-83.91 803.45,-88 812.87,-89.82 822.75,-92.13 832.35,-94.61"/>
<polygon fill="black" stroke="black" points="831.41,-97.98 841.97,-97.18 833.21,-91.22 831.41,-97.98"/>
</g>
<!-- r5 -->
<g id="node11" class="node">
<title>r5</title>
<ellipse fill="#ffcdd2" stroke="black" cx="1092.74" cy="-122" rx="53.74" ry="27.93"/>
<text xml:space="preserve" text-anchor="middle" x="1092.74" y="-129.2" font-family="Helvetica,sans-Serif" font-size="9.00">Decoy hit!</text>
<text xml:space="preserve" text-anchor="middle" x="1092.74" y="-118.7" font-family="Helvetica,sans-Serif" font-size="9.00">75% chance</text>
<text xml:space="preserve" text-anchor="middle" x="1092.74" y="-108.2" font-family="Helvetica,sans-Serif" font-size="9.00">wastes 4 steps</text>
</g>
<!-- r4&#45;&gt;r5 -->
<g id="edge9" class="edge">
<title>r4&#45;&gt;r5</title>
<path fill="none" stroke="black" d="M944.25,-115.07C955.94,-115.73 968.3,-116.41 979.81,-117 995.28,-117.79 1011.97,-118.57 1027.61,-119.27"/>
<polygon fill="black" stroke="black" points="1027.12,-122.76 1037.27,-119.7 1027.43,-115.76 1027.12,-122.76"/>
<text xml:space="preserve" text-anchor="middle" x="992.18" y="-120.35" font-family="Helvetica,sans-Serif" font-size="8.00">75%</text>
</g>
<!-- r6 -->
<g id="node12" class="node">
<title>r6</title>
<ellipse fill="#e57373" stroke="black" cx="1092.74" cy="-44" rx="66.47" ry="27.93"/>
<text xml:space="preserve" text-anchor="middle" x="1092.74" y="-51.2" font-family="Helvetica,sans-Serif" font-size="9.00">DiscoverDeception</text>
<text xml:space="preserve" text-anchor="middle" x="1092.74" y="-40.7" font-family="Helvetica,sans-Serif" font-size="9.00">(2 steps)</text>
<text xml:space="preserve" text-anchor="middle" x="1092.74" y="-30.2" font-family="Helvetica,sans-Serif" font-size="9.00">INVISIBLE</text>
</g>
<!-- r4&#45;&gt;r6 -->
<g id="edge12" class="edge">
<title>r4&#45;&gt;r6</title>
<path fill="none" stroke="black" d="M938.23,-95.22C951.6,-90.38 966.26,-85.15 979.81,-80.5 995.44,-75.13 1012.36,-69.51 1028.19,-64.34"/>
<polygon fill="black" stroke="black" points="1029.09,-67.73 1037.52,-61.3 1026.92,-61.07 1029.09,-67.73"/>
<text xml:space="preserve" text-anchor="middle" x="992.18" y="-92.4" font-family="Helvetica,sans-Serif" font-size="8.00">learns</text>
<text xml:space="preserve" text-anchor="middle" x="992.18" y="-82.65" font-family="Helvetica,sans-Serif" font-size="8.00">decoys</text>
</g>
<!-- r8 -->
<g id="node14" class="node">
<title>r8</title>
<ellipse fill="#e57373" stroke="black" cx="1463.32" cy="-141" rx="42.07" ry="27.93"/>
<text xml:space="preserve" text-anchor="middle" x="1463.32" y="-148.2" font-family="Helvetica,sans-Serif" font-size="9.00">PrivEsc on</text>
<text xml:space="preserve" text-anchor="middle" x="1463.32" y="-137.7" font-family="Helvetica,sans-Serif" font-size="9.00">new host</text>
<text xml:space="preserve" text-anchor="middle" x="1463.32" y="-127.2" font-family="Helvetica,sans-Serif" font-size="9.00">(2 steps)</text>
</g>
<!-- r4&#45;&gt;r8 -->
<g id="edge10" class="edge">
<title>r4&#45;&gt;r8</title>
<path fill="none" stroke="black" d="M935.12,-132.48C959.97,-143.31 992.32,-155.49 1022.56,-161 1161.37,-186.3 1328.68,-164.71 1411.19,-150.7"/>
<polygon fill="black" stroke="black" points="1411.76,-154.15 1421.01,-149 1410.56,-147.26 1411.76,-154.15"/>
<text xml:space="preserve" text-anchor="middle" x="1194.79" y="-184.47" font-family="Helvetica,sans-Serif" font-size="8.00">25%</text>
<text xml:space="preserve" text-anchor="middle" x="1194.79" y="-174.72" font-family="Helvetica,sans-Serif" font-size="8.00">success</text>
</g>
<!-- r5&#45;&gt;r4 -->
<g id="edge11" class="edge">
<title>r5&#45;&gt;r4</title>
<path fill="none" stroke="black" d="M1042.62,-111.54C1030.25,-109.35 1016.97,-107.36 1004.56,-106.25 988.65,-104.82 971.44,-104.9 955.39,-105.67"/>
<polygon fill="black" stroke="black" points="955.24,-102.17 945.46,-106.25 955.65,-109.16 955.24,-102.17"/>
<text xml:space="preserve" text-anchor="middle" x="992.18" y="-108.4" font-family="Helvetica,sans-Serif" font-size="8.00">retry</text>
</g>
<!-- r7 -->
<g id="node13" class="node">
<title>r7</title>
<ellipse fill="#c62828" stroke="black" cx="1286.77" cy="-77" rx="60.1" ry="27.93"/>
<text xml:space="preserve" text-anchor="middle" x="1286.77" y="-84.2" font-family="Helvetica,sans-Serif" font-size="9.00" fill="white">PIDSelective</text>
<text xml:space="preserve" text-anchor="middle" x="1286.77" y="-73.7" font-family="Helvetica,sans-Serif" font-size="9.00" fill="white">Exploit bypasses</text>
<text xml:space="preserve" text-anchor="middle" x="1286.77" y="-63.2" font-family="Helvetica,sans-Serif" font-size="9.00" fill="white">decoys</text>
</g>
<!-- r6&#45;&gt;r7 -->
<g id="edge13" class="edge">
<title>r6&#45;&gt;r7</title>
<path fill="none" stroke="black" d="M1154.76,-54.49C1175.06,-57.97 1197.77,-61.88 1218.51,-65.44"/>
<polygon fill="black" stroke="black" points="1217.86,-68.88 1228.3,-67.12 1219.04,-61.98 1217.86,-68.88"/>
</g>
<!-- r7&#45;&gt;r8 -->
<g id="edge14" class="edge">
<title>r7&#45;&gt;r8</title>
<path fill="none" stroke="black" d="M1334.55,-94.15C1359.53,-103.31 1390.2,-114.56 1415.23,-123.73"/>
<polygon fill="black" stroke="black" points="1413.92,-126.98 1424.52,-127.14 1416.33,-120.41 1413.92,-126.98"/>
</g>
<!-- r9 -->
<g id="node15" class="node">
<title>r9</title>
<ellipse fill="#b71c1c" stroke="black" stroke-width="3" cx="1656.46" cy="-59" rx="59.04" ry="42.78"/>
<text xml:space="preserve" text-anchor="middle" x="1656.46" y="-76.7" font-family="Helvetica,sans-Serif" font-size="9.00" fill="white">Impact on OZ</text>
<text xml:space="preserve" text-anchor="middle" x="1656.46" y="-66.2" font-family="Helvetica,sans-Serif" font-size="9.00" fill="white">server_host_0</text>
<text xml:space="preserve" text-anchor="middle" x="1656.46" y="-55.7" font-family="Helvetica,sans-Serif" font-size="9.00" fill="white">(2 steps)</text>
<text xml:space="preserve" text-anchor="middle" x="1656.46" y="-45.2" font-family="Helvetica,sans-Serif" font-size="9.00" fill="white">INVISIBLE</text>
<text xml:space="preserve" text-anchor="middle" x="1656.46" y="-34.7" font-family="Helvetica,sans-Serif" font-size="9.00" fill="white">&#45;10/step penalty!</text>
</g>
<!-- r8&#45;&gt;r9 -->
<g id="edge15" class="edge">
<title>r8&#45;&gt;r9</title>
<path fill="none" stroke="black" d="M1499.38,-125.96C1525.72,-114.66 1562.47,-98.89 1593.7,-85.5"/>
<polygon fill="black" stroke="black" points="1594.85,-88.81 1602.66,-81.65 1592.09,-82.38 1594.85,-88.81"/>
<text xml:space="preserve" text-anchor="middle" x="1559.89" y="-116.81" font-family="Helvetica,sans-Serif" font-size="8.00">Impact</text>
<text xml:space="preserve" text-anchor="middle" x="1559.89" y="-107.06" font-family="Helvetica,sans-Serif" font-size="8.00">(25&#45;50%)</text>
</g>
<!-- r10 -->
<g id="node16" class="node">
<title>r10</title>
<ellipse fill="#d32f2f" stroke="black" cx="1656.46" cy="-152" rx="61.7" ry="27.93"/>
<text xml:space="preserve" text-anchor="middle" x="1656.46" y="-159.2" font-family="Helvetica,sans-Serif" font-size="9.00" fill="white">DegradeServices</text>
<text xml:space="preserve" text-anchor="middle" x="1656.46" y="-148.7" font-family="Helvetica,sans-Serif" font-size="9.00" fill="white">&#45;20% reliability</text>
<text xml:space="preserve" text-anchor="middle" x="1656.46" y="-138.2" font-family="Helvetica,sans-Serif" font-size="9.00" fill="white">per hit</text>
</g>
<!-- r8&#45;&gt;r10 -->
<g id="edge16" class="edge">
<title>r8&#45;&gt;r10</title>
<path fill="none" stroke="black" d="M1505.33,-143.36C1528.17,-144.67 1557.27,-146.35 1583.76,-147.87"/>
<polygon fill="black" stroke="black" points="1583.23,-151.35 1593.41,-148.43 1583.63,-144.36 1583.23,-151.35"/>
<text xml:space="preserve" text-anchor="middle" x="1559.89" y="-159.06" font-family="Helvetica,sans-Serif" font-size="8.00">Degrade</text>
<text xml:space="preserve" text-anchor="middle" x="1559.89" y="-149.31" font-family="Helvetica,sans-Serif" font-size="8.00">(25&#45;50%)</text>
</g>
<!-- r11 -->
<g id="node17" class="node">
<title>r11</title>
<ellipse fill="#ff8a65" stroke="black" cx="678.81" cy="-152" rx="66.47" ry="27.93"/>
<text xml:space="preserve" text-anchor="middle" x="678.81" y="-159.2" font-family="Helvetica,sans-Serif" font-size="9.00">Phishing via</text>
<text xml:space="preserve" text-anchor="middle" x="678.81" y="-148.7" font-family="Helvetica,sans-Serif" font-size="9.00">green (1%/step)</text>
<text xml:space="preserve" text-anchor="middle" x="678.81" y="-138.2" font-family="Helvetica,sans-Serif" font-size="9.00">BYPASSES blocks!</text>
</g>
<!-- r11&#45;&gt;r4 -->
<g id="edge17" class="edge">
<title>r11&#45;&gt;r4</title>
<path fill="none" stroke="black" stroke-dasharray="5,2" d="M739.94,-140.59C767.86,-135.29 801.01,-129 829.1,-123.67"/>
<polygon fill="black" stroke="black" points="829.73,-127.12 838.91,-121.81 828.43,-120.24 829.73,-127.12"/>
<text xml:space="preserve" text-anchor="middle" x="789.2" y="-145.1" font-family="Helvetica,sans-Serif" font-size="8.00">new</text>
<text xml:space="preserve" text-anchor="middle" x="789.2" y="-135.35" font-family="Helvetica,sans-Serif" font-size="8.00">foothold</text>
</g>
<!-- b1 -->
<g id="node19" class="node">
<title>b1</title>
<ellipse fill="#42a5f5" stroke="black" cx="678.81" cy="-271" rx="50.56" ry="27.93"/>
<text xml:space="preserve" text-anchor="middle" x="678.81" y="-278.2" font-family="Helvetica,sans-Serif" font-size="9.00">Monitor</text>
<text xml:space="preserve" text-anchor="middle" x="678.81" y="-267.7" font-family="Helvetica,sans-Serif" font-size="9.00">(automatic)</text>
<text xml:space="preserve" text-anchor="middle" x="678.81" y="-257.2" font-family="Helvetica,sans-Serif" font-size="9.00">collect events</text>
</g>
<!-- b0&#45;&gt;b1 -->
<g id="edge18" class="edge">
<title>b0&#45;&gt;b1</title>
<path fill="none" stroke="black" d="M559.9,-277.2C577.94,-276.25 598.22,-275.19 616.82,-274.21"/>
<polygon fill="black" stroke="black" points="616.83,-277.71 626.63,-273.69 616.46,-270.72 616.83,-277.71"/>
</g>
<!-- b2 -->
<g id="node20" class="node">
<title>b2</title>
<ellipse fill="#64b5f6" stroke="black" cx="891.63" cy="-275" rx="70.18" ry="20.51"/>
<text xml:space="preserve" text-anchor="middle" x="891.63" y="-276.95" font-family="Helvetica,sans-Serif" font-size="9.00">Detect exploit</text>
<text xml:space="preserve" text-anchor="middle" x="891.63" y="-266.45" font-family="Helvetica,sans-Serif" font-size="9.00">(conn + proc/malfile)</text>
</g>
<!-- b1&#45;&gt;b2 -->
<g id="edge19" class="edge">
<title>b1&#45;&gt;b2</title>
<path fill="none" stroke="black" d="M729.77,-271.95C753.64,-272.4 782.8,-272.95 809.72,-273.46"/>
<polygon fill="black" stroke="black" points="809.51,-276.96 819.58,-273.65 809.64,-269.96 809.51,-276.96"/>
</g>
<!-- b3 -->
<g id="node21" class="node">
<title>b3</title>
<ellipse fill="#1e88e5" stroke="black" cx="1286.77" cy="-356" rx="54.27" ry="35.36"/>
<text xml:space="preserve" text-anchor="middle" x="1286.77" y="-368.45" font-family="Helvetica,sans-Serif" font-size="9.00" fill="white">RESTORE</text>
<text xml:space="preserve" text-anchor="middle" x="1286.77" y="-357.95" font-family="Helvetica,sans-Serif" font-size="9.00" fill="white">host (5 steps)</text>
<text xml:space="preserve" text-anchor="middle" x="1286.77" y="-347.45" font-family="Helvetica,sans-Serif" font-size="9.00" fill="white">cost &#45;1</text>
<text xml:space="preserve" text-anchor="middle" x="1286.77" y="-336.95" font-family="Helvetica,sans-Serif" font-size="9.00" fill="white">Clears ALL red</text>
</g>
<!-- b2&#45;&gt;b3 -->
<g id="edge20" class="edge">
<title>b2&#45;&gt;b3</title>
<path fill="none" stroke="black" d="M933.22,-291.83C958.52,-301.7 991.97,-313.64 1022.56,-321 1089.26,-337.06 1167.37,-346.27 1221.08,-351.18"/>
<polygon fill="black" stroke="black" points="1220.72,-354.66 1230.98,-352.05 1221.33,-347.69 1220.72,-354.66"/>
<text xml:space="preserve" text-anchor="middle" x="1092.74" y="-357.6" font-family="Helvetica,sans-Serif" font-size="8.00">confirmed</text>
<text xml:space="preserve" text-anchor="middle" x="1092.74" y="-347.85" font-family="Helvetica,sans-Serif" font-size="8.00">red</text>
</g>
<!-- b8 -->
<g id="node26" class="node">
<title>b8</title>
<ellipse fill="#ffab40" stroke="black" cx="1092.74" cy="-275" rx="50.56" ry="35.36"/>
<text xml:space="preserve" text-anchor="middle" x="1092.74" y="-287.45" font-family="Helvetica,sans-Serif" font-size="9.00">Remove first</text>
<text xml:space="preserve" text-anchor="middle" x="1092.74" y="-276.95" font-family="Helvetica,sans-Serif" font-size="9.00">(3 steps, free)</text>
<text xml:space="preserve" text-anchor="middle" x="1092.74" y="-266.45" font-family="Helvetica,sans-Serif" font-size="9.00">then Restore</text>
<text xml:space="preserve" text-anchor="middle" x="1092.74" y="-255.95" font-family="Helvetica,sans-Serif" font-size="9.00">if persists</text>
</g>
<!-- b2&#45;&gt;b8 -->
<g id="edge21" class="edge">
<title>b2&#45;&gt;b8</title>
<path fill="none" stroke="black" d="M962.27,-275C984.51,-275 1008.95,-275 1030.55,-275"/>
<polygon fill="black" stroke="black" points="1030.38,-278.5 1040.38,-275 1030.38,-271.5 1030.38,-278.5"/>
<text xml:space="preserve" text-anchor="middle" x="992.18" y="-286.9" font-family="Helvetica,sans-Serif" font-size="8.00">proc</text>
<text xml:space="preserve" text-anchor="middle" x="992.18" y="-277.15" font-family="Helvetica,sans-Serif" font-size="8.00">only</text>
</g>
<!-- b4 -->
<g id="node22" class="node">
<title>b4</title>
<ellipse fill="#90caf9" stroke="black" cx="1463.32" cy="-356" rx="61.7" ry="27.93"/>
<text xml:space="preserve" text-anchor="middle" x="1463.32" y="-363.2" font-family="Helvetica,sans-Serif" font-size="9.00">Redeploy decoys</text>
<text xml:space="preserve" text-anchor="middle" x="1463.32" y="-352.7" font-family="Helvetica,sans-Serif" font-size="9.00">(6 steps)</text>
<text xml:space="preserve" text-anchor="middle" x="1463.32" y="-342.2" font-family="Helvetica,sans-Serif" font-size="9.00">3 x DeployDecoy</text>
</g>
<!-- b3&#45;&gt;b4 -->
<g id="edge24" class="edge">
<title>b3&#45;&gt;b4</title>
<path fill="none" stroke="black" d="M1341.09,-356C1356.57,-356 1373.74,-356 1390.16,-356"/>
<polygon fill="black" stroke="black" points="1389.88,-359.5 1399.88,-356 1389.88,-352.5 1389.88,-359.5"/>
<text xml:space="preserve" text-anchor="middle" x="1374.25" y="-367.9" font-family="Helvetica,sans-Serif" font-size="8.00">host</text>
<text xml:space="preserve" text-anchor="middle" x="1374.25" y="-358.15" font-family="Helvetica,sans-Serif" font-size="8.00">clean</text>
</g>
<!-- b6 -->
<g id="node24" class="node">
<title>b6</title>
<ellipse fill="#66bb6a" stroke="black" cx="678.81" cy="-356" rx="59.57" ry="35.36"/>
<text xml:space="preserve" text-anchor="middle" x="678.81" y="-368.45" font-family="Helvetica,sans-Serif" font-size="9.00">BlockTrafficZone</text>
<text xml:space="preserve" text-anchor="middle" x="678.81" y="-357.95" font-family="Helvetica,sans-Serif" font-size="9.00">(free, instant)</text>
<text xml:space="preserve" text-anchor="middle" x="678.81" y="-347.45" font-family="Helvetica,sans-Serif" font-size="9.00">Cuts lateral</text>
<text xml:space="preserve" text-anchor="middle" x="678.81" y="-336.95" font-family="Helvetica,sans-Serif" font-size="9.00">movement</text>
</g>
<!-- b5&#45;&gt;b6 -->
<g id="edge25" class="edge">
<title>b5&#45;&gt;b6</title>
<path fill="none" stroke="black" d="M563.67,-359.34C577.85,-358.92 593.21,-358.47 607.93,-358.04"/>
<polygon fill="black" stroke="black" points="607.63,-361.55 617.52,-357.76 607.42,-354.56 607.63,-361.55"/>
</g>
<!-- b7 -->
<g id="node25" class="node">
<title>b7</title>
<ellipse fill="#fff9c4" stroke="black" cx="1286.77" cy="-263" rx="58.51" ry="35.36"/>
<text xml:space="preserve" text-anchor="middle" x="1286.77" y="-275.45" font-family="Helvetica,sans-Serif" font-size="9.00">False positive!</text>
<text xml:space="preserve" text-anchor="middle" x="1286.77" y="-264.95" font-family="Helvetica,sans-Serif" font-size="9.00">(33&#45;54% of</text>
<text xml:space="preserve" text-anchor="middle" x="1286.77" y="-254.45" font-family="Helvetica,sans-Serif" font-size="9.00">proc alerts)</text>
<text xml:space="preserve" text-anchor="middle" x="1286.77" y="-243.95" font-family="Helvetica,sans-Serif" font-size="9.00">Wastes Remove</text>
</g>
<!-- b8&#45;&gt;b3 -->
<g id="edge23" class="edge">
<title>b8&#45;&gt;b3</title>
<path fill="none" stroke="black" d="M1136.36,-292.98C1164.03,-304.65 1200.39,-319.98 1230.31,-332.6"/>
<polygon fill="black" stroke="black" points="1228.63,-335.7 1239.2,-336.36 1231.35,-329.25 1228.63,-335.7"/>
<text xml:space="preserve" text-anchor="middle" x="1194.79" y="-324.91" font-family="Helvetica,sans-Serif" font-size="8.00">persists</text>
</g>
<!-- b8&#45;&gt;b7 -->
<g id="edge22" class="edge">
<title>b8&#45;&gt;b7</title>
<path fill="none" stroke="black" stroke-dasharray="5,2" d="M1143.19,-271.91C1165.64,-270.51 1192.57,-268.82 1216.95,-267.3"/>
<polygon fill="black" stroke="black" points="1217.04,-270.8 1226.81,-266.68 1216.61,-263.82 1217.04,-270.8"/>
<text xml:space="preserve" text-anchor="middle" x="1194.79" y="-271.51" font-family="Helvetica,sans-Serif" font-size="8.00">was FP</text>
</g>
<!-- rew_ph0 -->
<g id="node27" class="node">
<title>rew_ph0</title>
<ellipse fill="#ffe082" stroke="black" cx="333.11" cy="-474" rx="77.6" ry="35.36"/>
<text xml:space="preserve" text-anchor="middle" x="333.11" y="-486.45" font-family="Helvetica,sans-Serif" font-size="9.00">Phase 0</text>
<text xml:space="preserve" text-anchor="middle" x="333.11" y="-475.95" font-family="Helvetica,sans-Serif" font-size="9.00">&#45;3.10/step avg</text>
<text xml:space="preserve" text-anchor="middle" x="333.11" y="-465.45" font-family="Helvetica,sans-Serif" font-size="9.00">&#45;518 total (50% of loss)</text>
<text xml:space="preserve" text-anchor="middle" x="333.11" y="-454.95" font-family="Helvetica,sans-Serif" font-size="9.00">No blocking available!</text>
</g>
<!-- rew_ph1 -->
<g id="node28" class="node">
<title>rew_ph1</title>
<ellipse fill="#ffd54f" stroke="black" cx="505.7" cy="-474" rx="54.8" ry="35.36"/>
<text xml:space="preserve" text-anchor="middle" x="505.7" y="-486.45" font-family="Helvetica,sans-Serif" font-size="9.00">Phase 1</text>
<text xml:space="preserve" text-anchor="middle" x="505.7" y="-475.95" font-family="Helvetica,sans-Serif" font-size="9.00">&#45;1.70/step avg</text>
<text xml:space="preserve" text-anchor="middle" x="505.7" y="-465.45" font-family="Helvetica,sans-Serif" font-size="9.00">&#45;284 total</text>
<text xml:space="preserve" text-anchor="middle" x="505.7" y="-454.95" font-family="Helvetica,sans-Serif" font-size="9.00">Blocking active</text>
</g>
<!-- rew_ph0&#45;&gt;rew_ph1 -->
<g id="edge26" class="edge">
<title>rew_ph0&#45;&gt;rew_ph1</title>
<path fill="none" stroke="black" d="M410.92,-474C420.31,-474 429.83,-474 439.04,-474"/>
<polygon fill="black" stroke="black" points="438.98,-477.5 448.98,-474 438.98,-470.5 438.98,-477.5"/>
</g>
<!-- rew_ph1&#45;&gt;rew_spike -->
<g id="edge27" class="edge">
<title>rew_ph1&#45;&gt;rew_spike</title>
<path fill="none" stroke="black" d="M560.84,-474C569.68,-474 579.04,-474 588.46,-474"/>
<polygon fill="black" stroke="black" points="588.44,-477.5 598.44,-474 588.44,-470.5 588.44,-477.5"/>
</g>
<!-- rew_ph2 -->
<g id="node30" class="node">
<title>rew_ph2</title>
<ellipse fill="#ffc107" stroke="black" cx="891.63" cy="-474" rx="54.8" ry="35.36"/>
<text xml:space="preserve" text-anchor="middle" x="891.63" y="-486.45" font-family="Helvetica,sans-Serif" font-size="9.00">Phase 2</text>
<text xml:space="preserve" text-anchor="middle" x="891.63" y="-475.95" font-family="Helvetica,sans-Serif" font-size="9.00">&#45;1.42/step avg</text>
<text xml:space="preserve" text-anchor="middle" x="891.63" y="-465.45" font-family="Helvetica,sans-Serif" font-size="9.00">&#45;235 total</text>
<text xml:space="preserve" text-anchor="middle" x="891.63" y="-454.95" font-family="Helvetica,sans-Serif" font-size="9.00">Blocking active</text>
</g>
<!-- rew_spike&#45;&gt;rew_ph2 -->
<g id="edge28" class="edge">
<title>rew_spike&#45;&gt;rew_ph2</title>
<path fill="none" stroke="black" d="M757.71,-474C779.89,-474 803.8,-474 825.15,-474"/>
<polygon fill="black" stroke="black" points="824.88,-477.5 834.88,-474 824.88,-470.5 824.88,-477.5"/>
</g>
<!-- rew_total -->
<g id="node31" class="node">
<title>rew_total</title>
<ellipse fill="#f9a825" stroke="black" stroke-width="2" cx="1092.74" cy="-474" rx="70.18" ry="35.36"/>
<text xml:space="preserve" text-anchor="middle" x="1092.74" y="-486.45" font-family="Helvetica,sans-Serif" font-size="9.00">Mean Total</text>
<text xml:space="preserve" text-anchor="middle" x="1092.74" y="-475.95" font-family="Helvetica,sans-Serif" font-size="9.00">&#45;1039 per episode</text>
<text xml:space="preserve" text-anchor="middle" x="1092.74" y="-465.45" font-family="Helvetica,sans-Serif" font-size="9.00">(&#45;208/agent)</text>
<text xml:space="preserve" text-anchor="middle" x="1092.74" y="-454.95" font-family="Helvetica,sans-Serif" font-size="9.00">97.6% of achievable</text>
</g>
<!-- rew_ph2&#45;&gt;rew_total -->
<g id="edge29" class="edge">
<title>rew_ph2&#45;&gt;rew_total</title>
<path fill="none" stroke="black" d="M946.77,-474C966.39,-474 989.01,-474 1010.45,-474"/>
<polygon fill="black" stroke="black" points="1010.36,-477.5 1020.36,-474 1010.36,-470.5 1010.36,-477.5"/>
</g>
</g>
</svg>
