<?xml version="1.0" encoding="UTF-8" standalone="no"?>
<!DOCTYPE svg PUBLIC "-//W3C//DTD SVG 1.1//EN"
 "http://www.w3.org/Graphics/SVG/1.1/DTD/svg11.dtd">
<!-- Generated by graphviz version 14.1.4 (20260321.0153)
 -->
<!-- Title: BlueDecisionTree Pages: 1 -->
<svg width="1179pt" height="1281pt"
 viewBox="0.00 0.00 1179.00 1281.00" xmlns="http://www.w3.org/2000/svg" xmlns:xlink="http://www.w3.org/1999/xlink">
<g id="graph0" class="graph" transform="scale(1 1) rotate(0) translate(4 1276.75)">
<title>BlueDecisionTree</title>
<polygon fill="white" stroke="none" points="-4,4 -4,-1276.75 1175.38,-1276.75 1175.38,4 -4,4"/>
<text xml:space="preserve" text-anchor="middle" x="585.69" y="-1255.45" font-family="Helvetica,sans-Serif" font-size="14.00">Blue Heuristic Agent Decision Tree (v9.1)</text>
<text xml:space="preserve" text-anchor="middle" x="585.69" y="-1239.7" font-family="Helvetica,sans-Serif" font-size="14.00">Priority Cascade with Escalation Tiers</text>
<!-- START -->
<g id="node1" class="node">
<title>START</title>
<ellipse fill="#b0bec5" stroke="black" cx="276.25" cy="-1210.63" rx="69.65" ry="22.63"/>
<text xml:space="preserve" text-anchor="middle" x="276.25" y="-1213.13" font-family="Helvetica,sans-Serif" font-size="10.00">Read Observation</text>
<text xml:space="preserve" text-anchor="middle" x="276.25" y="-1201.13" font-family="Helvetica,sans-Serif" font-size="10.00">(per step, per host)</text>
</g>
<!-- P1 -->
<g id="node2" class="node">
<title>P1</title>
<polygon fill="lightgrey" stroke="black" points="377.25,-1151 175.25,-1151 175.25,-1107 377.25,-1107 377.25,-1151"/>
<polygon fill="#ffcdd2" stroke="none" points="183.25,-1111 183.25,-1147 369.25,-1147 369.25,-1111 183.25,-1111"/>
<polygon fill="none" stroke="black" points="183.25,-1129 183.25,-1147 369.25,-1147 369.25,-1129 183.25,-1129"/>
<text xml:space="preserve" text-anchor="start" x="228.62" y="-1135.5" font-family="Helvetica,sans-Serif" font-weight="bold" font-size="10.00">P1: Confirmed Red?</text>
<polygon fill="none" stroke="black" points="183.25,-1111 183.25,-1129 266.5,-1129 266.5,-1111 183.25,-1111"/>
<text xml:space="preserve" text-anchor="start" x="186.25" y="-1116.25" font-family="Helvetica,sans-Serif" font-size="10.00">conn_flag=1 AND</text>
<polygon fill="none" stroke="black" points="266.5,-1111 266.5,-1129 369.25,-1129 369.25,-1111 266.5,-1111"/>
<text xml:space="preserve" text-anchor="start" x="269.5" y="-1116.25" font-family="Helvetica,sans-Serif" font-size="10.00">(malfile=1 OR proc=1)</text>
</g>
<!-- START&#45;&gt;P1 -->
<g id="edge1" class="edge">
<title>START&#45;&gt;P1</title>
<path fill="none" stroke="black" d="M276.25,-1187.87C276.25,-1180.17 276.25,-1171.33 276.25,-1162.91"/>
<polygon fill="black" stroke="black" points="279.75,-1162.97 276.25,-1152.97 272.75,-1162.97 279.75,-1162.97"/>
</g>
<!-- P1_RESTORE -->
<g id="node3" class="node">
<title>P1_RESTORE</title>
<polygon fill="#ff6b6b" stroke="black" points="301.38,-1060.5 211.12,-1060.5 211.12,-1016.5 301.38,-1016.5 301.38,-1060.5"/>
<text xml:space="preserve" text-anchor="middle" x="256.25" y="-1047" font-family="Helvetica,sans-Serif" font-size="10.00">RESTORE</text>
<text xml:space="preserve" text-anchor="middle" x="256.25" y="-1035" font-family="Helvetica,sans-Serif" font-size="10.00">immediate</text>
<text xml:space="preserve" text-anchor="middle" x="256.25" y="-1023" font-family="Helvetica,sans-Serif" font-size="10.00">(5 steps, cost &#45;1)</text>
</g>
<!-- P1&#45;&gt;P1_RESTORE -->
<g id="edge2" class="edge">
<title>P1&#45;&gt;P1_RESTORE</title>
<path fill="none" stroke="black" d="M271.41,-1106.58C269.05,-1096.14 266.16,-1083.37 263.55,-1071.79"/>
<polygon fill="black" stroke="black" points="267,-1071.18 261.38,-1062.2 260.17,-1072.73 267,-1071.18"/>
<text xml:space="preserve" text-anchor="middle" x="275.85" y="-1080.45" font-family="Helvetica,sans-Serif" font-size="9.00">YES</text>
</g>
<!-- P1b -->
<g id="node4" class="node">
<title>P1b</title>
<polygon fill="lightgrey" stroke="black" points="461.25,-1060.5 319.25,-1060.5 319.25,-1016.5 461.25,-1016.5 461.25,-1060.5"/>
<polygon fill="#ffe0b2" stroke="none" points="327.25,-1020.5 327.25,-1056.5 453.25,-1056.5 453.25,-1020.5 327.25,-1020.5"/>
<polygon fill="none" stroke="black" points="327.25,-1038.5 327.25,-1056.5 453.25,-1056.5 453.25,-1038.5 327.25,-1038.5"/>
<text xml:space="preserve" text-anchor="start" x="335.12" y="-1045" font-family="Helvetica,sans-Serif" font-weight="bold" font-size="10.00">P1b: conn_flag=1 only?</text>
<polygon fill="none" stroke="black" points="327.25,-1020.5 327.25,-1038.5 447.25,-1038.5 447.25,-1020.5 327.25,-1020.5"/>
<text xml:space="preserve" text-anchor="start" x="330.25" y="-1025.75" font-family="Helvetica,sans-Serif" font-size="10.00">conn=1, malfile=0, proc=0</text>
<polygon fill="none" stroke="black" points="447.25,-1020.5 447.25,-1038.5 453.25,-1038.5 453.25,-1020.5 447.25,-1020.5"/>
</g>
<!-- P1&#45;&gt;P1b -->
<g id="edge3" class="edge">
<title>P1&#45;&gt;P1b</title>
<path fill="none" stroke="black" d="M303.85,-1106.58C318.97,-1094.84 337.9,-1080.14 354.18,-1067.5"/>
<polygon fill="black" stroke="black" points="355.96,-1070.55 361.71,-1061.65 351.67,-1065.02 355.96,-1070.55"/>
<text xml:space="preserve" text-anchor="middle" x="343.42" y="-1080.45" font-family="Helvetica,sans-Serif" font-size="9.00">NO</text>
</g>
<!-- P1b_decoy_check -->
<g id="node5" class="node">
<title>P1b_decoy_check</title>
<polygon fill="#fff9c4" stroke="black" points="287.25,-970 195.5,-938 287.25,-906 379,-938 287.25,-970"/>
<text xml:space="preserve" text-anchor="middle" x="287.25" y="-940.5" font-family="Helvetica,sans-Serif" font-size="10.00">Decoys deployed</text>
<text xml:space="preserve" text-anchor="middle" x="287.25" y="-928.5" font-family="Helvetica,sans-Serif" font-size="10.00">on this host?</text>
</g>
<!-- P1b&#45;&gt;P1b_decoy_check -->
<g id="edge4" class="edge">
<title>P1b&#45;&gt;P1b_decoy_check</title>
<path fill="none" stroke="black" d="M367.9,-1016.13C353.69,-1002.54 335.07,-984.73 319.3,-969.65"/>
<polygon fill="black" stroke="black" points="322.09,-967.48 312.45,-963.1 317.25,-972.54 322.09,-967.48"/>
<text xml:space="preserve" text-anchor="middle" x="380.98" y="-989.95" font-family="Helvetica,sans-Serif" font-size="9.00">YES (conn only)</text>
</g>
<!-- P1c -->
<g id="node10" class="node">
<title>P1c</title>
<polygon fill="lightgrey" stroke="black" points="543.88,-969 396.62,-969 396.62,-907 543.88,-907 543.88,-969"/>
<polygon fill="#e1bee7" stroke="none" points="404.62,-911 404.62,-965 535.88,-965 535.88,-911 404.62,-911"/>
<polygon fill="none" stroke="black" points="404.62,-947 404.62,-965 535.88,-965 535.88,-947 404.62,-947"/>
<text xml:space="preserve" text-anchor="start" x="422.62" y="-953.5" font-family="Helvetica,sans-Serif" font-weight="bold" font-size="10.00">P1c: malfile=1 only?</text>
<polygon fill="none" stroke="black" points="404.62,-929 404.62,-947 535.88,-947 535.88,-929 404.62,-929"/>
<text xml:space="preserve" text-anchor="start" x="413.25" y="-934.25" font-family="Helvetica,sans-Serif" font-size="10.00">malfile=1, proc=0, conn=0</text>
<polygon fill="none" stroke="black" points="404.62,-911 404.62,-929 535.88,-929 535.88,-911 404.62,-911"/>
<text xml:space="preserve" text-anchor="start" x="407.62" y="-916.25" font-family="Helvetica,sans-Serif" font-size="10.00">= PrivilegeEscalate detected</text>
</g>
<!-- P1b&#45;&gt;P1c -->
<g id="edge9" class="edge">
<title>P1b&#45;&gt;P1c</title>
<path fill="none" stroke="black" d="M407.61,-1016.13C416.64,-1005 427.98,-991.05 438.51,-978.08"/>
<polygon fill="black" stroke="black" points="441.1,-980.44 444.69,-970.48 435.67,-976.03 441.1,-980.44"/>
<text xml:space="preserve" text-anchor="middle" x="437" y="-989.95" font-family="Helvetica,sans-Serif" font-size="9.00">NO</text>
</g>
<!-- P1b_upstream -->
<g id="node6" class="node">
<title>P1b_upstream</title>
<polygon fill="#fff9c4" stroke="black" points="123.25,-859.5 0,-827.5 123.25,-795.5 246.5,-827.5 123.25,-859.5"/>
<text xml:space="preserve" text-anchor="middle" x="123.25" y="-830" font-family="Helvetica,sans-Serif" font-size="10.00">Upstream reports</text>
<text xml:space="preserve" text-anchor="middle" x="123.25" y="-818" font-family="Helvetica,sans-Serif" font-size="10.00">DECOYS_BYPASSED?</text>
</g>
<!-- P1b_decoy_check&#45;&gt;P1b_upstream -->
<g id="edge5" class="edge">
<title>P1b_decoy_check&#45;&gt;P1b_upstream</title>
<path fill="none" stroke="black" d="M256.4,-916.59C231.06,-899.83 194.86,-875.88 166.61,-857.18"/>
<polygon fill="black" stroke="black" points="168.89,-854.5 158.62,-851.9 165.03,-860.34 168.89,-854.5"/>
<text xml:space="preserve" text-anchor="middle" x="219.17" y="-879.45" font-family="Helvetica,sans-Serif" font-size="9.00">YES</text>
</g>
<!-- P1b_RESTORE2 -->
<g id="node9" class="node">
<title>P1b_RESTORE2</title>
<polygon fill="#ff6b6b" stroke="black" points="367.75,-849.5 264.75,-849.5 264.75,-805.5 367.75,-805.5 367.75,-849.5"/>
<text xml:space="preserve" text-anchor="middle" x="316.25" y="-836" font-family="Helvetica,sans-Serif" font-size="10.00">RESTORE</text>
<text xml:space="preserve" text-anchor="middle" x="316.25" y="-824" font-family="Helvetica,sans-Serif" font-size="10.00">(no decoy, unknown</text>
<text xml:space="preserve" text-anchor="middle" x="316.25" y="-812" font-family="Helvetica,sans-Serif" font-size="10.00">source &#45;&#45; be safe)</text>
</g>
<!-- P1b_decoy_check&#45;&gt;P1b_RESTORE2 -->
<g id="edge6" class="edge">
<title>P1b_decoy_check&#45;&gt;P1b_RESTORE2</title>
<path fill="none" stroke="black" d="M294.95,-908.21C298.85,-893.6 303.61,-875.81 307.63,-860.74"/>
<polygon fill="black" stroke="black" points="310.95,-861.88 310.15,-851.31 304.19,-860.07 310.95,-861.88"/>
<text xml:space="preserve" text-anchor="middle" x="309.37" y="-879.45" font-family="Helvetica,sans-Serif" font-size="9.00">NO</text>
</g>
<!-- P1b_SKIP -->
<g id="node7" class="node">
<title>P1b_SKIP</title>
<polygon fill="#c8e6c9" stroke="black" points="107.25,-729.5 31.25,-729.5 31.25,-685.5 107.25,-685.5 107.25,-729.5"/>
<text xml:space="preserve" text-anchor="middle" x="69.25" y="-716" font-family="Helvetica,sans-Serif" font-size="10.00">SKIP</text>
<text xml:space="preserve" text-anchor="middle" x="69.25" y="-704" font-family="Helvetica,sans-Serif" font-size="10.00">(decoy hit,</text>
<text xml:space="preserve" text-anchor="middle" x="69.25" y="-692" font-family="Helvetica,sans-Serif" font-size="10.00">no real threat)</text>
</g>
<!-- P1b_upstream&#45;&gt;P1b_SKIP -->
<g id="edge8" class="edge">
<title>P1b_upstream&#45;&gt;P1b_SKIP</title>
<path fill="none" stroke="black" d="M95.45,-802.32C88.69,-795.02 82.2,-786.53 78,-777.5 72.8,-766.34 70.35,-753.11 69.29,-741.25"/>
<polygon fill="black" stroke="black" points="72.8,-741.25 68.73,-731.47 65.81,-741.65 72.8,-741.25"/>
<text xml:space="preserve" text-anchor="middle" x="110.62" y="-768.95" font-family="Helvetica,sans-Serif" font-size="9.00">NO</text>
<text xml:space="preserve" text-anchor="middle" x="110.62" y="-758.45" font-family="Helvetica,sans-Serif" font-size="9.00">(decoy working)</text>
</g>
<!-- P1b_RESTORE -->
<g id="node8" class="node">
<title>P1b_RESTORE</title>
<polygon fill="#ff6b6b" stroke="black" points="229.5,-725.5 125,-725.5 125,-689.5 229.5,-689.5 229.5,-725.5"/>
<text xml:space="preserve" text-anchor="middle" x="177.25" y="-710" font-family="Helvetica,sans-Serif" font-size="10.00">RESTORE</text>
<text xml:space="preserve" text-anchor="middle" x="177.25" y="-698" font-family="Helvetica,sans-Serif" font-size="10.00">(red knows decoys!)</text>
</g>
<!-- P1b_upstream&#45;&gt;P1b_RESTORE -->
<g id="edge7" class="edge">
<title>P1b_upstream&#45;&gt;P1b_RESTORE</title>
<path fill="none" stroke="black" d="M136.05,-798.54C144.7,-779.62 156.08,-754.76 164.69,-735.95"/>
<polygon fill="black" stroke="black" points="167.78,-737.6 168.76,-727.05 161.42,-734.68 167.78,-737.6"/>
<text xml:space="preserve" text-anchor="middle" x="177.96" y="-768.95" font-family="Helvetica,sans-Serif" font-size="9.00">YES</text>
<text xml:space="preserve" text-anchor="middle" x="177.96" y="-758.45" font-family="Helvetica,sans-Serif" font-size="9.00">(bypassed)</text>
</g>
<!-- P1c_RESTORE -->
<g id="node11" class="node">
<title>P1c_RESTORE</title>
<polygon fill="#ff6b6b" stroke="black" points="500.5,-849.5 390,-849.5 390,-805.5 500.5,-805.5 500.5,-849.5"/>
<text xml:space="preserve" text-anchor="middle" x="445.25" y="-836" font-family="Helvetica,sans-Serif" font-size="10.00">RESTORE</text>
<text xml:space="preserve" text-anchor="middle" x="445.25" y="-824" font-family="Helvetica,sans-Serif" font-size="10.00">(root session present)</text>
<text xml:space="preserve" text-anchor="middle" x="445.25" y="-812" font-family="Helvetica,sans-Serif" font-size="10.00">(5 steps, cost &#45;1)</text>
</g>
<!-- P1c&#45;&gt;P1c_RESTORE -->
<g id="edge10" class="edge">
<title>P1c&#45;&gt;P1c_RESTORE</title>
<path fill="none" stroke="black" d="M459.47,-906.64C457.55,-900.52 455.7,-894.1 454.25,-888 452.21,-879.4 450.54,-869.99 449.21,-861.25"/>
<polygon fill="black" stroke="black" points="452.68,-860.78 447.82,-851.37 445.75,-861.76 452.68,-860.78"/>
<text xml:space="preserve" text-anchor="middle" x="463.25" y="-879.45" font-family="Helvetica,sans-Serif" font-size="9.00">YES</text>
</g>
<!-- P2 -->
<g id="node12" class="node">
<title>P2</title>
<polygon fill="lightgrey" stroke="black" points="628.12,-858.5 518.38,-858.5 518.38,-796.5 628.12,-796.5 628.12,-858.5"/>
<polygon fill="#c8e6c9" stroke="none" points="526.38,-800.5 526.38,-854.5 620.12,-854.5 620.12,-800.5 526.38,-800.5"/>
<polygon fill="none" stroke="black" points="526.38,-836.5 526.38,-854.5 620.12,-854.5 620.12,-836.5 526.38,-836.5"/>
<text xml:space="preserve" text-anchor="start" x="532.75" y="-843" font-family="Helvetica,sans-Serif" font-weight="bold" font-size="10.00">P2: Stale blocks?</text>
<polygon fill="none" stroke="black" points="526.38,-818.5 526.38,-836.5 620.12,-836.5 620.12,-818.5 526.38,-818.5"/>
<text xml:space="preserve" text-anchor="start" x="529.38" y="-823.75" font-family="Helvetica,sans-Serif" font-size="10.00">Policy says ALLOW</text>
<polygon fill="none" stroke="black" points="526.38,-800.5 526.38,-818.5 620.12,-818.5 620.12,-800.5 526.38,-800.5"/>
<text xml:space="preserve" text-anchor="start" x="539.12" y="-805.75" font-family="Helvetica,sans-Serif" font-size="10.00">but still blocked</text>
</g>
<!-- P1c&#45;&gt;P2 -->
<g id="edge11" class="edge">
<title>P1c&#45;&gt;P2</title>
<path fill="none" stroke="black" d="M498.94,-906.78C510.56,-894.53 524.13,-880.25 536.46,-867.25"/>
<polygon fill="black" stroke="black" points="538.97,-869.7 543.31,-860.04 533.89,-864.88 538.97,-869.7"/>
<text xml:space="preserve" text-anchor="middle" x="531.59" y="-879.45" font-family="Helvetica,sans-Serif" font-size="9.00">NO</text>
</g>
<!-- P2_ALLOW -->
<g id="node13" class="node">
<title>P2_ALLOW</title>
<polygon fill="#81c784" stroke="black" points="576.62,-725.5 487.88,-725.5 487.88,-689.5 576.62,-689.5 576.62,-725.5"/>
<text xml:space="preserve" text-anchor="middle" x="532.25" y="-710" font-family="Helvetica,sans-Serif" font-size="10.00">AllowTrafficZone</text>
<text xml:space="preserve" text-anchor="middle" x="532.25" y="-698" font-family="Helvetica,sans-Serif" font-size="10.00">(1 step, free)</text>
</g>
<!-- P2&#45;&gt;P2_ALLOW -->
<g id="edge12" class="edge">
<title>P2&#45;&gt;P2_ALLOW</title>
<path fill="none" stroke="black" d="M562.69,-796.11C556.32,-777.76 548.25,-754.54 542.02,-736.62"/>
<polygon fill="black" stroke="black" points="545.41,-735.7 538.82,-727.4 538.79,-738 545.41,-735.7"/>
<text xml:space="preserve" text-anchor="middle" x="564.2" y="-763.7" font-family="Helvetica,sans-Serif" font-size="9.00">YES</text>
</g>
<!-- P3 -->
<g id="node14" class="node">
<title>P3</title>
<polygon fill="lightgrey" stroke="black" points="711.5,-738.5 595,-738.5 595,-676.5 711.5,-676.5 711.5,-738.5"/>
<polygon fill="#c8e6c9" stroke="none" points="603,-680.5 603,-734.5 703.5,-734.5 703.5,-680.5 603,-680.5"/>
<polygon fill="none" stroke="black" points="603,-716.5 603,-734.5 703.5,-734.5 703.5,-716.5 603,-716.5"/>
<text xml:space="preserve" text-anchor="start" x="606" y="-723" font-family="Helvetica,sans-Serif" font-weight="bold" font-size="10.00">P3: Missing blocks?</text>
<polygon fill="none" stroke="black" points="603,-698.5 603,-716.5 703.5,-716.5 703.5,-698.5 603,-698.5"/>
<text xml:space="preserve" text-anchor="start" x="609.38" y="-703.75" font-family="Helvetica,sans-Serif" font-size="10.00">Policy says BLOCK</text>
<polygon fill="none" stroke="black" points="603,-680.5 603,-698.5 703.5,-698.5 703.5,-680.5 603,-680.5"/>
<text xml:space="preserve" text-anchor="start" x="611.62" y="-685.75" font-family="Helvetica,sans-Serif" font-size="10.00">but not yet blocked</text>
</g>
<!-- P2&#45;&gt;P3 -->
<g id="edge13" class="edge">
<title>P2&#45;&gt;P3</title>
<path fill="none" stroke="black" d="M593.85,-796.11C603.74,-781.52 615.72,-763.85 626.33,-748.21"/>
<polygon fill="black" stroke="black" points="629.15,-750.28 631.87,-740.04 623.36,-746.35 629.15,-750.28"/>
<text xml:space="preserve" text-anchor="middle" x="627.17" y="-763.7" font-family="Helvetica,sans-Serif" font-size="9.00">NO</text>
</g>
<!-- P3_BLOCK -->
<g id="node15" class="node">
<title>P3_BLOCK</title>
<polygon fill="#81c784" stroke="black" points="646.5,-630 554,-630 554,-562 646.5,-562 646.5,-630"/>
<text xml:space="preserve" text-anchor="middle" x="600.25" y="-616.5" font-family="Helvetica,sans-Serif" font-size="10.00">BlockTrafficZone</text>
<text xml:space="preserve" text-anchor="middle" x="600.25" y="-604.5" font-family="Helvetica,sans-Serif" font-size="10.00">(1 step, free)</text>
<text xml:space="preserve" text-anchor="middle" x="600.25" y="-592.5" font-family="Helvetica,sans-Serif" font-size="10.00">Order: RZ(250) &gt;</text>
<text xml:space="preserve" text-anchor="middle" x="600.25" y="-580.5" font-family="Helvetica,sans-Serif" font-size="10.00">Contractor(200) &gt;</text>
<text xml:space="preserve" text-anchor="middle" x="600.25" y="-568.5" font-family="Helvetica,sans-Serif" font-size="10.00">others(10)</text>
</g>
<!-- P3&#45;&gt;P3_BLOCK -->
<g id="edge14" class="edge">
<title>P3&#45;&gt;P3_BLOCK</title>
<path fill="none" stroke="black" d="M638.63,-676.29C633.27,-665.22 627.1,-652.47 621.29,-640.48"/>
<polygon fill="black" stroke="black" points="624.48,-639.03 616.97,-631.55 618.18,-642.08 624.48,-639.03"/>
<text xml:space="preserve" text-anchor="middle" x="638.92" y="-649.95" font-family="Helvetica,sans-Serif" font-size="9.00">YES</text>
</g>
<!-- P4 -->
<g id="node16" class="node">
<title>P4</title>
<polygon fill="lightgrey" stroke="black" points="874.38,-618 664.12,-618 664.12,-574 874.38,-574 874.38,-618"/>
<polygon fill="#fff9c4" stroke="none" points="672.12,-578 672.12,-614 866.38,-614 866.38,-578 672.12,-578"/>
<polygon fill="none" stroke="black" points="672.12,-596 672.12,-614 866.38,-614 866.38,-596 672.12,-596"/>
<text xml:space="preserve" text-anchor="start" x="718.25" y="-602.5" font-family="Helvetica,sans-Serif" font-weight="bold" font-size="10.00">P4: proc_flag=1 only?</text>
<polygon fill="none" stroke="black" points="672.12,-578 672.12,-596 792.12,-596 792.12,-578 672.12,-578"/>
<text xml:space="preserve" text-anchor="start" x="675.12" y="-583.25" font-family="Helvetica,sans-Serif" font-size="10.00">proc=1, conn=0, malfile=0</text>
<polygon fill="none" stroke="black" points="792.12,-578 792.12,-596 866.38,-596 866.38,-578 792.12,-578"/>
<text xml:space="preserve" text-anchor="start" x="795.12" y="-583.25" font-family="Helvetica,sans-Serif" font-size="10.00">33&#45;54% FP rate</text>
</g>
<!-- P3&#45;&gt;P4 -->
<g id="edge15" class="edge">
<title>P3&#45;&gt;P4</title>
<path fill="none" stroke="black" d="M685.25,-676.29C701.82,-660.66 721.94,-641.66 738.34,-626.18"/>
<polygon fill="black" stroke="black" points="740.57,-628.89 745.44,-619.48 735.76,-623.8 740.57,-628.89"/>
<text xml:space="preserve" text-anchor="middle" x="721.48" y="-649.95" font-family="Helvetica,sans-Serif" font-size="9.00">NO</text>
</g>
<!-- P4_remove_tried -->
<g id="node17" class="node">
<title>P4_remove_tried</title>
<polygon fill="#fff9c4" stroke="black" points="769.25,-515.5 698.5,-483.5 769.25,-451.5 840,-483.5 769.25,-515.5"/>
<text xml:space="preserve" text-anchor="middle" x="769.25" y="-486" font-family="Helvetica,sans-Serif" font-size="10.00">Already tried</text>
<text xml:space="preserve" text-anchor="middle" x="769.25" y="-474" font-family="Helvetica,sans-Serif" font-size="10.00">Remove?</text>
</g>
<!-- P4&#45;&gt;P4_remove_tried -->
<g id="edge16" class="edge">
<title>P4&#45;&gt;P4_remove_tried</title>
<path fill="none" stroke="black" d="M769.25,-573.69C769.25,-560.47 769.25,-543.02 769.25,-527.05"/>
<polygon fill="black" stroke="black" points="772.75,-527.29 769.25,-517.29 765.75,-527.29 772.75,-527.29"/>
<text xml:space="preserve" text-anchor="middle" x="801.12" y="-535.45" font-family="Helvetica,sans-Serif" font-size="9.00">YES (proc only)</text>
</g>
<!-- P5 -->
<g id="node25" class="node">
<title>P5</title>
<polygon fill="lightgrey" stroke="black" points="1068.38,-505.5 912.12,-505.5 912.12,-461.5 1068.38,-461.5 1068.38,-505.5"/>
<polygon fill="#fff9c4" stroke="none" points="920.12,-465.5 920.12,-501.5 1060.38,-501.5 1060.38,-465.5 920.12,-465.5"/>
<polygon fill="none" stroke="black" points="920.12,-483.5 920.12,-501.5 1060.38,-501.5 1060.38,-483.5 920.12,-483.5"/>
<text xml:space="preserve" text-anchor="start" x="943" y="-490" font-family="Helvetica,sans-Serif" font-weight="bold" font-size="10.00">P5: Persistent proc?</text>
<polygon fill="none" stroke="black" points="920.12,-465.5 920.12,-483.5 1060.38,-483.5 1060.38,-465.5 920.12,-465.5"/>
<text xml:space="preserve" text-anchor="start" x="923.12" y="-470.75" font-family="Helvetica,sans-Serif" font-size="10.00">proc persists, no Remove tried</text>
</g>
<!-- P4&#45;&gt;P5 -->
<g id="edge25" class="edge">
<title>P4&#45;&gt;P5</title>
<path fill="none" stroke="black" d="M812.12,-573.56C847.96,-555.65 899.21,-530.02 937.55,-510.85"/>
<polygon fill="black" stroke="black" points="938.76,-514.16 946.14,-506.55 935.63,-507.9 938.76,-514.16"/>
<text xml:space="preserve" text-anchor="middle" x="893.13" y="-535.45" font-family="Helvetica,sans-Serif" font-size="9.00">NO</text>
</g>
<!-- P4_flag_persist -->
<g id="node18" class="node">
<title>P4_flag_persist</title>
<polygon fill="#fff9c4" stroke="black" points="599.25,-394.5 524,-350.5 599.25,-306.5 674.5,-350.5 599.25,-394.5"/>
<text xml:space="preserve" text-anchor="middle" x="599.25" y="-359" font-family="Helvetica,sans-Serif" font-size="10.00">Flag persists</text>
<text xml:space="preserve" text-anchor="middle" x="599.25" y="-347" font-family="Helvetica,sans-Serif" font-size="10.00">after Remove</text>
<text xml:space="preserve" text-anchor="middle" x="599.25" y="-335" font-family="Helvetica,sans-Serif" font-size="10.00">duration?</text>
</g>
<!-- P4_remove_tried&#45;&gt;P4_flag_persist -->
<g id="edge17" class="edge">
<title>P4_remove_tried&#45;&gt;P4_flag_persist</title>
<path fill="none" stroke="black" d="M743.8,-462.89C716.37,-441.75 672.31,-407.8 640.03,-382.93"/>
<polygon fill="black" stroke="black" points="642.52,-380.43 632.47,-377.1 638.25,-385.97 642.52,-380.43"/>
<text xml:space="preserve" text-anchor="middle" x="713.48" y="-419.7" font-family="Helvetica,sans-Serif" font-size="9.00">YES</text>
</g>
<!-- P4_tier_check -->
<g id="node20" class="node">
<title>P4_tier_check</title>
<polygon fill="#e1bee7" stroke="black" points="780.25,-382.5 692.25,-350.5 780.25,-318.5 868.25,-350.5 780.25,-382.5"/>
<text xml:space="preserve" text-anchor="middle" x="780.25" y="-353" font-family="Helvetica,sans-Serif" font-size="10.00">Check upstream</text>
<text xml:space="preserve" text-anchor="middle" x="780.25" y="-341" font-family="Helvetica,sans-Serif" font-size="10.00">messages</text>
</g>
<!-- P4_remove_tried&#45;&gt;P4_tier_check -->
<g id="edge20" class="edge">
<title>P4_remove_tried&#45;&gt;P4_tier_check</title>
<path fill="none" stroke="black" d="M771.8,-452.12C773.27,-434.59 775.14,-412.3 776.75,-393.16"/>
<polygon fill="black" stroke="black" points="780.24,-393.48 777.59,-383.23 773.26,-392.9 780.24,-393.48"/>
<text xml:space="preserve" text-anchor="middle" x="794.95" y="-424.95" font-family="Helvetica,sans-Serif" font-size="9.00">NO</text>
<text xml:space="preserve" text-anchor="middle" x="794.95" y="-414.45" font-family="Helvetica,sans-Serif" font-size="9.00">(first time)</text>
</g>
<!-- P4_flag_persist&#45;&gt;P4 -->
<g id="edge19" class="edge">
<title>P4_flag_persist&#45;&gt;P4</title>
<path fill="none" stroke="black" stroke-dasharray="1,5" d="M593.46,-391.5C590.48,-427.11 591.68,-479.06 616.5,-515.5 632.92,-539.6 659,-556.88 685,-569.04"/>
<polygon fill="black" stroke="black" points="683.38,-572.15 693.95,-573 686.22,-565.75 683.38,-572.15"/>
<text xml:space="preserve" text-anchor="middle" x="652.88" y="-485.45" font-family="Helvetica,sans-Serif" font-size="9.00">NO</text>
<text xml:space="preserve" text-anchor="middle" x="652.88" y="-474.95" font-family="Helvetica,sans-Serif" font-size="9.00">(Remove worked)</text>
</g>
<!-- P4_root -->
<g id="node19" class="node">
<title>P4_root</title>
<polygon fill="#ff6b6b" stroke="black" points="615,-240.5 519.5,-240.5 519.5,-196.5 615,-196.5 615,-240.5"/>
<text xml:space="preserve" text-anchor="middle" x="567.25" y="-227" font-family="Helvetica,sans-Serif" font-size="10.00">RESTORE</text>
<text xml:space="preserve" text-anchor="middle" x="567.25" y="-215" font-family="Helvetica,sans-Serif" font-size="10.00">(survived Remove</text>
<text xml:space="preserve" text-anchor="middle" x="567.25" y="-203" font-family="Helvetica,sans-Serif" font-size="10.00">= root session)</text>
</g>
<!-- P4_flag_persist&#45;&gt;P4_root -->
<g id="edge18" class="edge">
<title>P4_flag_persist&#45;&gt;P4_root</title>
<path fill="none" stroke="black" d="M589.91,-311.55C585.25,-292.61 579.67,-269.95 575.21,-251.85"/>
<polygon fill="black" stroke="black" points="578.62,-251.04 572.83,-242.17 571.82,-252.72 578.62,-251.04"/>
<text xml:space="preserve" text-anchor="middle" x="616.46" y="-279.95" font-family="Helvetica,sans-Serif" font-size="9.00">YES</text>
<text xml:space="preserve" text-anchor="middle" x="616.46" y="-269.45" font-family="Helvetica,sans-Serif" font-size="9.00">(root confirmed)</text>
</g>
<!-- P4_T3 -->
<g id="node21" class="node">
<title>P4_T3</title>
<polygon fill="lightgrey" stroke="black" points="907,-249.5 775.5,-249.5 775.5,-187.5 907,-187.5 907,-249.5"/>
<polygon fill="#ff8a80" stroke="none" points="783.5,-191.5 783.5,-245.5 899,-245.5 899,-191.5 783.5,-191.5"/>
<polygon fill="none" stroke="black" points="783.5,-227.5 783.5,-245.5 899,-245.5 899,-227.5 783.5,-227.5"/>
<text xml:space="preserve" text-anchor="start" x="795.88" y="-234" font-family="Helvetica,sans-Serif" font-weight="bold" font-size="10.00">Tier 3 (threshold=0)</text>
<polygon fill="none" stroke="black" points="783.5,-209.5 783.5,-227.5 899,-227.5 899,-209.5 783.5,-209.5"/>
<text xml:space="preserve" text-anchor="start" x="786.5" y="-214.75" font-family="Helvetica,sans-Serif" font-size="10.00">upstream red_count &gt;= 3</text>
<polygon fill="none" stroke="black" points="783.5,-191.5 783.5,-209.5 899,-209.5 899,-191.5 783.5,-191.5"/>
<text xml:space="preserve" text-anchor="start" x="809" y="-196.75" font-family="Helvetica,sans-Serif" font-size="10.00">&quot;Zone overrun&quot;</text>
</g>
<!-- P4_tier_check&#45;&gt;P4_T3 -->
<g id="edge21" class="edge">
<title>P4_tier_check&#45;&gt;P4_T3</title>
<path fill="none" stroke="black" d="M792.74,-322.88C801.23,-304.79 812.62,-280.52 822.23,-260.04"/>
<polygon fill="black" stroke="black" points="825.34,-261.64 826.42,-251.1 819.01,-258.66 825.34,-261.64"/>
<text xml:space="preserve" text-anchor="middle" x="846.51" y="-274.7" font-family="Helvetica,sans-Serif" font-size="9.00">red_count&gt;=3</text>
</g>
<!-- P4_default -->
<g id="node23" class="node">
<title>P4_default</title>
<polygon fill="lightgrey" stroke="black" points="757.25,-249.5 633.25,-249.5 633.25,-187.5 757.25,-187.5 757.25,-249.5"/>
<polygon fill="#ffe082" stroke="none" points="641.25,-191.5 641.25,-245.5 749.25,-245.5 749.25,-191.5 641.25,-191.5"/>
<polygon fill="none" stroke="black" points="641.25,-227.5 641.25,-245.5 749.25,-245.5 749.25,-227.5 641.25,-227.5"/>
<text xml:space="preserve" text-anchor="start" x="646.5" y="-234" font-family="Helvetica,sans-Serif" font-weight="bold" font-size="10.00">Default (threshold=1)</text>
<polygon fill="none" stroke="black" points="641.25,-209.5 641.25,-227.5 749.25,-227.5 749.25,-209.5 641.25,-209.5"/>
<text xml:space="preserve" text-anchor="start" x="654.38" y="-214.75" font-family="Helvetica,sans-Serif" font-size="10.00">flag_age &gt;= 1 step</text>
<polygon fill="none" stroke="black" points="641.25,-191.5 641.25,-209.5 749.25,-209.5 749.25,-191.5 641.25,-191.5"/>
<text xml:space="preserve" text-anchor="start" x="644.25" y="-196.75" font-family="Helvetica,sans-Serif" font-size="10.00">&quot;Persisted = likely real&quot;</text>
</g>
<!-- P4_tier_check&#45;&gt;P4_default -->
<g id="edge23" class="edge">
<title>P4_tier_check&#45;&gt;P4_default</title>
<path fill="none" stroke="black" d="M763.66,-324.13C751.59,-305.67 735.02,-280.33 721.21,-259.2"/>
<polygon fill="black" stroke="black" points="724.32,-257.56 715.91,-251.1 718.46,-261.39 724.32,-257.56"/>
<text xml:space="preserve" text-anchor="middle" x="760.17" y="-274.7" font-family="Helvetica,sans-Serif" font-size="9.00">otherwise</text>
</g>
<!-- P4_T3_RESTORE -->
<g id="node22" class="node">
<title>P4_T3_RESTORE</title>
<polygon fill="#ff6b6b" stroke="black" points="881.12,-129 801.38,-129 801.38,-85 881.12,-85 881.12,-129"/>
<text xml:space="preserve" text-anchor="middle" x="841.25" y="-115.5" font-family="Helvetica,sans-Serif" font-size="10.00">RESTORE</text>
<text xml:space="preserve" text-anchor="middle" x="841.25" y="-103.5" font-family="Helvetica,sans-Serif" font-size="10.00">immediate</text>
<text xml:space="preserve" text-anchor="middle" x="841.25" y="-91.5" font-family="Helvetica,sans-Serif" font-size="10.00">(skip Remove)</text>
</g>
<!-- P4_T3&#45;&gt;P4_T3_RESTORE -->
<g id="edge22" class="edge">
<title>P4_T3&#45;&gt;P4_T3_RESTORE</title>
<path fill="none" stroke="black" d="M841.25,-187.29C841.25,-172.8 841.25,-155.43 841.25,-140.64"/>
<polygon fill="black" stroke="black" points="844.75,-140.95 841.25,-130.95 837.75,-140.95 844.75,-140.95"/>
</g>
<!-- P4_default_action -->
<g id="node24" class="node">
<title>P4_default_action</title>
<polygon fill="#ffab40" stroke="black" points="734.75,-141 655.75,-141 655.75,-73 734.75,-73 734.75,-141"/>
<text xml:space="preserve" text-anchor="middle" x="695.25" y="-127.5" font-family="Helvetica,sans-Serif" font-size="10.00">flag_age=0:</text>
<text xml:space="preserve" text-anchor="middle" x="695.25" y="-115.5" font-family="Helvetica,sans-Serif" font-size="10.00">REMOVE first</text>
<text xml:space="preserve" text-anchor="middle" x="695.25" y="-103.5" font-family="Helvetica,sans-Serif" font-size="10.00">(3 steps, free)</text>
<text xml:space="preserve" text-anchor="middle" x="695.25" y="-91.5" font-family="Helvetica,sans-Serif" font-size="10.00">flag_age&gt;=1:</text>
<text xml:space="preserve" text-anchor="middle" x="695.25" y="-79.5" font-family="Helvetica,sans-Serif" font-size="10.00">RESTORE</text>
</g>
<!-- P4_default&#45;&gt;P4_default_action -->
<g id="edge24" class="edge">
<title>P4_default&#45;&gt;P4_default_action</title>
<path fill="none" stroke="black" d="M695.25,-187.29C695.25,-176.56 695.25,-164.24 695.25,-152.57"/>
<polygon fill="black" stroke="black" points="698.75,-152.7 695.25,-142.7 691.75,-152.7 698.75,-152.7"/>
</g>
<!-- P5_RESTORE -->
<g id="node26" class="node">
<title>P5_RESTORE</title>
<polygon fill="#ff6b6b" stroke="black" points="1171.38,-368.5 1081.12,-368.5 1081.12,-332.5 1171.38,-332.5 1171.38,-368.5"/>
<text xml:space="preserve" text-anchor="middle" x="1126.25" y="-353" font-family="Helvetica,sans-Serif" font-size="10.00">RESTORE</text>
<text xml:space="preserve" text-anchor="middle" x="1126.25" y="-341" font-family="Helvetica,sans-Serif" font-size="10.00">(5 steps, cost &#45;1)</text>
</g>
<!-- P5&#45;&gt;P5_RESTORE -->
<g id="edge26" class="edge">
<title>P5&#45;&gt;P5_RESTORE</title>
<path fill="none" stroke="black" d="M1012.4,-461.16C1036.48,-437.97 1074.9,-400.96 1100.35,-376.45"/>
<polygon fill="black" stroke="black" points="1102.58,-379.16 1107.36,-369.7 1097.73,-374.12 1102.58,-379.16"/>
<text xml:space="preserve" text-anchor="middle" x="1071.33" y="-419.7" font-family="Helvetica,sans-Serif" font-size="9.00">YES</text>
</g>
<!-- P6 -->
<g id="node27" class="node">
<title>P6</title>
<polygon fill="lightgrey" stroke="black" points="1062.75,-381.5 917.75,-381.5 917.75,-319.5 1062.75,-319.5 1062.75,-381.5"/>
<polygon fill="#bbdefb" stroke="none" points="925.75,-323.5 925.75,-377.5 1054.75,-377.5 1054.75,-323.5 925.75,-323.5"/>
<polygon fill="none" stroke="black" points="925.75,-359.5 925.75,-377.5 1054.75,-377.5 1054.75,-359.5 925.75,-359.5"/>
<text xml:space="preserve" text-anchor="start" x="938.12" y="-366" font-family="Helvetica,sans-Serif" font-weight="bold" font-size="10.00">P6: Redeploy decoys?</text>
<polygon fill="none" stroke="black" points="925.75,-341.5 925.75,-359.5 1054.75,-359.5 1054.75,-341.5 925.75,-341.5"/>
<text xml:space="preserve" text-anchor="start" x="941.5" y="-346.75" font-family="Helvetica,sans-Serif" font-size="10.00">Restore wiped decoys</text>
<polygon fill="none" stroke="black" points="925.75,-323.5 925.75,-341.5 1054.75,-341.5 1054.75,-323.5 925.75,-323.5"/>
<text xml:space="preserve" text-anchor="start" x="928.75" y="-328.75" font-family="Helvetica,sans-Serif" font-size="10.00">Host clean, needs re&#45;arming</text>
</g>
<!-- P5&#45;&gt;P6 -->
<g id="edge27" class="edge">
<title>P5&#45;&gt;P6</title>
<path fill="none" stroke="black" d="M990.25,-461.16C990.25,-442.76 990.25,-415.66 990.25,-393.01"/>
<polygon fill="black" stroke="black" points="993.75,-393.15 990.25,-383.15 986.75,-393.15 993.75,-393.15"/>
<text xml:space="preserve" text-anchor="middle" x="997" y="-419.7" font-family="Helvetica,sans-Serif" font-size="9.00">NO</text>
</g>
<!-- P6_DEPLOY -->
<g id="node28" class="node">
<title>P6_DEPLOY</title>
<polygon fill="#64b5f6" stroke="black" points="1155.25,-240.5 1073.25,-240.5 1073.25,-196.5 1155.25,-196.5 1155.25,-240.5"/>
<text xml:space="preserve" text-anchor="middle" x="1114.25" y="-227" font-family="Helvetica,sans-Serif" font-size="10.00">DeployDecoy</text>
<text xml:space="preserve" text-anchor="middle" x="1114.25" y="-215" font-family="Helvetica,sans-Serif" font-size="10.00">(2 steps, free)</text>
<text xml:space="preserve" text-anchor="middle" x="1114.25" y="-203" font-family="Helvetica,sans-Serif" font-size="10.00">OT targets first</text>
</g>
<!-- P6&#45;&gt;P6_DEPLOY -->
<g id="edge28" class="edge">
<title>P6&#45;&gt;P6_DEPLOY</title>
<path fill="none" stroke="black" d="M1019.32,-319.02C1039.46,-297.91 1066.11,-269.97 1086.05,-249.06"/>
<polygon fill="black" stroke="black" points="1088.46,-251.6 1092.83,-241.95 1083.4,-246.77 1088.46,-251.6"/>
<text xml:space="preserve" text-anchor="middle" x="1076" y="-274.7" font-family="Helvetica,sans-Serif" font-size="9.00">YES</text>
</g>
<!-- P7 -->
<g id="node29" class="node">
<title>P7</title>
<polygon fill="lightgrey" stroke="black" points="1055.62,-249.5 924.88,-249.5 924.88,-187.5 1055.62,-187.5 1055.62,-249.5"/>
<polygon fill="#bbdefb" stroke="none" points="932.88,-191.5 932.88,-245.5 1047.62,-245.5 1047.62,-191.5 932.88,-191.5"/>
<polygon fill="none" stroke="black" points="932.88,-227.5 932.88,-245.5 1047.62,-245.5 1047.62,-227.5 932.88,-227.5"/>
<text xml:space="preserve" text-anchor="start" x="947.88" y="-234" font-family="Helvetica,sans-Serif" font-weight="bold" font-size="10.00">P7: Initial deploy?</text>
<polygon fill="none" stroke="black" points="932.88,-209.5 932.88,-227.5 1047.62,-227.5 1047.62,-209.5 932.88,-209.5"/>
<text xml:space="preserve" text-anchor="start" x="935.88" y="-214.75" font-family="Helvetica,sans-Serif" font-size="10.00">No alerts, deploy decoys</text>
<polygon fill="none" stroke="black" points="932.88,-191.5 932.88,-209.5 1047.62,-209.5 1047.62,-191.5 932.88,-191.5"/>
<text xml:space="preserve" text-anchor="start" x="955" y="-196.75" font-family="Helvetica,sans-Serif" font-size="10.00">Up to 3 per host</text>
</g>
<!-- P6&#45;&gt;P7 -->
<g id="edge29" class="edge">
<title>P6&#45;&gt;P7</title>
<path fill="none" stroke="black" d="M990.25,-319.02C990.25,-301.74 990.25,-279.88 990.25,-261.05"/>
<polygon fill="black" stroke="black" points="993.75,-261.3 990.25,-251.3 986.75,-261.3 993.75,-261.3"/>
<text xml:space="preserve" text-anchor="middle" x="997" y="-274.7" font-family="Helvetica,sans-Serif" font-size="9.00">NO</text>
</g>
<!-- P7_DEPLOY -->
<g id="node30" class="node">
<title>P7_DEPLOY</title>
<polygon fill="#64b5f6" stroke="black" points="1027.12,-135 917.38,-135 917.38,-79 1027.12,-79 1027.12,-135"/>
<text xml:space="preserve" text-anchor="middle" x="972.25" y="-121.5" font-family="Helvetica,sans-Serif" font-size="10.00">DeployDecoy</text>
<text xml:space="preserve" text-anchor="middle" x="972.25" y="-109.5" font-family="Helvetica,sans-Serif" font-size="10.00">(2 steps, free)</text>
<text xml:space="preserve" text-anchor="middle" x="972.25" y="-97.5" font-family="Helvetica,sans-Serif" font-size="10.00">Priority order:</text>
<text xml:space="preserve" text-anchor="middle" x="972.25" y="-85.5" font-family="Helvetica,sans-Serif" font-size="10.00">OZB&gt;OZA&gt;RZ&gt;other</text>
</g>
<!-- P7&#45;&gt;P7_DEPLOY -->
<g id="edge30" class="edge">
<title>P7&#45;&gt;P7_DEPLOY</title>
<path fill="none" stroke="black" d="M985.28,-187.29C983.22,-174.75 980.81,-160.06 978.62,-146.74"/>
<polygon fill="black" stroke="black" points="982.09,-146.28 977.01,-136.98 975.18,-147.42 982.09,-146.28"/>
<text xml:space="preserve" text-anchor="middle" x="991.33" y="-160.95" font-family="Helvetica,sans-Serif" font-size="9.00">YES</text>
</g>
<!-- P8 -->
<g id="node31" class="node">
<title>P8</title>
<polygon fill="#e0e0e0" stroke="black" points="1137.5,-125 1045,-125 1045,-89 1137.5,-89 1137.5,-125"/>
<text xml:space="preserve" text-anchor="middle" x="1091.25" y="-103.5" font-family="Helvetica,sans-Serif" font-size="10.00">P8: Nothing to do</text>
</g>
<!-- P7&#45;&gt;P8 -->
<g id="edge31" class="edge">
<title>P7&#45;&gt;P8</title>
<path fill="none" stroke="black" d="M1018.12,-187.29C1033.59,-170.52 1052.63,-149.87 1067.4,-133.85"/>
<polygon fill="black" stroke="black" points="1069.89,-136.32 1074.1,-126.6 1064.74,-131.57 1069.89,-136.32"/>
<text xml:space="preserve" text-anchor="middle" x="1050.53" y="-160.95" font-family="Helvetica,sans-Serif" font-size="9.00">NO</text>
</g>
<!-- P8_SLEEP -->
<g id="node32" class="node">
<title>P8_SLEEP</title>
<polygon fill="#bdbdbd" stroke="black" points="1127,-36 1055.5,-36 1055.5,0 1127,0 1127,-36"/>
<text xml:space="preserve" text-anchor="middle" x="1091.25" y="-20.5" font-family="Helvetica,sans-Serif" font-size="10.00">Sleep</text>
<text xml:space="preserve" text-anchor="middle" x="1091.25" y="-8.5" font-family="Helvetica,sans-Serif" font-size="10.00">(1 step, free)</text>
</g>
<!-- P8&#45;&gt;P8_SLEEP -->
<g id="edge32" class="edge">
<title>P8&#45;&gt;P8_SLEEP</title>
<path fill="none" stroke="black" d="M1091.25,-88.81C1091.25,-77.09 1091.25,-61.29 1091.25,-47.68"/>
<polygon fill="black" stroke="black" points="1094.75,-47.96 1091.25,-37.96 1087.75,-47.96 1094.75,-47.96"/>
</g>
</g>
</svg>
