<?xml version="1.0" encoding="UTF-8" standalone="no"?>
<!DOCTYPE svg PUBLIC "-//W3C//DTD SVG 1.1//EN"
 "http://www.w3.org/Graphics/SVG/1.1/DTD/svg11.dtd">
<!-- Generated by graphviz version 14.1.4 (20260321.0153)
 -->
<!-- Title: DecoyMatrix Pages: 1 -->
<svg width="1172pt" height="689pt"
 viewBox="0.00 0.00 1172.00 689.00" xmlns="http://www.w3.org/2000/svg" xmlns:xlink="http://www.w3.org/1999/xlink">
<g id="graph0" class="graph" transform="scale(1 1) rotate(0) translate(4 684.75)">
<title>DecoyMatrix</title>
<polygon fill="white" stroke="none" points="-4,4 -4,-684.75 1167.75,-684.75 1167.75,4 -4,4"/>
<text xml:space="preserve" text-anchor="middle" x="581.88" y="-663.45" font-family="Helvetica,sans-Serif" font-size="14.00">Decoy&#45;Exploit Interaction Matrix</text>
<text xml:space="preserve" text-anchor="middle" x="581.88" y="-647.7" font-family="Helvetica,sans-Serif" font-size="14.00">Green=Caught, Red=Bypassed/No Decoy, Grey=N/A</text>
<!-- matrix -->
<g id="node1" class="node">
<title>matrix</title>
<polygon fill="white" stroke="none" points="8,-4 8,-637.25 903,-637.25 903,-4 8,-4"/>
<polygon fill="#424242" stroke="none" points="10,-575.25 10,-635.25 176.5,-635.25 176.5,-575.25 10,-575.25"/>
<polygon fill="none" stroke="black" points="10,-575.25 10,-635.25 176.5,-635.25 176.5,-575.25 10,-575.25"/>
<text xml:space="preserve" text-anchor="start" x="44.88" y="-600.83" font-family="Helvetica,sans-Serif" font-weight="bold" font-size="14.00" fill="white">Exploit \ Decoy</text>
<polygon fill="#bbdefb" stroke="none" points="176.5,-575.25 176.5,-635.25 323.5,-635.25 323.5,-575.25 176.5,-575.25"/>
<polygon fill="none" stroke="black" points="176.5,-575.25 176.5,-635.25 323.5,-635.25 323.5,-575.25 176.5,-575.25"/>
<text xml:space="preserve" text-anchor="start" x="205.38" y="-613.95" font-family="Helvetica,sans-Serif" font-weight="bold" font-size="14.00">DecoyApache</text>
<text xml:space="preserve" text-anchor="start" x="185.5" y="-599.95" font-family="Helvetica,sans-Serif" font-weight="bold" font-size="14.00">(port 80, webserver)</text>
<text xml:space="preserve" text-anchor="start" x="215.88" y="-585.95" font-family="Helvetica,sans-Serif" font-weight="bold" font-size="14.00">props: [rfi]</text>
<polygon fill="#bbdefb" stroke="none" points="323.5,-575.25 323.5,-635.25 478,-635.25 478,-575.25 323.5,-575.25"/>
<polygon fill="none" stroke="black" points="323.5,-575.25 323.5,-635.25 478,-635.25 478,-575.25 323.5,-575.25"/>
<text xml:space="preserve" text-anchor="start" x="356.5" y="-613.95" font-family="Helvetica,sans-Serif" font-weight="bold" font-size="14.00">DecoyTomcat</text>
<text xml:space="preserve" text-anchor="start" x="332.5" y="-599.95" font-family="Helvetica,sans-Serif" font-weight="bold" font-size="14.00">(port 443, webserver)</text>
<text xml:space="preserve" text-anchor="start" x="366.62" y="-585.95" font-family="Helvetica,sans-Serif" font-weight="bold" font-size="14.00">props: [rfi]</text>
<polygon fill="#bbdefb" stroke="none" points="478,-575.25 478,-635.25 620.5,-635.25 620.5,-575.25 478,-575.25"/>
<polygon fill="none" stroke="black" points="478,-575.25 478,-635.25 620.5,-635.25 620.5,-575.25 478,-575.25"/>
<text xml:space="preserve" text-anchor="start" x="506.5" y="-613.95" font-family="Helvetica,sans-Serif" font-weight="bold" font-size="14.00">DecoyHaraka</text>
<text xml:space="preserve" text-anchor="start" x="502" y="-599.95" font-family="Helvetica,sans-Serif" font-weight="bold" font-size="14.00">(port 25, smtp)</text>
<text xml:space="preserve" text-anchor="start" x="515.5" y="-585.95" font-family="Helvetica,sans-Serif" font-weight="bold" font-size="14.00">Linux only</text>
<polygon fill="#bbdefb" stroke="none" points="620.5,-575.25 620.5,-635.25 767.5,-635.25 767.5,-575.25 620.5,-575.25"/>
<polygon fill="none" stroke="black" points="620.5,-575.25 620.5,-635.25 767.5,-635.25 767.5,-575.25 620.5,-575.25"/>
<text xml:space="preserve" text-anchor="start" x="652.75" y="-613.95" font-family="Helvetica,sans-Serif" font-weight="bold" font-size="14.00">DecoyVsftpd</text>
<text xml:space="preserve" text-anchor="start" x="629.5" y="-599.95" font-family="Helvetica,sans-Serif" font-weight="bold" font-size="14.00">(port 80, webserver)</text>
<text xml:space="preserve" text-anchor="start" x="659.88" y="-585.95" font-family="Helvetica,sans-Serif" font-weight="bold" font-size="14.00">props: [rfi]</text>
<polygon fill="#e0e0e0" stroke="none" points="767.5,-575.25 767.5,-635.25 901,-635.25 901,-575.25 767.5,-575.25"/>
<polygon fill="none" stroke="black" points="767.5,-575.25 767.5,-635.25 901,-635.25 901,-575.25 767.5,-575.25"/>
<text xml:space="preserve" text-anchor="start" x="803.12" y="-606.95" font-family="Helvetica,sans-Serif" font-weight="bold" font-size="14.00">No Decoy</text>
<text xml:space="preserve" text-anchor="start" x="804.62" y="-592.95" font-family="Helvetica,sans-Serif" font-weight="bold" font-size="14.00">Available</text>
<polygon fill="#fff9c4" stroke="none" points="10,-473.25 10,-575.25 176.5,-575.25 176.5,-473.25 10,-473.25"/>
<polygon fill="none" stroke="black" points="10,-473.25 10,-575.25 176.5,-575.25 176.5,-473.25 10,-473.25"/>
<text xml:space="preserve" text-anchor="start" x="64.75" y="-539.95" font-family="Helvetica,sans-Serif" font-weight="bold" font-size="14.00">HTTPRFI</text>
<text xml:space="preserve" text-anchor="start" x="37.75" y="-525.95" font-family="Helvetica,sans-Serif" font-size="14.00">port 80, weight 3.0</text>
<text xml:space="preserve" text-anchor="start" x="40.75" y="-511.95" font-family="Helvetica,sans-Serif" font-size="14.00">needs rfi property</text>
<text xml:space="preserve" text-anchor="start" x="33.25" y="-497.95" font-family="Helvetica,sans-Serif" font-style="italic" font-size="14.00">TRAP&#45;ONLY exploit</text>
<polygon fill="#a5d6a7" stroke="none" points="176.5,-473.25 176.5,-575.25 323.5,-575.25 323.5,-473.25 176.5,-473.25"/>
<polygon fill="none" stroke="black" points="176.5,-473.25 176.5,-575.25 323.5,-575.25 323.5,-473.25 176.5,-473.25"/>
<text xml:space="preserve" text-anchor="start" x="220.75" y="-553.95" font-family="Helvetica,sans-Serif" font-weight="bold" font-size="14.00">CAUGHT</text>
<text xml:space="preserve" text-anchor="start" x="203.12" y="-539.95" font-family="Helvetica,sans-Serif" font-size="14.00">Port match (80)</text>
<text xml:space="preserve" text-anchor="start" x="200.5" y="-525.95" font-family="Helvetica,sans-Serif" font-size="14.00">Type: webserver</text>
<text xml:space="preserve" text-anchor="start" x="203.88" y="-511.95" font-family="Helvetica,sans-Serif" font-size="14.00">Has rfi property</text>
<text xml:space="preserve" text-anchor="start" x="196" y="-497.95" font-family="Helvetica,sans-Serif" font-size="14.00">Exploit only works</text>
<text xml:space="preserve" text-anchor="start" x="203.12" y="-483.95" font-family="Helvetica,sans-Serif" font-size="14.00">against decoys!</text>
<polygon fill="#e0e0e0" stroke="none" points="323.5,-473.25 323.5,-575.25 478,-575.25 478,-473.25 323.5,-473.25"/>
<polygon fill="none" stroke="black" points="323.5,-473.25 323.5,-575.25 478,-575.25 478,-473.25 323.5,-473.25"/>
<text xml:space="preserve" text-anchor="start" x="389.5" y="-527.25" font-family="Helvetica,sans-Serif" font-size="14.00">N/A</text>
<text xml:space="preserve" text-anchor="start" x="349.75" y="-511.5" font-family="Helvetica,sans-Serif" font-size="14.00">Wrong port (443)</text>
<polygon fill="#e0e0e0" stroke="none" points="478,-473.25 478,-575.25 620.5,-575.25 620.5,-473.25 478,-473.25"/>
<polygon fill="none" stroke="black" points="478,-473.25 478,-575.25 620.5,-575.25 620.5,-473.25 478,-473.25"/>
<text xml:space="preserve" text-anchor="start" x="538" y="-535.12" font-family="Helvetica,sans-Serif" font-size="14.00">N/A</text>
<text xml:space="preserve" text-anchor="start" x="502" y="-519.38" font-family="Helvetica,sans-Serif" font-size="14.00">Wrong port (25)</text>
<text xml:space="preserve" text-anchor="start" x="493.38" y="-503.62" font-family="Helvetica,sans-Serif" font-size="14.00">Wrong type (smtp)</text>
<polygon fill="#a5d6a7" stroke="none" points="620.5,-473.25 620.5,-575.25 767.5,-575.25 767.5,-473.25 620.5,-473.25"/>
<polygon fill="none" stroke="black" points="620.5,-473.25 620.5,-575.25 767.5,-575.25 767.5,-473.25 620.5,-473.25"/>
<text xml:space="preserve" text-anchor="start" x="664.75" y="-539.95" font-family="Helvetica,sans-Serif" font-weight="bold" font-size="14.00">CAUGHT</text>
<text xml:space="preserve" text-anchor="start" x="647.12" y="-525.95" font-family="Helvetica,sans-Serif" font-size="14.00">Port match (80)</text>
<text xml:space="preserve" text-anchor="start" x="638.88" y="-511.95" font-family="Helvetica,sans-Serif" font-size="14.00">Mutually exclusive</text>
<text xml:space="preserve" text-anchor="start" x="657.62" y="-497.95" font-family="Helvetica,sans-Serif" font-size="14.00">with Apache</text>
<polygon fill="#ffcdd2" stroke="none" points="767.5,-473.25 767.5,-575.25 901,-575.25 901,-473.25 767.5,-473.25"/>
<polygon fill="none" stroke="black" points="767.5,-473.25 767.5,-575.25 901,-575.25 901,-473.25 767.5,-473.25"/>
<text xml:space="preserve" text-anchor="start" x="797.5" y="-539.95" font-family="Helvetica,sans-Serif" font-weight="bold" font-size="14.00">BYPASSED</text>
<text xml:space="preserve" text-anchor="start" x="782.88" y="-525.95" font-family="Helvetica,sans-Serif" font-size="14.00">No port 80 decoy</text>
<text xml:space="preserve" text-anchor="start" x="779.12" y="-511.95" font-family="Helvetica,sans-Serif" font-size="14.00">Real apache lacks</text>
<text xml:space="preserve" text-anchor="start" x="802" y="-497.95" font-family="Helvetica,sans-Serif" font-size="14.00">rfi property</text>
<polygon fill="#fff9c4" stroke="none" points="10,-399.25 10,-473.25 176.5,-473.25 176.5,-399.25 10,-399.25"/>
<polygon fill="none" stroke="black" points="10,-399.25 10,-473.25 176.5,-473.25 176.5,-399.25 10,-399.25"/>
<text xml:space="preserve" text-anchor="start" x="60.25" y="-444.95" font-family="Helvetica,sans-Serif" font-weight="bold" font-size="14.00">HTTPSRFI</text>
<text xml:space="preserve" text-anchor="start" x="34" y="-430.95" font-family="Helvetica,sans-Serif" font-size="14.00">port 443, weight 4.0</text>
<text xml:space="preserve" text-anchor="start" x="40.75" y="-416.95" font-family="Helvetica,sans-Serif" font-size="14.00">needs rfi property</text>
<polygon fill="#e0e0e0" stroke="none" points="176.5,-399.25 176.5,-473.25 323.5,-473.25 323.5,-399.25 176.5,-399.25"/>
<polygon fill="none" stroke="black" points="176.5,-399.25 176.5,-473.25 323.5,-473.25 323.5,-399.25 176.5,-399.25"/>
<text xml:space="preserve" text-anchor="start" x="238.75" y="-439.25" font-family="Helvetica,sans-Serif" font-size="14.00">N/A</text>
<text xml:space="preserve" text-anchor="start" x="202.75" y="-423.5" font-family="Helvetica,sans-Serif" font-size="14.00">Wrong port (80)</text>
<polygon fill="#a5d6a7" stroke="none" points="323.5,-399.25 323.5,-473.25 478,-473.25 478,-399.25 323.5,-399.25"/>
<polygon fill="none" stroke="black" points="323.5,-399.25 323.5,-473.25 478,-473.25 478,-399.25 323.5,-399.25"/>
<text xml:space="preserve" text-anchor="start" x="371.5" y="-451.95" font-family="Helvetica,sans-Serif" font-weight="bold" font-size="14.00">CAUGHT</text>
<text xml:space="preserve" text-anchor="start" x="350.12" y="-437.95" font-family="Helvetica,sans-Serif" font-size="14.00">Port match (443)</text>
<text xml:space="preserve" text-anchor="start" x="351.25" y="-423.95" font-family="Helvetica,sans-Serif" font-size="14.00">Type: webserver</text>
<text xml:space="preserve" text-anchor="start" x="354.62" y="-409.95" font-family="Helvetica,sans-Serif" font-size="14.00">Has rfi property</text>
<polygon fill="#e0e0e0" stroke="none" points="478,-399.25 478,-473.25 620.5,-473.25 620.5,-399.25 478,-399.25"/>
<polygon fill="none" stroke="black" points="478,-399.25 478,-473.25 620.5,-473.25 620.5,-399.25 478,-399.25"/>
<text xml:space="preserve" text-anchor="start" x="538" y="-439.25" font-family="Helvetica,sans-Serif" font-size="14.00">N/A</text>
<text xml:space="preserve" text-anchor="start" x="502" y="-423.5" font-family="Helvetica,sans-Serif" font-size="14.00">Wrong port (25)</text>
<polygon fill="#e0e0e0" stroke="none" points="620.5,-399.25 620.5,-473.25 767.5,-473.25 767.5,-399.25 620.5,-399.25"/>
<polygon fill="none" stroke="black" points="620.5,-399.25 620.5,-473.25 767.5,-473.25 767.5,-399.25 620.5,-399.25"/>
<text xml:space="preserve" text-anchor="start" x="682.75" y="-439.25" font-family="Helvetica,sans-Serif" font-size="14.00">N/A</text>
<text xml:space="preserve" text-anchor="start" x="646.75" y="-423.5" font-family="Helvetica,sans-Serif" font-size="14.00">Wrong port (80)</text>
<polygon fill="#ffcdd2" stroke="none" points="767.5,-399.25 767.5,-473.25 901,-473.25 901,-399.25 767.5,-399.25"/>
<polygon fill="none" stroke="black" points="767.5,-399.25 767.5,-473.25 901,-473.25 901,-399.25 767.5,-399.25"/>
<text xml:space="preserve" text-anchor="start" x="797.5" y="-444.95" font-family="Helvetica,sans-Serif" font-weight="bold" font-size="14.00">NO DECOY</text>
<text xml:space="preserve" text-anchor="start" x="796" y="-430.95" font-family="Helvetica,sans-Serif" font-size="14.00">Only Tomcat</text>
<text xml:space="preserve" text-anchor="start" x="787.75" y="-416.95" font-family="Helvetica,sans-Serif" font-size="14.00">covers port 443</text>
<polygon fill="#fff9c4" stroke="none" points="10,-297.25 10,-399.25 176.5,-399.25 176.5,-297.25 10,-297.25"/>
<polygon fill="none" stroke="black" points="10,-297.25 10,-399.25 176.5,-399.25 176.5,-297.25 10,-297.25"/>
<text xml:space="preserve" text-anchor="start" x="56.5" y="-363.95" font-family="Helvetica,sans-Serif" font-weight="bold" font-size="14.00">HarakaRCE</text>
<text xml:space="preserve" text-anchor="start" x="37.75" y="-349.95" font-family="Helvetica,sans-Serif" font-size="14.00">port 25, weight 6.0</text>
<text xml:space="preserve" text-anchor="start" x="28.38" y="-335.95" font-family="Helvetica,sans-Serif" font-size="14.00">needs version &lt; 2.8.9</text>
<text xml:space="preserve" text-anchor="start" x="33.25" y="-321.95" font-family="Helvetica,sans-Serif" font-style="italic" font-size="14.00">TRAP&#45;ONLY exploit</text>
<polygon fill="#e0e0e0" stroke="none" points="176.5,-297.25 176.5,-399.25 323.5,-399.25 323.5,-297.25 176.5,-297.25"/>
<polygon fill="none" stroke="black" points="176.5,-297.25 176.5,-399.25 323.5,-399.25 323.5,-297.25 176.5,-297.25"/>
<text xml:space="preserve" text-anchor="start" x="238.75" y="-351.25" font-family="Helvetica,sans-Serif" font-size="14.00">N/A</text>
<text xml:space="preserve" text-anchor="start" x="202.75" y="-335.5" font-family="Helvetica,sans-Serif" font-size="14.00">Wrong port (80)</text>
<polygon fill="#e0e0e0" stroke="none" points="323.5,-297.25 323.5,-399.25 478,-399.25 478,-297.25 323.5,-297.25"/>
<polygon fill="none" stroke="black" points="323.5,-297.25 323.5,-399.25 478,-399.25 478,-297.25 323.5,-297.25"/>
<text xml:space="preserve" text-anchor="start" x="389.5" y="-351.25" font-family="Helvetica,sans-Serif" font-size="14.00">N/A</text>
<text xml:space="preserve" text-anchor="start" x="349.75" y="-335.5" font-family="Helvetica,sans-Serif" font-size="14.00">Wrong port (443)</text>
<polygon fill="#a5d6a7" stroke="none" points="478,-297.25 478,-399.25 620.5,-399.25 620.5,-297.25 478,-297.25"/>
<polygon fill="none" stroke="black" points="478,-297.25 478,-399.25 620.5,-399.25 620.5,-297.25 478,-297.25"/>
<text xml:space="preserve" text-anchor="start" x="520" y="-377.95" font-family="Helvetica,sans-Serif" font-weight="bold" font-size="14.00">CAUGHT</text>
<text xml:space="preserve" text-anchor="start" x="502.38" y="-363.95" font-family="Helvetica,sans-Serif" font-size="14.00">Port match (25)</text>
<text xml:space="preserve" text-anchor="start" x="515.88" y="-349.95" font-family="Helvetica,sans-Serif" font-size="14.00">Type: smtp</text>
<text xml:space="preserve" text-anchor="start" x="487" y="-335.95" font-family="Helvetica,sans-Serif" font-size="14.00">Version 2.7.0 &lt; 2.8.9</text>
<text xml:space="preserve" text-anchor="start" x="495.25" y="-321.95" font-family="Helvetica,sans-Serif" font-size="14.00">Exploit only works</text>
<text xml:space="preserve" text-anchor="start" x="505.75" y="-307.95" font-family="Helvetica,sans-Serif" font-size="14.00">against decoy!</text>
<polygon fill="#e0e0e0" stroke="none" points="620.5,-297.25 620.5,-399.25 767.5,-399.25 767.5,-297.25 620.5,-297.25"/>
<polygon fill="none" stroke="black" points="620.5,-297.25 620.5,-399.25 767.5,-399.25 767.5,-297.25 620.5,-297.25"/>
<text xml:space="preserve" text-anchor="start" x="682.75" y="-351.25" font-family="Helvetica,sans-Serif" font-size="14.00">N/A</text>
<text xml:space="preserve" text-anchor="start" x="646.75" y="-335.5" font-family="Helvetica,sans-Serif" font-size="14.00">Wrong port (80)</text>
<polygon fill="#ffcdd2" stroke="none" points="767.5,-297.25 767.5,-399.25 901,-399.25 901,-297.25 767.5,-297.25"/>
<polygon fill="none" stroke="black" points="767.5,-297.25 767.5,-399.25 901,-399.25 901,-297.25 767.5,-297.25"/>
<text xml:space="preserve" text-anchor="start" x="797.5" y="-363.95" font-family="Helvetica,sans-Serif" font-weight="bold" font-size="14.00">BYPASSED</text>
<text xml:space="preserve" text-anchor="start" x="782.88" y="-349.95" font-family="Helvetica,sans-Serif" font-size="14.00">No port 25 decoy</text>
<text xml:space="preserve" text-anchor="start" x="791.12" y="-335.95" font-family="Helvetica,sans-Serif" font-size="14.00">Real haraka is</text>
<text xml:space="preserve" text-anchor="start" x="780.62" y="-321.95" font-family="Helvetica,sans-Serif" font-size="14.00">patched (&gt;=2.8.9)</text>
<polygon fill="#fff9c4" stroke="none" points="10,-223.25 10,-297.25 176.5,-297.25 176.5,-223.25 10,-223.25"/>
<polygon fill="none" stroke="black" points="10,-223.25 10,-297.25 176.5,-297.25 176.5,-223.25 10,-223.25"/>
<text xml:space="preserve" text-anchor="start" x="43.38" y="-268.95" font-family="Helvetica,sans-Serif" font-weight="bold" font-size="14.00">SSHBruteForce</text>
<text xml:space="preserve" text-anchor="start" x="37.75" y="-254.95" font-family="Helvetica,sans-Serif" font-size="14.00">port 22, weight 0.1</text>
<text xml:space="preserve" text-anchor="start" x="29.88" y="-240.95" font-family="Helvetica,sans-Serif" font-size="14.00">needs bruteforceable</text>
<polygon fill="#e0e0e0" stroke="none" points="176.5,-223.25 176.5,-297.25 323.5,-297.25 323.5,-223.25 176.5,-223.25"/>
<polygon fill="none" stroke="black" points="176.5,-223.25 176.5,-297.25 323.5,-297.25 323.5,-223.25 176.5,-223.25"/>
<text xml:space="preserve" text-anchor="start" x="238.75" y="-263.25" font-family="Helvetica,sans-Serif" font-size="14.00">N/A</text>
<text xml:space="preserve" text-anchor="start" x="202.75" y="-247.5" font-family="Helvetica,sans-Serif" font-size="14.00">Wrong port (80)</text>
<polygon fill="#e0e0e0" stroke="none" points="323.5,-223.25 323.5,-297.25 478,-297.25 478,-223.25 323.5,-223.25"/>
<polygon fill="none" stroke="black" points="323.5,-223.25 323.5,-297.25 478,-297.25 478,-223.25 323.5,-223.25"/>
<text xml:space="preserve" text-anchor="start" x="389.5" y="-263.25" font-family="Helvetica,sans-Serif" font-size="14.00">N/A</text>
<text xml:space="preserve" text-anchor="start" x="349.75" y="-247.5" font-family="Helvetica,sans-Serif" font-size="14.00">Wrong port (443)</text>
<polygon fill="#e0e0e0" stroke="none" points="478,-223.25 478,-297.25 620.5,-297.25 620.5,-223.25 478,-223.25"/>
<polygon fill="none" stroke="black" points="478,-223.25 478,-297.25 620.5,-297.25 620.5,-223.25 478,-223.25"/>
<text xml:space="preserve" text-anchor="start" x="538" y="-263.25" font-family="Helvetica,sans-Serif" font-size="14.00">N/A</text>
<text xml:space="preserve" text-anchor="start" x="502" y="-247.5" font-family="Helvetica,sans-Serif" font-size="14.00">Wrong port (25)</text>
<polygon fill="#e0e0e0" stroke="none" points="620.5,-223.25 620.5,-297.25 767.5,-297.25 767.5,-223.25 620.5,-223.25"/>
<polygon fill="none" stroke="black" points="620.5,-223.25 620.5,-297.25 767.5,-297.25 767.5,-223.25 620.5,-223.25"/>
<text xml:space="preserve" text-anchor="start" x="682.75" y="-263.25" font-family="Helvetica,sans-Serif" font-size="14.00">N/A</text>
<text xml:space="preserve" text-anchor="start" x="646.75" y="-247.5" font-family="Helvetica,sans-Serif" font-size="14.00">Wrong port (80)</text>
<polygon fill="#ffcdd2" stroke="none" points="767.5,-223.25 767.5,-297.25 901,-297.25 901,-223.25 767.5,-223.25"/>
<polygon fill="none" stroke="black" points="767.5,-223.25 767.5,-297.25 901,-297.25 901,-223.25 767.5,-223.25"/>
<text xml:space="preserve" text-anchor="start" x="797.5" y="-275.95" font-family="Helvetica,sans-Serif" font-weight="bold" font-size="14.00">NO DECOY</text>
<text xml:space="preserve" text-anchor="start" x="776.5" y="-261.95" font-family="Helvetica,sans-Serif" font-size="14.00">SSHD decoy exists</text>
<text xml:space="preserve" text-anchor="start" x="785.88" y="-247.95" font-family="Helvetica,sans-Serif" font-size="14.00">but NOT in CC4</text>
<text xml:space="preserve" text-anchor="start" x="806.12" y="-233.95" font-family="Helvetica,sans-Serif" font-size="14.00">action list</text>
<polygon fill="#fff9c4" stroke="none" points="10,-163.25 10,-223.25 176.5,-223.25 176.5,-163.25 10,-163.25"/>
<polygon fill="none" stroke="black" points="10,-163.25 10,-223.25 176.5,-223.25 176.5,-163.25 10,-163.25"/>
<text xml:space="preserve" text-anchor="start" x="51.25" y="-201.95" font-family="Helvetica,sans-Serif" font-weight="bold" font-size="14.00">SQLInjection</text>
<text xml:space="preserve" text-anchor="start" x="30.25" y="-187.95" font-family="Helvetica,sans-Serif" font-size="14.00">port 3390, weight 5.0</text>
<text xml:space="preserve" text-anchor="start" x="22" y="-173.95" font-family="Helvetica,sans-Serif" font-size="14.00">needs port 80/443 open</text>
<polygon fill="#e0e0e0" stroke="none" points="176.5,-163.25 176.5,-223.25 323.5,-223.25 323.5,-163.25 176.5,-163.25"/>
<polygon fill="none" stroke="black" points="176.5,-163.25 176.5,-223.25 323.5,-223.25 323.5,-163.25 176.5,-163.25"/>
<text xml:space="preserve" text-anchor="start" x="238.75" y="-196.25" font-family="Helvetica,sans-Serif" font-size="14.00">N/A</text>
<text xml:space="preserve" text-anchor="start" x="202.75" y="-180.5" font-family="Helvetica,sans-Serif" font-size="14.00">Wrong port (80)</text>
<polygon fill="#e0e0e0" stroke="none" points="323.5,-163.25 323.5,-223.25 478,-223.25 478,-163.25 323.5,-163.25"/>
<polygon fill="none" stroke="black" points="323.5,-163.25 323.5,-223.25 478,-223.25 478,-163.25 323.5,-163.25"/>
<text xml:space="preserve" text-anchor="start" x="389.5" y="-196.25" font-family="Helvetica,sans-Serif" font-size="14.00">N/A</text>
<text xml:space="preserve" text-anchor="start" x="349.75" y="-180.5" font-family="Helvetica,sans-Serif" font-size="14.00">Wrong port (443)</text>
<polygon fill="#e0e0e0" stroke="none" points="478,-163.25 478,-223.25 620.5,-223.25 620.5,-163.25 478,-163.25"/>
<polygon fill="none" stroke="black" points="478,-163.25 478,-223.25 620.5,-223.25 620.5,-163.25 478,-163.25"/>
<text xml:space="preserve" text-anchor="start" x="538" y="-196.25" font-family="Helvetica,sans-Serif" font-size="14.00">N/A</text>
<text xml:space="preserve" text-anchor="start" x="502" y="-180.5" font-family="Helvetica,sans-Serif" font-size="14.00">Wrong port (25)</text>
<polygon fill="#e0e0e0" stroke="none" points="620.5,-163.25 620.5,-223.25 767.5,-223.25 767.5,-163.25 620.5,-163.25"/>
<polygon fill="none" stroke="black" points="620.5,-163.25 620.5,-223.25 767.5,-223.25 767.5,-163.25 620.5,-163.25"/>
<text xml:space="preserve" text-anchor="start" x="682.75" y="-196.25" font-family="Helvetica,sans-Serif" font-size="14.00">N/A</text>
<text xml:space="preserve" text-anchor="start" x="646.75" y="-180.5" font-family="Helvetica,sans-Serif" font-size="14.00">Wrong port (80)</text>
<polygon fill="#ffcdd2" stroke="none" points="767.5,-163.25 767.5,-223.25 901,-223.25 901,-163.25 767.5,-163.25"/>
<polygon fill="none" stroke="black" points="767.5,-163.25 767.5,-223.25 901,-223.25 901,-163.25 767.5,-163.25"/>
<text xml:space="preserve" text-anchor="start" x="797.5" y="-201.95" font-family="Helvetica,sans-Serif" font-weight="bold" font-size="14.00">NO DECOY</text>
<text xml:space="preserve" text-anchor="start" x="780.62" y="-187.95" font-family="Helvetica,sans-Serif" font-size="14.00">No MySQL decoy</text>
<text xml:space="preserve" text-anchor="start" x="778.75" y="-173.95" font-family="Helvetica,sans-Serif" font-size="14.00">exists in codebase</text>
<polygon fill="#fff9c4" stroke="none" points="10,-98 10,-163.25 176.5,-163.25 176.5,-98 10,-98"/>
<polygon fill="none" stroke="black" points="10,-98 10,-163.25 176.5,-163.25 176.5,-98 10,-98"/>
<text xml:space="preserve" text-anchor="start" x="41.5" y="-139.32" font-family="Helvetica,sans-Serif" font-weight="bold" font-size="14.00">FTPDirTraversal</text>
<text xml:space="preserve" text-anchor="start" x="37.75" y="-125.32" font-family="Helvetica,sans-Serif" font-size="14.00">port 21, weight 7.0</text>
<text xml:space="preserve" text-anchor="start" x="24.62" y="-111.32" font-family="Helvetica,sans-Serif" font-size="14.00">needs femitter process</text>
<polygon fill="#e0e0e0" stroke="none" points="176.5,-98 176.5,-163.25 323.5,-163.25 323.5,-98 176.5,-98"/>
<polygon fill="none" stroke="black" points="176.5,-98 176.5,-163.25 323.5,-163.25 323.5,-98 176.5,-98"/>
<text xml:space="preserve" text-anchor="start" x="238.75" y="-133.62" font-family="Helvetica,sans-Serif" font-size="14.00">N/A</text>
<text xml:space="preserve" text-anchor="start" x="202.75" y="-117.88" font-family="Helvetica,sans-Serif" font-size="14.00">Wrong port (80)</text>
<polygon fill="#e0e0e0" stroke="none" points="323.5,-98 323.5,-163.25 478,-163.25 478,-98 323.5,-98"/>
<polygon fill="none" stroke="black" points="323.5,-98 323.5,-163.25 478,-163.25 478,-98 323.5,-98"/>
<text xml:space="preserve" text-anchor="start" x="389.5" y="-133.62" font-family="Helvetica,sans-Serif" font-size="14.00">N/A</text>
<text xml:space="preserve" text-anchor="start" x="349.75" y="-117.88" font-family="Helvetica,sans-Serif" font-size="14.00">Wrong port (443)</text>
<polygon fill="#e0e0e0" stroke="none" points="478,-98 478,-163.25 620.5,-163.25 620.5,-98 478,-98"/>
<polygon fill="none" stroke="black" points="478,-98 478,-163.25 620.5,-163.25 620.5,-98 478,-98"/>
<text xml:space="preserve" text-anchor="start" x="538" y="-133.62" font-family="Helvetica,sans-Serif" font-size="14.00">N/A</text>
<text xml:space="preserve" text-anchor="start" x="502" y="-117.88" font-family="Helvetica,sans-Serif" font-size="14.00">Wrong port (25)</text>
<polygon fill="#e0e0e0" stroke="none" points="620.5,-98 620.5,-163.25 767.5,-163.25 767.5,-98 620.5,-98"/>
<polygon fill="none" stroke="black" points="620.5,-98 620.5,-163.25 767.5,-163.25 767.5,-98 620.5,-98"/>
<text xml:space="preserve" text-anchor="start" x="682.75" y="-141.5" font-family="Helvetica,sans-Serif" font-size="14.00">N/A</text>
<text xml:space="preserve" text-anchor="start" x="650.12" y="-125.75" font-family="Helvetica,sans-Serif" font-size="14.00">checks port 21</text>
<text xml:space="preserve" text-anchor="start" x="643.75" y="-110" font-family="Helvetica,sans-Serif" font-size="14.00">but binds port 80</text>
<polygon fill="#ffcdd2" stroke="none" points="767.5,-98 767.5,-163.25 901,-163.25 901,-98 767.5,-98"/>
<polygon fill="none" stroke="black" points="767.5,-98 767.5,-163.25 901,-163.25 901,-98 767.5,-98"/>
<text xml:space="preserve" text-anchor="start" x="797.5" y="-139.32" font-family="Helvetica,sans-Serif" font-weight="bold" font-size="14.00">NO DECOY</text>
<text xml:space="preserve" text-anchor="start" x="782.5" y="-125.32" font-family="Helvetica,sans-Serif" font-size="14.00">Femitter decoy is</text>
<text xml:space="preserve" text-anchor="start" x="791.88" y="-111.32" font-family="Helvetica,sans-Serif" font-size="14.00">Windows&#45;only</text>
<polygon fill="#e0e0e0" stroke="none" points="10,-52 10,-98 176.5,-98 176.5,-52 10,-52"/>
<polygon fill="none" stroke="black" points="10,-52 10,-98 176.5,-98 176.5,-52 10,-52"/>
<text xml:space="preserve" text-anchor="start" x="55.75" y="-76.7" font-family="Helvetica,sans-Serif" font-weight="bold" font-size="14.00">EternalBlue</text>
<text xml:space="preserve" text-anchor="start" x="22.75" y="-62.7" font-family="Helvetica,sans-Serif" font-size="14.00">port 139, Windows only</text>
<polygon fill="#e0e0e0" stroke="none" points="176.5,-52 176.5,-98 901,-98 901,-52 176.5,-52"/>
<polygon fill="none" stroke="black" points="176.5,-52 176.5,-98 901,-98 901,-52 176.5,-52"/>
<text xml:space="preserve" text-anchor="start" x="418.75" y="-70.12" font-family="Helvetica,sans-Serif" font-size="14.00">NOT USED IN CC4 (all hosts are Linux)</text>
<polygon fill="#e0e0e0" stroke="none" points="10,-6 10,-52 176.5,-52 176.5,-6 10,-6"/>
<polygon fill="none" stroke="black" points="10,-6 10,-52 176.5,-52 176.5,-6 10,-6"/>
<text xml:space="preserve" text-anchor="start" x="62.12" y="-30.7" font-family="Helvetica,sans-Serif" font-weight="bold" font-size="14.00">BlueKeep</text>
<text xml:space="preserve" text-anchor="start" x="19" y="-16.7" font-family="Helvetica,sans-Serif" font-size="14.00">port 3389, Windows only</text>
<polygon fill="#e0e0e0" stroke="none" points="176.5,-6 176.5,-52 901,-52 901,-6 176.5,-6"/>
<polygon fill="none" stroke="black" points="176.5,-6 176.5,-52 901,-52 901,-6 176.5,-6"/>
<text xml:space="preserve" text-anchor="start" x="418.75" y="-24.12" font-family="Helvetica,sans-Serif" font-size="14.00">NOT USED IN CC4 (all hosts are Linux)</text>
<polygon fill="none" stroke="black" stroke-width="2" points="9,-5 9,-636.25 902,-636.25 902,-5 9,-5"/>
</g>
<!-- note -->
<g id="node2" class="node">
<title>note</title>
<polygon fill="#fff9c4" stroke="black" points="1157.75,-389.88 929.25,-389.88 929.25,-251.38 1163.75,-251.38 1163.75,-383.88 1157.75,-389.88"/>
<polyline fill="none" stroke="black" points="1157.75,-389.88 1157.75,-383.88"/>
<polyline fill="none" stroke="black" points="1163.75,-383.88 1157.75,-383.88"/>
<text xml:space="preserve" text-anchor="start" x="988.75" y="-376.32" font-family="Helvetica,sans-Serif" font-weight="bold" font-size="9.00">Exploit Selection Algorithm</text>
<text xml:space="preserve" text-anchor="start" x="939.25" y="-361.12" font-family="Helvetica,sans-Serif" font-size="9.00">1. Compute weight for each applicable exploit</text>
<text xml:space="preserve" text-anchor="start" x="939.25" y="-346.62" font-family="Helvetica,sans-Serif" font-size="9.00">2. Remove highest&#45;weight exploit (NEVER selected!)</text>
<text xml:space="preserve" text-anchor="start" x="939.25" y="-332.12" font-family="Helvetica,sans-Serif" font-size="9.00">3. Pick randomly from remaining</text>
<text xml:space="preserve" text-anchor="start" x="939.25" y="-317.62" font-family="Helvetica,sans-Serif" font-size="9.00">4. With 3 decoys: 67&#45;75% chance of hitting decoy</text>
<text xml:space="preserve" text-anchor="start" x="939.25" y="-303.12" font-family="Helvetica,sans-Serif" font-size="9.00"> </text>
<text xml:space="preserve" text-anchor="start" x="939.25" y="-289.32" font-family="Helvetica,sans-Serif" font-weight="bold" font-size="9.00">Trap&#45;only exploits:</text>
<text xml:space="preserve" text-anchor="start" x="1018.75" y="-289.32" font-family="Helvetica,sans-Serif" font-size="9.00"> HTTPRFI and HarakaRCE</text>
<text xml:space="preserve" text-anchor="start" x="939.25" y="-274.12" font-family="Helvetica,sans-Serif" font-size="9.00">only succeed against decoy processes.</text>
<text xml:space="preserve" text-anchor="start" x="939.25" y="-259.62" font-family="Helvetica,sans-Serif" font-size="9.00">Real services lack the rfi property / are patched.</text>
</g>
</g>
</svg>
