<?xml version="1.0" encoding="UTF-8" standalone="no"?>
<!DOCTYPE svg PUBLIC "-//W3C//DTD SVG 1.1//EN"
 "http://www.w3.org/Graphics/SVG/1.1/DTD/svg11.dtd">
<!-- Generated by graphviz version 14.1.4 (20260321.0153)
 -->
<!-- Title: MessagingProtocol Pages: 1 -->
<svg width="1368pt" height="948pt"
 viewBox="0.00 0.00 1368.00 948.00" xmlns="http://www.w3.org/2000/svg" xmlns:xlink="http://www.w3.org/1999/xlink">
<g id="graph0" class="graph" transform="scale(1 1) rotate(0) translate(4 943.75)">
<title>MessagingProtocol</title>
<polygon fill="white" stroke="none" points="-4,4 -4,-943.75 1363.75,-943.75 1363.75,4 -4,4"/>
<text xml:space="preserve" text-anchor="middle" x="679.88" y="-922.45" font-family="Helvetica,sans-Serif" font-size="14.00">Inter&#45;Agent Messaging Protocol</text>
<text xml:space="preserve" text-anchor="middle" x="679.88" y="-906.7" font-family="Helvetica,sans-Serif" font-size="14.00">8&#45;bit Messages Between 5 Blue Agents</text>
<g id="clust1" class="cluster">
<title>cluster_fields</title>
<path fill="#fafafa" stroke="black" d="M119.12,-8C119.12,-8 327.12,-8 327.12,-8 333.12,-8 339.12,-14 339.12,-20 339.12,-20 339.12,-647.75 339.12,-647.75 339.12,-653.75 333.12,-659.75 327.12,-659.75 327.12,-659.75 119.12,-659.75 119.12,-659.75 113.12,-659.75 107.12,-653.75 107.12,-647.75 107.12,-647.75 107.12,-20 107.12,-20 107.12,-14 113.12,-8 119.12,-8"/>
<text xml:space="preserve" text-anchor="middle" x="223.12" y="-642.45" font-family="Helvetica,sans-Serif" font-size="14.00">Field Definitions</text>
</g>
<g id="clust2" class="cluster">
<title>cluster_agents</title>
<path fill="#f5f5f5" stroke="black" d="M468.12,-105C468.12,-105 684.12,-105 684.12,-105 690.12,-105 696.12,-111 696.12,-117 696.12,-117 696.12,-880.25 696.12,-880.25 696.12,-886.25 690.12,-892.25 684.12,-892.25 684.12,-892.25 468.12,-892.25 468.12,-892.25 462.12,-892.25 456.12,-886.25 456.12,-880.25 456.12,-880.25 456.12,-117 456.12,-117 456.12,-111 462.12,-105 468.12,-105"/>
<text xml:space="preserve" text-anchor="middle" x="576.12" y="-874.95" font-family="Helvetica,sans-Serif" font-size="14.00">Agent Communication Mesh</text>
<text xml:space="preserve" text-anchor="middle" x="576.12" y="-859.2" font-family="Helvetica,sans-Serif" font-size="14.00">(Each agent sends to all 4 others)</text>
</g>
<g id="clust3" class="cluster">
<title>cluster_upstream</title>
<path fill="#fff8e1" stroke="black" d="M716.12,-764.75C716.12,-764.75 1034.12,-764.75 1034.12,-764.75 1040.12,-764.75 1046.12,-770.75 1046.12,-776.75 1046.12,-776.75 1046.12,-872.5 1046.12,-872.5 1046.12,-878.5 1040.12,-884.5 1034.12,-884.5 1034.12,-884.5 716.12,-884.5 716.12,-884.5 710.12,-884.5 704.12,-878.5 704.12,-872.5 704.12,-872.5 704.12,-776.75 704.12,-776.75 704.12,-770.75 710.12,-764.75 716.12,-764.75"/>
<text xml:space="preserve" text-anchor="middle" x="875.12" y="-867.2" font-family="Helvetica,sans-Serif" font-size="14.00">Upstream Relationships (per Phase)</text>
</g>
<!-- msg_format -->
<g id="node1" class="node">
<title>msg_format</title>
<polygon fill="lightgrey" stroke="none" points="446.25,-866.75 0,-866.75 0,-758.75 446.25,-758.75 446.25,-866.75"/>
<polygon fill="white" stroke="none" points="8,-762.75 8,-862.75 438.25,-862.75 438.25,-762.75 8,-762.75"/>
<polygon fill="#424242" stroke="none" points="10,-834.75 10,-860.75 436.25,-860.75 436.25,-834.75 10,-834.75"/>
<polygon fill="none" stroke="black" points="10,-834.75 10,-860.75 436.25,-860.75 436.25,-834.75 10,-834.75"/>
<text xml:space="preserve" text-anchor="start" x="161.62" y="-845.25" font-family="Helvetica,sans-Serif" font-weight="bold" font-size="10.00" fill="white">8&#45;BIT MESSAGE FORMAT</text>
<polygon fill="#ef9a9a" stroke="none" points="10,-808.75 10,-834.75 56,-834.75 56,-808.75 10,-808.75"/>
<polygon fill="none" stroke="black" points="10,-808.75 10,-834.75 56,-834.75 56,-808.75 10,-808.75"/>
<text xml:space="preserve" text-anchor="start" x="22.12" y="-819.25" font-family="Helvetica,sans-Serif" font-weight="bold" font-size="10.00">Bit 0</text>
<polygon fill="#ef9a9a" stroke="none" points="56,-808.75 56,-834.75 102,-834.75 102,-808.75 56,-808.75"/>
<polygon fill="none" stroke="black" points="56,-808.75 56,-834.75 102,-834.75 102,-808.75 56,-808.75"/>
<text xml:space="preserve" text-anchor="start" x="68.12" y="-819.25" font-family="Helvetica,sans-Serif" font-weight="bold" font-size="10.00">Bit 1</text>
<polygon fill="#90caf9" stroke="none" points="102,-808.75 102,-834.75 142.38,-834.75 142.38,-808.75 102,-808.75"/>
<polygon fill="none" stroke="black" points="102,-808.75 102,-834.75 142.38,-834.75 142.38,-808.75 102,-808.75"/>
<text xml:space="preserve" text-anchor="start" x="111.31" y="-819.25" font-family="Helvetica,sans-Serif" font-weight="bold" font-size="10.00">Bit 2</text>
<polygon fill="#90caf9" stroke="none" points="142.38,-808.75 142.38,-834.75 182.75,-834.75 182.75,-808.75 142.38,-808.75"/>
<polygon fill="none" stroke="black" points="142.38,-808.75 142.38,-834.75 182.75,-834.75 182.75,-808.75 142.38,-808.75"/>
<text xml:space="preserve" text-anchor="start" x="151.69" y="-819.25" font-family="Helvetica,sans-Serif" font-weight="bold" font-size="10.00">Bit 3</text>
<polygon fill="#a5d6a7" stroke="none" points="182.75,-808.75 182.75,-834.75 237.75,-834.75 237.75,-808.75 182.75,-808.75"/>
<polygon fill="none" stroke="black" points="182.75,-808.75 182.75,-834.75 237.75,-834.75 237.75,-808.75 182.75,-808.75"/>
<text xml:space="preserve" text-anchor="start" x="199.38" y="-819.25" font-family="Helvetica,sans-Serif" font-weight="bold" font-size="10.00">Bit 4</text>
<polygon fill="#a5d6a7" stroke="none" points="237.75,-808.75 237.75,-834.75 292.75,-834.75 292.75,-808.75 237.75,-808.75"/>
<polygon fill="none" stroke="black" points="237.75,-808.75 237.75,-834.75 292.75,-834.75 292.75,-808.75 237.75,-808.75"/>
<text xml:space="preserve" text-anchor="start" x="254.38" y="-819.25" font-family="Helvetica,sans-Serif" font-weight="bold" font-size="10.00">Bit 5</text>
<polygon fill="#ce93d8" stroke="none" points="292.75,-808.75 292.75,-834.75 362.25,-834.75 362.25,-808.75 292.75,-808.75"/>
<polygon fill="none" stroke="black" points="292.75,-808.75 292.75,-834.75 362.25,-834.75 362.25,-808.75 292.75,-808.75"/>
<text xml:space="preserve" text-anchor="start" x="316.62" y="-819.25" font-family="Helvetica,sans-Serif" font-weight="bold" font-size="10.00">Bit 6</text>
<polygon fill="#ffe082" stroke="none" points="362.25,-808.75 362.25,-834.75 436.25,-834.75 436.25,-808.75 362.25,-808.75"/>
<polygon fill="none" stroke="black" points="362.25,-808.75 362.25,-834.75 436.25,-834.75 436.25,-808.75 362.25,-808.75"/>
<text xml:space="preserve" text-anchor="start" x="388.38" y="-819.25" font-family="Helvetica,sans-Serif" font-weight="bold" font-size="10.00">Bit 7</text>
<polygon fill="#ffcdd2" stroke="none" points="10,-764.75 10,-808.75 102,-808.75 102,-764.75 10,-764.75"/>
<polygon fill="none" stroke="black" points="10,-764.75 10,-808.75 102,-808.75 102,-764.75 10,-764.75"/>
<text xml:space="preserve" text-anchor="start" x="17" y="-788.25" font-family="Helvetica,sans-Serif" font-weight="bold" font-size="10.00">THREAT_LEVEL</text>
<text xml:space="preserve" text-anchor="start" x="31.25" y="-778.25" font-family="Helvetica,sans-Serif" font-size="10.00">(2 bits: 0&#45;3)</text>
<polygon fill="#bbdefb" stroke="none" points="102,-764.75 102,-808.75 182.75,-808.75 182.75,-764.75 102,-764.75"/>
<polygon fill="none" stroke="black" points="102,-764.75 102,-808.75 182.75,-808.75 182.75,-764.75 102,-764.75"/>
<text xml:space="preserve" text-anchor="start" x="109" y="-788.25" font-family="Helvetica,sans-Serif" font-weight="bold" font-size="10.00">OPEN_PATHS</text>
<text xml:space="preserve" text-anchor="start" x="117.62" y="-778.25" font-family="Helvetica,sans-Serif" font-size="10.00">(2 bits: 0&#45;3)</text>
<polygon fill="#c8e6c9" stroke="none" points="182.75,-764.75 182.75,-808.75 292.75,-808.75 292.75,-764.75 182.75,-764.75"/>
<polygon fill="none" stroke="black" points="182.75,-764.75 182.75,-808.75 292.75,-808.75 292.75,-764.75 182.75,-764.75"/>
<text xml:space="preserve" text-anchor="start" x="189.75" y="-788.25" font-family="Helvetica,sans-Serif" font-weight="bold" font-size="10.00">RED_HOST_COUNT</text>
<text xml:space="preserve" text-anchor="start" x="213" y="-778.25" font-family="Helvetica,sans-Serif" font-size="10.00">(2 bits: 0&#45;3)</text>
<polygon fill="#e1bee7" stroke="none" points="292.75,-764.75 292.75,-808.75 362.25,-808.75 362.25,-764.75 292.75,-764.75"/>
<polygon fill="none" stroke="black" points="292.75,-764.75 292.75,-808.75 362.25,-808.75 362.25,-764.75 292.75,-764.75"/>
<text xml:space="preserve" text-anchor="start" x="306.12" y="-793.25" font-family="Helvetica,sans-Serif" font-weight="bold" font-size="10.00">DECOYS</text>
<text xml:space="preserve" text-anchor="start" x="299.75" y="-783.25" font-family="Helvetica,sans-Serif" font-weight="bold" font-size="10.00">BYPASSED</text>
<text xml:space="preserve" text-anchor="start" x="315.12" y="-773.25" font-family="Helvetica,sans-Serif" font-size="10.00">(1 bit)</text>
<polygon fill="#fff9c4" stroke="none" points="362.25,-764.75 362.25,-808.75 436.25,-808.75 436.25,-764.75 362.25,-764.75"/>
<polygon fill="none" stroke="black" points="362.25,-764.75 362.25,-808.75 436.25,-808.75 436.25,-764.75 362.25,-764.75"/>
<text xml:space="preserve" text-anchor="start" x="369.25" y="-788.25" font-family="Helvetica,sans-Serif" font-weight="bold" font-size="10.00">RESTORING</text>
<text xml:space="preserve" text-anchor="start" x="386.88" y="-778.25" font-family="Helvetica,sans-Serif" font-size="10.00">(1 bit)</text>
<polygon fill="none" stroke="black" stroke-width="2" points="9,-763.75 9,-861.75 437.25,-861.75 437.25,-763.75 9,-763.75"/>
</g>
<!-- threat -->
<g id="node2" class="node">
<title>threat</title>
<polygon fill="#ffcdd2" stroke="black" points="316.62,-628 129.62,-628 129.62,-530 316.62,-530 316.62,-628"/>
<polygon fill="#ffcdd2" stroke="none" points="137.62,-534 137.62,-624 308.62,-624 308.62,-534 137.62,-534"/>
<polygon fill="none" stroke="black" points="137.62,-606 137.62,-624 308.62,-624 308.62,-606 137.62,-606"/>
<text xml:space="preserve" text-anchor="start" x="162.75" y="-612.5" font-family="Helvetica,sans-Serif" font-weight="bold" font-size="10.00">THREAT_LEVEL (bits 0&#45;1)</text>
<polygon fill="none" stroke="black" points="137.62,-588 137.62,-606 148.88,-606 148.88,-588 137.62,-588"/>
<text xml:space="preserve" text-anchor="start" x="140.62" y="-593.25" font-family="Helvetica,sans-Serif" font-size="10.00">0</text>
<polygon fill="none" stroke="black" points="148.88,-588 148.88,-606 308.62,-606 308.62,-588 148.88,-588"/>
<text xml:space="preserve" text-anchor="start" x="179.25" y="-593.25" font-family="Helvetica,sans-Serif" font-size="10.00">Clean &#45;&#45; no red activity</text>
<polygon fill="none" stroke="black" points="137.62,-570 137.62,-588 148.88,-588 148.88,-570 137.62,-570"/>
<text xml:space="preserve" text-anchor="start" x="140.62" y="-575.25" font-family="Helvetica,sans-Serif" font-size="10.00">1</text>
<polygon fill="none" stroke="black" points="148.88,-570 148.88,-588 308.62,-588 308.62,-570 148.88,-570"/>
<text xml:space="preserve" text-anchor="start" x="151.88" y="-575.25" font-family="Helvetica,sans-Serif" font-size="10.00">Decoy hit &#45;&#45; red probing but trapped</text>
<polygon fill="none" stroke="black" points="137.62,-552 137.62,-570 148.88,-570 148.88,-552 137.62,-552"/>
<text xml:space="preserve" text-anchor="start" x="140.62" y="-557.25" font-family="Helvetica,sans-Serif" font-size="10.00">2</text>
<polygon fill="none" stroke="black" points="148.88,-552 148.88,-570 308.62,-570 308.62,-552 148.88,-552"/>
<text xml:space="preserve" text-anchor="start" x="159" y="-557.25" font-family="Helvetica,sans-Serif" font-size="10.00">User session &#45;&#45; red has foothold</text>
<polygon fill="none" stroke="black" points="137.62,-534 137.62,-552 148.88,-552 148.88,-534 137.62,-534"/>
<text xml:space="preserve" text-anchor="start" x="140.62" y="-539.25" font-family="Helvetica,sans-Serif" font-size="10.00">3</text>
<polygon fill="none" stroke="black" points="148.88,-534 148.88,-552 308.62,-552 308.62,-534 148.88,-534"/>
<text xml:space="preserve" text-anchor="start" x="153.75" y="-539.25" font-family="Helvetica,sans-Serif" font-size="10.00">Root session &#45;&#45; red has full control</text>
</g>
<!-- msg_format&#45;&gt;threat -->
<!-- open_paths -->
<g id="node3" class="node">
<title>open_paths</title>
<polygon fill="#bbdefb" stroke="black" points="302.38,-492 143.88,-492 143.88,-394 302.38,-394 302.38,-492"/>
<polygon fill="#bbdefb" stroke="none" points="151.88,-398 151.88,-488 294.38,-488 294.38,-398 151.88,-398"/>
<polygon fill="none" stroke="black" points="151.88,-470 151.88,-488 294.38,-488 294.38,-470 151.88,-470"/>
<text xml:space="preserve" text-anchor="start" x="168.38" y="-476.5" font-family="Helvetica,sans-Serif" font-weight="bold" font-size="10.00">OPEN_PATHS (bits 2&#45;3)</text>
<polygon fill="none" stroke="black" points="151.88,-452 151.88,-470 169.12,-470 169.12,-452 151.88,-452"/>
<text xml:space="preserve" text-anchor="start" x="157.88" y="-457.25" font-family="Helvetica,sans-Serif" font-size="10.00">0</text>
<polygon fill="none" stroke="black" points="169.12,-452 169.12,-470 294.38,-470 294.38,-452 169.12,-452"/>
<text xml:space="preserve" text-anchor="start" x="192.38" y="-457.25" font-family="Helvetica,sans-Serif" font-size="10.00">Fully locked down</text>
<polygon fill="none" stroke="black" points="151.88,-434 151.88,-452 169.12,-452 169.12,-434 151.88,-434"/>
<text xml:space="preserve" text-anchor="start" x="157.88" y="-439.25" font-family="Helvetica,sans-Serif" font-size="10.00">1</text>
<polygon fill="none" stroke="black" points="169.12,-434 169.12,-452 294.38,-452 294.38,-434 169.12,-434"/>
<text xml:space="preserve" text-anchor="start" x="172.12" y="-439.25" font-family="Helvetica,sans-Serif" font-size="10.00">1 unblocked path remaining</text>
<polygon fill="none" stroke="black" points="151.88,-416 151.88,-434 169.12,-434 169.12,-416 151.88,-416"/>
<text xml:space="preserve" text-anchor="start" x="157.88" y="-421.25" font-family="Helvetica,sans-Serif" font-size="10.00">2</text>
<polygon fill="none" stroke="black" points="169.12,-416 169.12,-434 294.38,-434 294.38,-416 169.12,-416"/>
<text xml:space="preserve" text-anchor="start" x="192" y="-421.25" font-family="Helvetica,sans-Serif" font-size="10.00">2 unblocked paths</text>
<polygon fill="none" stroke="black" points="151.88,-398 151.88,-416 169.12,-416 169.12,-398 151.88,-398"/>
<text xml:space="preserve" text-anchor="start" x="154.88" y="-403.25" font-family="Helvetica,sans-Serif" font-size="10.00">3+</text>
<polygon fill="none" stroke="black" points="169.12,-398 169.12,-416 294.38,-416 294.38,-398 169.12,-398"/>
<text xml:space="preserve" text-anchor="start" x="184.88" y="-403.25" font-family="Helvetica,sans-Serif" font-size="10.00">Multiple firewall holes</text>
</g>
<!-- threat&#45;&gt;open_paths -->
<!-- red_count -->
<g id="node4" class="node">
<title>red_count</title>
<polygon fill="#c8e6c9" stroke="black" points="313.25,-357 133,-357 133,-259 313.25,-259 313.25,-357"/>
<polygon fill="#c8e6c9" stroke="none" points="141,-263 141,-353 305.25,-353 305.25,-263 141,-263"/>
<polygon fill="none" stroke="black" points="141,-335 141,-353 305.25,-353 305.25,-335 141,-335"/>
<text xml:space="preserve" text-anchor="start" x="153.75" y="-341.5" font-family="Helvetica,sans-Serif" font-weight="bold" font-size="10.00">RED_HOST_COUNT (bits 4&#45;5)</text>
<polygon fill="none" stroke="black" points="141,-317 141,-335 158.25,-335 158.25,-317 141,-317"/>
<text xml:space="preserve" text-anchor="start" x="147" y="-322.25" font-family="Helvetica,sans-Serif" font-size="10.00">0</text>
<polygon fill="none" stroke="black" points="158.25,-317 158.25,-335 305.25,-335 305.25,-317 158.25,-317"/>
<text xml:space="preserve" text-anchor="start" x="180.75" y="-322.25" font-family="Helvetica,sans-Serif" font-size="10.00">No confirmed red hosts</text>
<polygon fill="none" stroke="black" points="141,-299 141,-317 158.25,-317 158.25,-299 141,-299"/>
<text xml:space="preserve" text-anchor="start" x="147" y="-304.25" font-family="Helvetica,sans-Serif" font-size="10.00">1</text>
<polygon fill="none" stroke="black" points="158.25,-299 158.25,-317 305.25,-317 305.25,-299 158.25,-299"/>
<text xml:space="preserve" text-anchor="start" x="187.5" y="-304.25" font-family="Helvetica,sans-Serif" font-size="10.00">1 host compromised</text>
<polygon fill="none" stroke="black" points="141,-281 141,-299 158.25,-299 158.25,-281 141,-281"/>
<text xml:space="preserve" text-anchor="start" x="147" y="-286.25" font-family="Helvetica,sans-Serif" font-size="10.00">2</text>
<polygon fill="none" stroke="black" points="158.25,-281 158.25,-299 305.25,-299 305.25,-281 158.25,-281"/>
<text xml:space="preserve" text-anchor="start" x="184.88" y="-286.25" font-family="Helvetica,sans-Serif" font-size="10.00">2 hosts compromised</text>
<polygon fill="none" stroke="black" points="141,-263 141,-281 158.25,-281 158.25,-263 141,-263"/>
<text xml:space="preserve" text-anchor="start" x="144" y="-268.25" font-family="Helvetica,sans-Serif" font-size="10.00">3+</text>
<polygon fill="none" stroke="black" points="158.25,-263 158.25,-281 305.25,-281 305.25,-263 158.25,-263"/>
<text xml:space="preserve" text-anchor="start" x="161.25" y="-268.25" font-family="Helvetica,sans-Serif" font-size="10.00">Zone being overrun! (triggers T3)</text>
</g>
<!-- open_paths&#45;&gt;red_count -->
<!-- bypassed -->
<g id="node5" class="node">
<title>bypassed</title>
<polygon fill="#e1bee7" stroke="black" points="330.62,-181 115.62,-181 115.62,-109 330.62,-109 330.62,-181"/>
<text xml:space="preserve" text-anchor="start" x="156.75" y="-166.5" font-family="Helvetica,sans-Serif" font-weight="bold" font-size="10.00">DECOYS_BYPASSED (bit 6)</text>
<text xml:space="preserve" text-anchor="start" x="144" y="-149.25" font-family="Helvetica,sans-Serif" font-size="10.00">0 = Decoys effective (75% trap rate)</text>
<text xml:space="preserve" text-anchor="start" x="125.62" y="-133.25" font-family="Helvetica,sans-Serif" font-size="10.00">1 = Red discovered decoys, bypassing traps</text>
<text xml:space="preserve" text-anchor="start" x="136.88" y="-117.25" font-family="Helvetica,sans-Serif" font-size="10.00">Affects P1b: conn&#45;only then RESTORE</text>
</g>
<!-- red_count&#45;&gt;bypassed -->
<!-- restoring -->
<g id="node6" class="node">
<title>restoring</title>
<polygon fill="#fff9c4" stroke="black" points="311.12,-72 135.12,-72 135.12,-16 311.12,-16 311.12,-72"/>
<text xml:space="preserve" text-anchor="start" x="178.5" y="-57.5" font-family="Helvetica,sans-Serif" font-weight="bold" font-size="10.00">RESTORING (bit 7)</text>
<text xml:space="preserve" text-anchor="start" x="174.75" y="-40.25" font-family="Helvetica,sans-Serif" font-size="10.00">0 = No active Restore</text>
<text xml:space="preserve" text-anchor="start" x="145.12" y="-24.25" font-family="Helvetica,sans-Serif" font-size="10.00">1 = Restore in progress in this zone</text>
</g>
<!-- bypassed&#45;&gt;restoring -->
<!-- a0 -->
<g id="node7" class="node">
<title>a0</title>
<polygon fill="#ffcc80" stroke="black" points="608.12,-844.75 464.12,-844.75 464.12,-780.75 608.12,-780.75 608.12,-844.75"/>
<text xml:space="preserve" text-anchor="start" x="518.12" y="-828.25" font-family="Helvetica,sans-Serif" font-weight="bold" font-size="10.00">Agent 0</text>
<text xml:space="preserve" text-anchor="start" x="496.75" y="-809" font-family="Helvetica,sans-Serif" font-size="10.00">Restricted Zone A</text>
<text xml:space="preserve" text-anchor="start" x="499.38" y="-791" font-family="Helvetica,sans-Serif" font-size="10.00">Gateway to OZA</text>
</g>
<!-- a1 -->
<g id="node8" class="node">
<title>a1</title>
<polygon fill="#ef9a9a" stroke="black" points="688.12,-611 544.12,-611 544.12,-547 688.12,-547 688.12,-611"/>
<text xml:space="preserve" text-anchor="start" x="598.12" y="-594.5" font-family="Helvetica,sans-Serif" font-weight="bold" font-size="10.00">Agent 1</text>
<text xml:space="preserve" text-anchor="start" x="574.5" y="-575.25" font-family="Helvetica,sans-Serif" font-size="10.00">Operational Zone A</text>
<text xml:space="preserve" text-anchor="start" x="567" y="-557.25" font-family="Helvetica,sans-Serif" font-size="10.00">Phase 1 Impact Target</text>
</g>
<!-- a0&#45;&gt;a1 -->
<g id="edge5" class="edge">
<title>a0&#45;&gt;a1</title>
<path fill="none" stroke="#d32f2f" stroke-width="3" d="M546.91,-780.5C560.72,-740.5 584.74,-670.92 600.53,-625.16"/>
<polygon fill="#d32f2f" stroke="#d32f2f" stroke-width="3" points="603.81,-626.39 603.77,-615.79 597.2,-624.1 603.81,-626.39"/>
<text xml:space="preserve" text-anchor="middle" x="622.39" y="-701.2" font-family="Helvetica,sans-Serif" font-size="9.00">UPSTREAM</text>
<text xml:space="preserve" text-anchor="middle" x="622.39" y="-690.7" font-family="Helvetica,sans-Serif" font-size="9.00">Phase 1</text>
<text xml:space="preserve" text-anchor="middle" x="622.39" y="-680.2" font-family="Helvetica,sans-Serif" font-size="9.00">red_count &gt;= 3</text>
<text xml:space="preserve" text-anchor="middle" x="622.39" y="-669.7" font-family="Helvetica,sans-Serif" font-size="9.00">triggers T3 in OZA</text>
</g>
<!-- a2 -->
<g id="node9" class="node">
<title>a2</title>
<polygon fill="#ce93d8" stroke="black" points="617.12,-177 473.12,-177 473.12,-113 617.12,-113 617.12,-177"/>
<text xml:space="preserve" text-anchor="start" x="527.12" y="-160.5" font-family="Helvetica,sans-Serif" font-weight="bold" font-size="10.00">Agent 2</text>
<text xml:space="preserve" text-anchor="start" x="505.38" y="-141.25" font-family="Helvetica,sans-Serif" font-size="10.00">Restricted Zone B</text>
<text xml:space="preserve" text-anchor="start" x="508.38" y="-123.25" font-family="Helvetica,sans-Serif" font-size="10.00">Gateway to OZB</text>
</g>
<!-- a0&#45;&gt;a2 -->
<g id="edge7" class="edge">
<title>a0&#45;&gt;a2</title>
<path fill="none" stroke="#999999" stroke-dasharray="5,2" d="M513.99,-780.44C490.07,-736.76 456.12,-654.48 456.12,-580 456.12,-580 456.12,-580 456.12,-307 456.12,-262.26 481.21,-217.14 504.87,-186.1"/>
<polygon fill="#999999" stroke="#999999" points="507.4,-188.53 510.86,-178.52 501.91,-184.19 507.4,-188.53"/>
</g>
<!-- a3 -->
<g id="node10" class="node">
<title>a3</title>
<polygon fill="#90caf9" stroke="black" points="668.12,-340 524.12,-340 524.12,-276 668.12,-276 668.12,-340"/>
<text xml:space="preserve" text-anchor="start" x="578.12" y="-323.5" font-family="Helvetica,sans-Serif" font-weight="bold" font-size="10.00">Agent 3</text>
<text xml:space="preserve" text-anchor="start" x="554.12" y="-304.25" font-family="Helvetica,sans-Serif" font-size="10.00">Operational Zone B</text>
<text xml:space="preserve" text-anchor="start" x="547" y="-286.25" font-family="Helvetica,sans-Serif" font-size="10.00">Phase 2 Impact Target</text>
</g>
<!-- a0&#45;&gt;a3 -->
<g id="edge8" class="edge">
<title>a0&#45;&gt;a3</title>
<path fill="none" stroke="#999999" stroke-dasharray="5,2" d="M529.34,-780.48C520.61,-711.18 512,-549.15 526.12,-529 553.81,-489.51 600.44,-531.49 628.12,-492 657.63,-449.91 635.15,-390.12 615.69,-350.48"/>
<polygon fill="#999999" stroke="#999999" points="618.89,-349.07 611.27,-341.72 612.65,-352.22 618.89,-349.07"/>
</g>
<!-- a4 -->
<g id="node11" class="node">
<title>a4</title>
<polygon fill="#a5d6a7" stroke="black" points="628.12,-475 484.12,-475 484.12,-411 628.12,-411 628.12,-475"/>
<text xml:space="preserve" text-anchor="start" x="538.12" y="-458.5" font-family="Helvetica,sans-Serif" font-weight="bold" font-size="10.00">Agent 4</text>
<text xml:space="preserve" text-anchor="start" x="536.25" y="-439.25" font-family="Helvetica,sans-Serif" font-size="10.00">HQ Zone</text>
<text xml:space="preserve" text-anchor="start" x="508.5" y="-421.25" font-family="Helvetica,sans-Serif" font-size="10.00">PAZ + Admin + Office</text>
</g>
<!-- a0&#45;&gt;a4 -->
<g id="edge9" class="edge">
<title>a0&#45;&gt;a4</title>
<path fill="none" stroke="#999999" stroke-dasharray="5,2" d="M523.67,-780.42C509.71,-727.86 492.88,-618.86 511.12,-529 514.12,-514.23 519.78,-498.84 526.17,-485.29"/>
<polygon fill="#999999" stroke="#999999" points="529.14,-487.17 530.5,-476.67 522.89,-484.03 529.14,-487.17"/>
</g>
<!-- a1&#45;&gt;a0 -->
<g id="edge10" class="edge">
<title>a1&#45;&gt;a0</title>
<path fill="none" stroke="#999999" stroke-dasharray="5,2" d="M597.31,-611.2C588.08,-627.58 577.41,-648.25 570.12,-667.75 557.71,-701 548.79,-740.3 543.21,-769.44"/>
<polygon fill="#999999" stroke="#999999" points="539.83,-768.51 541.44,-778.98 546.71,-769.79 539.83,-768.51"/>
</g>
<!-- a1&#45;&gt;a2 -->
<g id="edge11" class="edge">
<title>a1&#45;&gt;a2</title>
<path fill="none" stroke="#999999" stroke-dasharray="5,2" d="M628.59,-546.62C637.04,-530.87 647.27,-511.1 653.12,-492 683.55,-392.79 687.75,-360.9 668.12,-259 662.69,-230.8 663.65,-220.06 644.12,-199 638.97,-193.44 633.11,-188.4 626.87,-183.83"/>
<polygon fill="#999999" stroke="#999999" points="628.99,-181.04 618.75,-178.32 625.06,-186.83 628.99,-181.04"/>
</g>
<!-- a1&#45;&gt;a3 -->
<g id="edge12" class="edge">
<title>a1&#45;&gt;a3</title>
<path fill="none" stroke="#999999" stroke-dasharray="5,2" d="M624.67,-546.7C631.29,-530.79 639.33,-510.88 643.12,-492 653.37,-441.02 661.04,-423.82 643.12,-375 639.78,-365.87 634.54,-357.15 628.74,-349.2"/>
<polygon fill="#999999" stroke="#999999" points="631.59,-347.16 622.67,-341.44 626.07,-351.47 631.59,-347.16"/>
</g>
<!-- a1&#45;&gt;a4 -->
<g id="edge13" class="edge">
<title>a1&#45;&gt;a4</title>
<path fill="none" stroke="#999999" stroke-dasharray="5,2" d="M596.24,-546.58C587.06,-528.44 576.58,-505.39 568.51,-485.74"/>
<polygon fill="#999999" stroke="#999999" points="571.83,-484.61 564.86,-476.63 565.33,-487.21 571.83,-484.61"/>
</g>
<!-- a2&#45;&gt;a0 -->
<g id="edge14" class="edge">
<title>a2&#45;&gt;a0</title>
<path fill="none" stroke="#999999" stroke-dasharray="5,2" d="M525.61,-177.33C504.41,-208.23 474.12,-257.84 474.12,-307 474.12,-580 474.12,-580 474.12,-580 474.12,-648.81 503.09,-724.27 521.68,-769.81"/>
<polygon fill="#999999" stroke="#999999" points="518.43,-771.12 525.46,-779.04 524.91,-768.46 518.43,-771.12"/>
</g>
<!-- a2&#45;&gt;a1 -->
<g id="edge15" class="edge">
<title>a2&#45;&gt;a1</title>
<path fill="none" stroke="#999999" stroke-dasharray="5,2" d="M617.54,-167.79C633.91,-175.64 649.98,-185.9 662.12,-199 681.65,-220.06 680.69,-230.8 686.12,-259 705.75,-360.9 701.55,-392.79 671.12,-492 666.41,-507.37 658.87,-523.17 650.78,-536.97"/>
<polygon fill="#999999" stroke="#999999" points="647.89,-534.99 645.62,-545.34 653.85,-538.66 647.89,-534.99"/>
</g>
<!-- a2&#45;&gt;a3 -->
<g id="edge6" class="edge">
<title>a2&#45;&gt;a3</title>
<path fill="none" stroke="#1565c0" stroke-width="3" d="M555.05,-177.35C562.67,-201.37 573.27,-234.86 581.8,-261.79"/>
<polygon fill="#1565c0" stroke="#1565c0" stroke-width="3" points="578.44,-262.77 584.8,-271.25 585.12,-260.66 578.44,-262.77"/>
<text xml:space="preserve" text-anchor="middle" x="611.94" y="-232.45" font-family="Helvetica,sans-Serif" font-size="9.00">UPSTREAM</text>
<text xml:space="preserve" text-anchor="middle" x="611.94" y="-221.95" font-family="Helvetica,sans-Serif" font-size="9.00">Phase 1+2</text>
<text xml:space="preserve" text-anchor="middle" x="611.94" y="-211.45" font-family="Helvetica,sans-Serif" font-size="9.00">red_count &gt;= 3</text>
<text xml:space="preserve" text-anchor="middle" x="611.94" y="-200.95" font-family="Helvetica,sans-Serif" font-size="9.00">triggers T3 in OZB</text>
</g>
<!-- a2&#45;&gt;a4 -->
<g id="edge16" class="edge">
<title>a2&#45;&gt;a4</title>
<path fill="none" stroke="#999999" stroke-dasharray="5,2" d="M539.71,-177.4C528.9,-218.89 509.74,-294.06 524.12,-357 527.5,-371.75 533.77,-386.91 539.99,-400.27"/>
<polygon fill="#999999" stroke="#999999" points="536.78,-401.69 544.25,-409.2 543.1,-398.67 536.78,-401.69"/>
</g>
<!-- a3&#45;&gt;a0 -->
<g id="edge17" class="edge">
<title>a3&#45;&gt;a0</title>
<path fill="none" stroke="#999999" stroke-dasharray="5,2" d="M623.12,-340.37C648.71,-379.3 678.27,-446.14 646.12,-492 618.44,-531.49 571.81,-489.51 544.12,-529 530.72,-548.13 537.8,-695.09 538.62,-769.24"/>
<polygon fill="#999999" stroke="#999999" points="535.11,-768.99 538.68,-778.97 542.11,-768.95 535.11,-768.99"/>
</g>
<!-- a3&#45;&gt;a1 -->
<g id="edge18" class="edge">
<title>a3&#45;&gt;a1</title>
<path fill="none" stroke="#999999" stroke-dasharray="5,2" d="M638.96,-340.25C648.16,-350.38 656.46,-362.3 661.12,-375 679.04,-423.82 671.37,-441.02 661.12,-492 658.1,-507.05 652.38,-522.75 645.91,-536.55"/>
<polygon fill="#999999" stroke="#999999" points="642.86,-534.83 641.53,-545.34 649.13,-537.95 642.86,-534.83"/>
</g>
<!-- a3&#45;&gt;a2 -->
<g id="edge19" class="edge">
<title>a3&#45;&gt;a2</title>
<path fill="none" stroke="#999999" stroke-dasharray="5,2" d="M575.41,-275.54C569.29,-264.95 563.15,-252.81 559.12,-241 553.44,-224.33 550.06,-205.25 548.06,-188.58"/>
<polygon fill="#999999" stroke="#999999" points="551.58,-188.56 547.04,-178.98 544.62,-189.3 551.58,-188.56"/>
</g>
<!-- a3&#45;&gt;a4 -->
<g id="edge20" class="edge">
<title>a3&#45;&gt;a4</title>
<path fill="none" stroke="#999999" stroke-dasharray="5,2" d="M592.5,-340.45C588.16,-358.29 581.54,-380.85 575.02,-400.17"/>
<polygon fill="#999999" stroke="#999999" points="571.8,-398.79 571.82,-409.39 578.41,-401.09 571.8,-398.79"/>
</g>
<!-- a4&#45;&gt;a0 -->
<g id="edge21" class="edge">
<title>a4&#45;&gt;a0</title>
<path fill="none" stroke="#999999" stroke-dasharray="5,2" d="M547.42,-475.31C540.83,-490.96 532.89,-510.47 529.12,-529 512.09,-612.9 525.63,-713.47 533.2,-769.22"/>
<polygon fill="#999999" stroke="#999999" points="529.7,-769.47 534.51,-778.92 536.64,-768.54 529.7,-769.47"/>
</g>
<!-- a4&#45;&gt;a1 -->
<g id="edge22" class="edge">
<title>a4&#45;&gt;a1</title>
<path fill="none" stroke="#999999" stroke-dasharray="5,2" d="M575.91,-475.22C585.08,-493.33 595.56,-516.37 603.65,-536.05"/>
<polygon fill="#999999" stroke="#999999" points="600.34,-537.2 607.31,-545.18 606.84,-534.59 600.34,-537.2"/>
</g>
<!-- a4&#45;&gt;a2 -->
<g id="edge23" class="edge">
<title>a4&#45;&gt;a2</title>
<path fill="none" stroke="#999999" stroke-dasharray="5,2" d="M528.63,-410.56C519.33,-395.05 510.4,-375.69 506.12,-357 492.89,-299.1 508.05,-230.85 523.42,-187.99"/>
<polygon fill="#999999" stroke="#999999" points="526.62,-189.41 526.88,-178.82 520.07,-186.94 526.62,-189.41"/>
</g>
<!-- a4&#45;&gt;a3 -->
<g id="edge24" class="edge">
<title>a4&#45;&gt;a3</title>
<path fill="none" stroke="#999999" stroke-dasharray="5,2" d="M559.68,-410.82C564,-393.02 570.61,-370.47 577.13,-351.12"/>
<polygon fill="#999999" stroke="#999999" points="580.36,-352.47 580.33,-341.88 573.75,-350.18 580.36,-352.47"/>
</g>
<!-- up_ph1 -->
<g id="node12" class="node">
<title>up_ph1</title>
<polygon fill="#ffcdd2" stroke="black" points="866.12,-852.75 712.12,-852.75 712.12,-772.75 866.12,-772.75 866.12,-852.75"/>
<polygon fill="#ffcdd2" stroke="none" points="720.12,-776.75 720.12,-848.75 858.12,-848.75 858.12,-776.75 720.12,-776.75"/>
<polygon fill="none" stroke="black" points="720.12,-830.75 720.12,-848.75 858.12,-848.75 858.12,-830.75 720.12,-830.75"/>
<text xml:space="preserve" text-anchor="start" x="743" y="-837.25" font-family="Helvetica,sans-Serif" font-weight="bold" font-size="10.00">Phase 1 (Mission A)</text>
<polygon fill="none" stroke="black" points="720.12,-812.75 720.12,-830.75 789.12,-830.75 789.12,-812.75 720.12,-812.75"/>
<text xml:space="preserve" text-anchor="start" x="733.25" y="-818" font-family="Helvetica,sans-Serif" font-size="10.00">Upstream</text>
<polygon fill="none" stroke="black" points="789.12,-812.75 789.12,-830.75 858.12,-830.75 858.12,-812.75 789.12,-812.75"/>
<text xml:space="preserve" text-anchor="start" x="795.88" y="-818" font-family="Helvetica,sans-Serif" font-size="10.00">Downstream</text>
<polygon fill="none" stroke="black" points="720.12,-794.75 720.12,-812.75 789.12,-812.75 789.12,-794.75 720.12,-794.75"/>
<text xml:space="preserve" text-anchor="start" x="723.12" y="-800" font-family="Helvetica,sans-Serif" font-size="10.00">Agent 0 (RZA)</text>
<polygon fill="none" stroke="black" points="789.12,-794.75 789.12,-812.75 858.12,-812.75 858.12,-794.75 789.12,-794.75"/>
<text xml:space="preserve" text-anchor="start" x="792.12" y="-800" font-family="Helvetica,sans-Serif" font-size="10.00">Agent 1 (OZA)</text>
<polygon fill="none" stroke="black" points="720.12,-776.75 720.12,-794.75 789.12,-794.75 789.12,-776.75 720.12,-776.75"/>
<text xml:space="preserve" text-anchor="start" x="723.12" y="-782" font-family="Helvetica,sans-Serif" font-size="10.00">Agent 2 (RZB)</text>
<polygon fill="none" stroke="black" points="789.12,-776.75 789.12,-794.75 858.12,-794.75 858.12,-776.75 789.12,-776.75"/>
<text xml:space="preserve" text-anchor="start" x="792.12" y="-782" font-family="Helvetica,sans-Serif" font-size="10.00">Agent 3 (OZB)</text>
</g>
<!-- up_ph2 -->
<g id="node13" class="node">
<title>up_ph2</title>
<polygon fill="#bbdefb" stroke="black" points="1038.12,-843.75 884.12,-843.75 884.12,-781.75 1038.12,-781.75 1038.12,-843.75"/>
<polygon fill="#bbdefb" stroke="none" points="892.12,-785.75 892.12,-839.75 1030.12,-839.75 1030.12,-785.75 892.12,-785.75"/>
<polygon fill="none" stroke="black" points="892.12,-821.75 892.12,-839.75 1030.12,-839.75 1030.12,-821.75 892.12,-821.75"/>
<text xml:space="preserve" text-anchor="start" x="914.62" y="-828.25" font-family="Helvetica,sans-Serif" font-weight="bold" font-size="10.00">Phase 2 (Mission B)</text>
<polygon fill="none" stroke="black" points="892.12,-803.75 892.12,-821.75 961.12,-821.75 961.12,-803.75 892.12,-803.75"/>
<text xml:space="preserve" text-anchor="start" x="905.25" y="-809" font-family="Helvetica,sans-Serif" font-size="10.00">Upstream</text>
<polygon fill="none" stroke="black" points="961.12,-803.75 961.12,-821.75 1030.12,-821.75 1030.12,-803.75 961.12,-803.75"/>
<text xml:space="preserve" text-anchor="start" x="967.88" y="-809" font-family="Helvetica,sans-Serif" font-size="10.00">Downstream</text>
<polygon fill="none" stroke="black" points="892.12,-785.75 892.12,-803.75 961.12,-803.75 961.12,-785.75 892.12,-785.75"/>
<text xml:space="preserve" text-anchor="start" x="895.12" y="-791" font-family="Helvetica,sans-Serif" font-size="10.00">Agent 2 (RZB)</text>
<polygon fill="none" stroke="black" points="961.12,-785.75 961.12,-803.75 1030.12,-803.75 1030.12,-785.75 961.12,-785.75"/>
<text xml:space="preserve" text-anchor="start" x="964.12" y="-791" font-family="Helvetica,sans-Serif" font-size="10.00">Agent 3 (OZB)</text>
</g>
<!-- escalation -->
<g id="node14" class="node">
<title>escalation</title>
<polygon fill="#ff8a80" stroke="black" points="1359.75,-897.75 1056.5,-897.75 1056.5,-727.75 1359.75,-727.75 1359.75,-897.75"/>
<polygon fill="#ff8a80" stroke="none" points="1064.5,-731.75 1064.5,-893.75 1351.75,-893.75 1351.75,-731.75 1064.5,-731.75"/>
<polygon fill="none" stroke="black" points="1064.5,-875.75 1064.5,-893.75 1351.75,-893.75 1351.75,-875.75 1064.5,-875.75"/>
<text xml:space="preserve" text-anchor="start" x="1132.75" y="-882.25" font-family="Helvetica,sans-Serif" font-weight="bold" font-size="10.00">How Messages Affect Escalation</text>
<polygon fill="none" stroke="black" points="1064.5,-857.75 1064.5,-875.75 1162,-875.75 1162,-857.75 1064.5,-857.75"/>
<text xml:space="preserve" text-anchor="start" x="1104.25" y="-864.25" font-family="Helvetica,sans-Serif" font-weight="bold" font-size="10.00">Tier</text>
<polygon fill="none" stroke="black" points="1162,-857.75 1162,-875.75 1351.75,-875.75 1351.75,-857.75 1162,-857.75"/>
<text xml:space="preserve" text-anchor="start" x="1215.62" y="-864.25" font-family="Helvetica,sans-Serif" font-weight="bold" font-size="10.00">Trigger and Effect</text>
<polygon fill="none" stroke="black" points="1064.5,-815.75 1064.5,-857.75 1162,-857.75 1162,-815.75 1064.5,-815.75"/>
<text xml:space="preserve" text-anchor="start" x="1077.62" y="-833" font-family="Helvetica,sans-Serif" font-size="10.00">T3 (threshold=0)</text>
<polygon fill="none" stroke="black" points="1162,-815.75 1162,-857.75 1351.75,-857.75 1351.75,-815.75 1162,-815.75"/>
<text xml:space="preserve" text-anchor="start" x="1202.12" y="-845" font-family="Helvetica,sans-Serif" font-size="10.00">upstream red_count &gt;= 3</text>
<text xml:space="preserve" text-anchor="start" x="1165" y="-833" font-family="Helvetica,sans-Serif" font-size="10.00">RESTORE on ANY proc_flag immediately</text>
<text xml:space="preserve" text-anchor="start" x="1189.75" y="-821" font-family="Helvetica,sans-Serif" font-size="10.00">&quot;Zone overrun &#45;&#45; skip Remove&quot;</text>
<polygon fill="none" stroke="black" points="1064.5,-773.75 1064.5,-815.75 1162,-815.75 1162,-773.75 1064.5,-773.75"/>
<text xml:space="preserve" text-anchor="start" x="1077.62" y="-791" font-family="Helvetica,sans-Serif" font-size="10.00">T2 (threshold=1)</text>
<polygon fill="none" stroke="black" points="1162,-773.75 1162,-815.75 1351.75,-815.75 1351.75,-773.75 1162,-773.75"/>
<text xml:space="preserve" text-anchor="start" x="1211.12" y="-803" font-family="Helvetica,sans-Serif" font-size="10.00">upstream threat &gt;= 2</text>
<text xml:space="preserve" text-anchor="start" x="1182.25" y="-791" font-family="Helvetica,sans-Serif" font-size="10.00">RESTORE if flag persists 1+ step</text>
<text xml:space="preserve" text-anchor="start" x="1184.12" y="-779" font-family="Helvetica,sans-Serif" font-size="10.00">&quot;Red advancing &#45;&#45; be aggressive&quot;</text>
<polygon fill="none" stroke="black" points="1064.5,-731.75 1064.5,-773.75 1162,-773.75 1162,-731.75 1064.5,-731.75"/>
<text xml:space="preserve" text-anchor="start" x="1067.5" y="-749" font-family="Helvetica,sans-Serif" font-size="10.00">Default (threshold=1)</text>
<polygon fill="none" stroke="black" points="1162,-731.75 1162,-773.75 1351.75,-773.75 1351.75,-731.75 1162,-731.75"/>
<text xml:space="preserve" text-anchor="start" x="1210.38" y="-761" font-family="Helvetica,sans-Serif" font-size="10.00">No upstream warning</text>
<text xml:space="preserve" text-anchor="start" x="1175.12" y="-749" font-family="Helvetica,sans-Serif" font-size="10.00">REMOVE first, RESTORE if persists</text>
<text xml:space="preserve" text-anchor="start" x="1220.12" y="-737" font-family="Helvetica,sans-Serif" font-size="10.00">&quot;Normal caution&quot;</text>
</g>
<!-- impact_note -->
<g id="node15" class="node">
<title>impact_note</title>
<polygon fill="#fff9c4" stroke="black" points="1313.88,-629 1096.38,-629 1096.38,-529 1319.88,-529 1319.88,-623 1313.88,-629"/>
<polyline fill="none" stroke="black" points="1313.88,-629 1313.88,-623"/>
<polyline fill="none" stroke="black" points="1319.88,-623 1313.88,-623"/>
<text xml:space="preserve" text-anchor="start" x="1128.62" y="-612.5" font-family="Helvetica,sans-Serif" font-weight="bold" font-size="10.00">Messaging Impact (from ablation):</text>
<text xml:space="preserve" text-anchor="start" x="1108.38" y="-593.25" font-family="Helvetica,sans-Serif" font-size="10.00">No&#45;messaging variant: &#45;982 vs &#45;1037 baseline</text>
<text xml:space="preserve" text-anchor="start" x="1118.5" y="-575.25" font-family="Helvetica,sans-Serif" font-size="10.00">Within noise (1 std dev) &#45;&#45; marginal effect</text>
<text xml:space="preserve" text-anchor="start" x="1141.38" y="-557.25" font-family="Helvetica,sans-Serif" font-size="10.00">T3 escalation fires infrequently</text>
<text xml:space="preserve" text-anchor="start" x="1121.12" y="-539.25" font-family="Helvetica,sans-Serif" font-size="10.00">Architecturally sound but rarely decisive</text>
</g>
<!-- escalation&#45;&gt;impact_note -->
</g>
</svg>
