<?xml version="1.0" encoding="UTF-8" standalone="no"?>
<!DOCTYPE svg PUBLIC "-//W3C//DTD SVG 1.1//EN"
 "http://www.w3.org/Graphics/SVG/1.1/DTD/svg11.dtd">
<!-- Generated by graphviz version 14.1.4 (20260321.0153)
 -->
<!-- Title: NetworkTopology Pages: 1 -->
<svg width="1555pt" height="1010pt"
 viewBox="0.00 0.00 1555.00 1010.00" xmlns="http://www.w3.org/2000/svg" xmlns:xlink="http://www.w3.org/1999/xlink">
<g id="graph0" class="graph" transform="scale(1 1) rotate(0) translate(4 1006.34)">
<title>NetworkTopology</title>
<polygon fill="white" stroke="none" points="-4,4 -4,-1006.34 1550.75,-1006.34 1550.75,4 -4,4"/>
<text xml:space="preserve" text-anchor="middle" x="773.38" y="-985.04" font-family="Helvetica,sans-Serif" font-size="14.00">CC4 Network Topology</text>
<text xml:space="preserve" text-anchor="middle" x="773.38" y="-969.29" font-family="Helvetica,sans-Serif" font-size="14.00">9 Subnets, 5 Blue Agents, ~50 Hosts</text>
<g id="clust1" class="cluster">
<title>cluster_legend</title>
<polygon fill="#fafafa" stroke="black" points="8,-8 8,-935.34 120,-935.34 120,-8 8,-8"/>
<text xml:space="preserve" text-anchor="middle" x="64" y="-921.84" font-family="Helvetica,sans-Serif" font-size="10.00">Legend</text>
</g>
<g id="clust2" class="cluster">
<title>cluster_internet</title>
<path fill="#fff3e0" stroke="#ff9800" d="M605,-863.34C605,-863.34 1018,-863.34 1018,-863.34 1024,-863.34 1030,-869.34 1030,-875.34 1030,-875.34 1030,-942.84 1030,-942.84 1030,-948.84 1024,-954.84 1018,-954.84 1018,-954.84 605,-954.84 605,-954.84 599,-954.84 593,-948.84 593,-942.84 593,-942.84 593,-875.34 593,-875.34 593,-869.34 599,-863.34 605,-863.34"/>
<text xml:space="preserve" text-anchor="middle" x="811.5" y="-937.54" font-family="Helvetica,sans-Serif" font-size="14.00">INTERNET</text>
<text xml:space="preserve" text-anchor="middle" x="811.5" y="-921.79" font-family="Helvetica,sans-Serif" font-size="14.00">(Red Entry)</text>
</g>
<g id="clust3" class="cluster">
<title>cluster_contractor</title>
<path fill="#fff8e1" stroke="#ffc107" d="M605,-740.09C605,-740.09 1232,-740.09 1232,-740.09 1238,-740.09 1244,-746.09 1244,-752.09 1244,-752.09 1244,-819.59 1244,-819.59 1244,-825.59 1238,-831.59 1232,-831.59 1232,-831.59 605,-831.59 605,-831.59 599,-831.59 593,-825.59 593,-819.59 593,-819.59 593,-752.09 593,-752.09 593,-746.09 599,-740.09 605,-740.09"/>
<text xml:space="preserve" text-anchor="middle" x="918.5" y="-814.29" font-family="Helvetica,sans-Serif" font-size="14.00">CONTRACTOR NETWORK</text>
<text xml:space="preserve" text-anchor="middle" x="918.5" y="-798.54" font-family="Helvetica,sans-Serif" font-size="14.00">(Red Entry, Phase 0 RIA=&#45;5)</text>
</g>
<g id="clust4" class="cluster">
<title>cluster_hq</title>
<path fill="#e8f5e9" stroke="#4caf50" d="M293,-567.34C293,-567.34 1437,-567.34 1437,-567.34 1443,-567.34 1449,-573.34 1449,-579.34 1449,-579.34 1449,-686.59 1449,-686.59 1449,-692.59 1443,-698.59 1437,-698.59 1437,-698.59 293,-698.59 293,-698.59 287,-698.59 281,-692.59 281,-686.59 281,-686.59 281,-579.34 281,-579.34 281,-573.34 287,-567.34 293,-567.34"/>
<text xml:space="preserve" text-anchor="middle" x="865" y="-681.29" font-family="Helvetica,sans-Serif" font-size="14.00">HQ ZONE &#45;&#45; Agent 4</text>
<text xml:space="preserve" text-anchor="middle" x="865" y="-665.54" font-family="Helvetica,sans-Serif" font-size="14.00">(RIA=&#45;3 all phases)</text>
</g>
<g id="clust5" class="cluster">
<title>cluster_paz</title>
<path fill="none" stroke="#66bb6a" d="M301,-575.34C301,-575.34 581,-575.34 581,-575.34 587,-575.34 593,-581.34 593,-587.34 593,-587.34 593,-639.09 593,-639.09 593,-645.09 587,-651.09 581,-651.09 581,-651.09 301,-651.09 301,-651.09 295,-651.09 289,-645.09 289,-639.09 289,-639.09 289,-587.34 289,-587.34 289,-581.34 295,-575.34 301,-575.34"/>
<text xml:space="preserve" text-anchor="middle" x="441" y="-633.79" font-family="Helvetica,sans-Serif" font-size="14.00">PUBLIC ACCESS ZONE</text>
</g>
<g id="clust6" class="cluster">
<title>cluster_admin</title>
<path fill="none" stroke="#66bb6a" d="M618,-575.34C618,-575.34 1005,-575.34 1005,-575.34 1011,-575.34 1017,-581.34 1017,-587.34 1017,-587.34 1017,-639.09 1017,-639.09 1017,-645.09 1011,-651.09 1005,-651.09 1005,-651.09 618,-651.09 618,-651.09 612,-651.09 606,-645.09 606,-639.09 606,-639.09 606,-587.34 606,-587.34 606,-581.34 612,-575.34 618,-575.34"/>
<text xml:space="preserve" text-anchor="middle" x="811.5" y="-633.79" font-family="Helvetica,sans-Serif" font-size="14.00">ADMIN NETWORK</text>
</g>
<g id="clust7" class="cluster">
<title>cluster_office</title>
<path fill="none" stroke="#66bb6a" d="M1042,-575.34C1042,-575.34 1429,-575.34 1429,-575.34 1435,-575.34 1441,-581.34 1441,-587.34 1441,-587.34 1441,-639.09 1441,-639.09 1441,-645.09 1435,-651.09 1429,-651.09 1429,-651.09 1042,-651.09 1042,-651.09 1036,-651.09 1030,-645.09 1030,-639.09 1030,-639.09 1030,-587.34 1030,-587.34 1030,-581.34 1036,-575.34 1042,-575.34"/>
<text xml:space="preserve" text-anchor="middle" x="1235.5" y="-633.79" font-family="Helvetica,sans-Serif" font-size="14.00">OFFICE NETWORK</text>
</g>
<g id="clust8" class="cluster">
<title>cluster_rza</title>
<path fill="#fff3e0" stroke="#ff9800" d="M207,-414.84C207,-414.84 602,-414.84 602,-414.84 608,-414.84 614,-420.84 614,-426.84 614,-426.84 614,-510.09 614,-510.09 614,-516.09 608,-522.09 602,-522.09 602,-522.09 207,-522.09 207,-522.09 201,-522.09 195,-516.09 195,-510.09 195,-510.09 195,-426.84 195,-426.84 195,-420.84 201,-414.84 207,-414.84"/>
<text xml:space="preserve" text-anchor="middle" x="404.5" y="-504.79" font-family="Helvetica,sans-Serif" font-size="14.00">RESTRICTED ZONE A &#45;&#45; Agent 0</text>
<text xml:space="preserve" text-anchor="middle" x="404.5" y="-489.04" font-family="Helvetica,sans-Serif" font-size="14.00">(Gateway to OZA)</text>
<text xml:space="preserve" text-anchor="middle" x="404.5" y="-473.29" font-family="Helvetica,sans-Serif" font-size="14.00">Phase 1: RIA=&#45;3, LWF=&#45;2</text>
</g>
<g id="clust9" class="cluster">
<title>cluster_oza</title>
<path fill="#ffebee" stroke="#f44336" d="M162,-248.14C162,-248.14 728,-248.14 728,-248.14 734,-248.14 740,-254.14 740,-260.14 740,-260.14 740,-344.03 740,-344.03 740,-350.03 734,-356.03 728,-356.03 728,-356.03 162,-356.03 162,-356.03 156,-356.03 150,-350.03 150,-344.03 150,-344.03 150,-260.14 150,-260.14 150,-254.14 156,-248.14 162,-248.14"/>
<text xml:space="preserve" text-anchor="middle" x="445" y="-338.73" font-family="Helvetica,sans-Serif" font-size="14.00">OPERATIONAL ZONE A &#45;&#45; Agent 1</text>
<text xml:space="preserve" text-anchor="middle" x="445" y="-322.98" font-family="Helvetica,sans-Serif" font-size="14.00">Phase 1 IMPACT TARGET (RIA=&#45;10, LWF=&#45;10)</text>
</g>
<g id="clust10" class="cluster">
<title>cluster_rzb</title>
<path fill="#f3e5f5" stroke="#9c27b0" d="M765,-256.34C765,-256.34 1160,-256.34 1160,-256.34 1166,-256.34 1172,-262.34 1172,-268.34 1172,-268.34 1172,-351.59 1172,-351.59 1172,-357.59 1166,-363.59 1160,-363.59 1160,-363.59 765,-363.59 765,-363.59 759,-363.59 753,-357.59 753,-351.59 753,-351.59 753,-268.34 753,-268.34 753,-262.34 759,-256.34 765,-256.34"/>
<text xml:space="preserve" text-anchor="middle" x="962.5" y="-346.29" font-family="Helvetica,sans-Serif" font-size="14.00">RESTRICTED ZONE B &#45;&#45; Agent 2</text>
<text xml:space="preserve" text-anchor="middle" x="962.5" y="-330.54" font-family="Helvetica,sans-Serif" font-size="14.00">(Gateway to OZB)</text>
<text xml:space="preserve" text-anchor="middle" x="962.5" y="-314.79" font-family="Helvetica,sans-Serif" font-size="14.00">Phase 2: RIA=&#45;3, LWF=&#45;2</text>
</g>
<g id="clust11" class="cluster">
<title>cluster_ozb</title>
<path fill="#e3f2fd" stroke="#2196f3" d="M731,-89C731,-89 1297,-89 1297,-89 1303,-89 1309,-95 1309,-101 1309,-101 1309,-184.89 1309,-184.89 1309,-190.89 1303,-196.89 1297,-196.89 1297,-196.89 731,-196.89 731,-196.89 725,-196.89 719,-190.89 719,-184.89 719,-184.89 719,-101 719,-101 719,-95 725,-89 731,-89"/>
<text xml:space="preserve" text-anchor="middle" x="1014" y="-179.59" font-family="Helvetica,sans-Serif" font-size="14.00">OPERATIONAL ZONE B &#45;&#45; Agent 3</text>
<text xml:space="preserve" text-anchor="middle" x="1014" y="-163.84" font-family="Helvetica,sans-Serif" font-size="14.00">Phase 2 IMPACT TARGET (RIA=&#45;10, LWF=&#45;10)</text>
</g>
<!-- l1 -->
<g id="node1" class="node">
<title>l1</title>
<polygon fill="#ffcc80" stroke="black" points="98.25,-907.34 29.75,-907.34 29.75,-871.34 98.25,-871.34 98.25,-907.34"/>
<text xml:space="preserve" text-anchor="middle" x="64" y="-886.61" font-family="Helvetica,sans-Serif" font-size="8.00">Agent 0 (RZA)</text>
</g>
<!-- l2 -->
<g id="node2" class="node">
<title>l2</title>
<polygon fill="#ef9a9a" stroke="black" points="98.25,-784.09 29.75,-784.09 29.75,-748.09 98.25,-748.09 98.25,-784.09"/>
<text xml:space="preserve" text-anchor="middle" x="64" y="-763.36" font-family="Helvetica,sans-Serif" font-size="8.00">Agent 1 (OZA)</text>
</g>
<!-- l1&#45;&gt;l2 -->
<!-- l3 -->
<g id="node3" class="node">
<title>l3</title>
<polygon fill="#ce93d8" stroke="black" points="98.25,-619.34 29.75,-619.34 29.75,-583.34 98.25,-583.34 98.25,-619.34"/>
<text xml:space="preserve" text-anchor="middle" x="64" y="-598.61" font-family="Helvetica,sans-Serif" font-size="8.00">Agent 2 (RZB)</text>
</g>
<!-- l2&#45;&gt;l3 -->
<!-- l4 -->
<g id="node4" class="node">
<title>l4</title>
<polygon fill="#90caf9" stroke="black" points="98.25,-458.84 29.75,-458.84 29.75,-422.84 98.25,-422.84 98.25,-458.84"/>
<text xml:space="preserve" text-anchor="middle" x="64" y="-438.11" font-family="Helvetica,sans-Serif" font-size="8.00">Agent 3 (OZB)</text>
</g>
<!-- l3&#45;&gt;l4 -->
<!-- l5 -->
<g id="node5" class="node">
<title>l5</title>
<polygon fill="#a5d6a7" stroke="black" points="96,-300.34 32,-300.34 32,-264.34 96,-264.34 96,-300.34"/>
<text xml:space="preserve" text-anchor="middle" x="64" y="-279.61" font-family="Helvetica,sans-Serif" font-size="8.00">Agent 4 (HQ)</text>
</g>
<!-- l4&#45;&gt;l5 -->
<!-- l6 -->
<g id="node6" class="node">
<title>l6</title>
<polygon fill="#ff5252" stroke="black" points="104.28,-115.74 104.28,-130.65 80.68,-141.2 47.32,-141.2 23.72,-130.65 23.72,-115.74 47.32,-105.2 80.68,-105.2 104.28,-115.74"/>
<polygon fill="none" stroke="black" points="108.28,-113.15 108.28,-133.25 81.54,-145.2 46.46,-145.2 19.72,-133.25 19.72,-113.15 46.46,-101.2 81.54,-101.2 108.28,-113.15"/>
<text xml:space="preserve" text-anchor="middle" x="64" y="-120.47" font-family="Helvetica,sans-Serif" font-size="8.00">Impact Target</text>
</g>
<!-- l5&#45;&gt;l6 -->
<!-- l7 -->
<g id="node7" class="node">
<title>l7</title>
<polygon fill="#ffd54f" stroke="black" points="111.95,-34 87.97,-52 40.03,-52 16.05,-34 40.03,-16 87.97,-16 111.95,-34"/>
<text xml:space="preserve" text-anchor="middle" x="64" y="-31.27" font-family="Helvetica,sans-Serif" font-size="8.00">Red Entry Point</text>
</g>
<!-- l6&#45;&gt;l7 -->
<!-- inet_server_0 -->
<g id="node8" class="node">
<title>inet_server_0</title>
<polygon fill="#ffd54f" stroke="black" points="701.14,-889.34 676.07,-907.34 625.93,-907.34 600.86,-889.34 625.93,-871.34 676.07,-871.34 701.14,-889.34"/>
<text xml:space="preserve" text-anchor="middle" x="651" y="-886.04" font-family="Helvetica,sans-Serif" font-size="9.00">server_host_0</text>
</g>
<!-- con_server_0 -->
<g id="node12" class="node">
<title>con_server_0</title>
<polygon fill="#ffd54f" stroke="black" points="701.14,-766.09 676.07,-784.09 625.93,-784.09 600.86,-766.09 625.93,-748.09 676.07,-748.09 701.14,-766.09"/>
<text xml:space="preserve" text-anchor="middle" x="651" y="-762.79" font-family="Helvetica,sans-Serif" font-size="9.00">server_host_0</text>
</g>
<!-- inet_server_0&#45;&gt;con_server_0 -->
<g id="edge7" class="edge">
<title>inet_server_0&#45;&gt;con_server_0</title>
<path fill="none" stroke="#333333" stroke-width="2" d="M651,-870.89C651,-870.89 651,-797.29 651,-797.29"/>
<polygon fill="#333333" stroke="#333333" stroke-width="2" points="654.5,-797.29 651,-787.29 647.5,-797.29 654.5,-797.29"/>
<text xml:space="preserve" text-anchor="middle" x="673.12" y="-841.74" font-family="Helvetica,sans-Serif" font-size="8.00">always open</text>
</g>
<!-- inet_user_0 -->
<g id="node9" class="node">
<title>inet_user_0</title>
<ellipse fill="#ffe0b2" stroke="black" cx="769" cy="-889.34" rx="39.05" ry="18"/>
<text xml:space="preserve" text-anchor="middle" x="769" y="-886.04" font-family="Helvetica,sans-Serif" font-size="9.00">user_host_0</text>
</g>
<!-- inet_user_1 -->
<g id="node10" class="node">
<title>inet_user_1</title>
<ellipse fill="#ffe0b2" stroke="black" cx="876" cy="-889.34" rx="39.05" ry="18"/>
<text xml:space="preserve" text-anchor="middle" x="876" y="-886.04" font-family="Helvetica,sans-Serif" font-size="9.00">user_host_1</text>
</g>
<!-- inet_user_2 -->
<g id="node11" class="node">
<title>inet_user_2</title>
<ellipse fill="#ffe0b2" stroke="black" cx="983" cy="-889.34" rx="39.05" ry="18"/>
<text xml:space="preserve" text-anchor="middle" x="983" y="-886.04" font-family="Helvetica,sans-Serif" font-size="9.00">user_host_2</text>
</g>
<!-- paz_server_0 -->
<g id="node18" class="node">
<title>paz_server_0</title>
<polygon fill="#a5d6a7" stroke="black" points="371.25,-619.34 296.75,-619.34 296.75,-583.34 371.25,-583.34 371.25,-619.34"/>
<text xml:space="preserve" text-anchor="middle" x="334" y="-603.29" font-family="Helvetica,sans-Serif" font-size="9.00">server_host_0</text>
<text xml:space="preserve" text-anchor="middle" x="334" y="-592.79" font-family="Helvetica,sans-Serif" font-size="9.00">(chokepoint)</text>
</g>
<!-- con_server_0&#45;&gt;paz_server_0 -->
<g id="edge8" class="edge">
<title>con_server_0&#45;&gt;paz_server_0</title>
<path fill="none" stroke="#333333" d="M608.58,-760C522.2,-760 334,-760 334,-760 334,-760 334,-631.05 334,-631.05"/>
<polygon fill="#333333" stroke="#333333" points="337.5,-631.05 334,-621.05 330.5,-631.05 337.5,-631.05"/>
<text xml:space="preserve" text-anchor="middle" x="475.62" y="-718.49" font-family="Helvetica,sans-Serif" font-size="8.00">PAZ&lt;&#45;&gt;Contractor</text>
<text xml:space="preserve" text-anchor="middle" x="475.62" y="-708.74" font-family="Helvetica,sans-Serif" font-size="8.00">all phases</text>
</g>
<!-- adm_server_0 -->
<g id="node21" class="node">
<title>adm_server_0</title>
<polygon fill="#a5d6a7" stroke="black" points="688.25,-619.34 613.75,-619.34 613.75,-583.34 688.25,-583.34 688.25,-619.34"/>
<text xml:space="preserve" text-anchor="middle" x="651" y="-603.29" font-family="Helvetica,sans-Serif" font-size="9.00">server_host_0</text>
<text xml:space="preserve" text-anchor="middle" x="651" y="-592.79" font-family="Helvetica,sans-Serif" font-size="9.00">(chokepoint)</text>
</g>
<!-- con_server_0&#45;&gt;adm_server_0 -->
<g id="edge9" class="edge">
<title>con_server_0&#45;&gt;adm_server_0</title>
<path fill="none" stroke="#333333" d="M651,-747.83C651,-747.83 651,-631.19 651,-631.19"/>
<polygon fill="#333333" stroke="#333333" points="654.5,-631.19 651,-621.19 647.5,-631.19 654.5,-631.19"/>
<text xml:space="preserve" text-anchor="middle" x="687.38" y="-718.49" font-family="Helvetica,sans-Serif" font-size="8.00">Admin&lt;&#45;&gt;Contractor</text>
<text xml:space="preserve" text-anchor="middle" x="687.38" y="-708.74" font-family="Helvetica,sans-Serif" font-size="8.00">all phases</text>
</g>
<!-- off_server_0 -->
<g id="node25" class="node">
<title>off_server_0</title>
<polygon fill="#a5d6a7" stroke="black" points="1112.25,-619.34 1037.75,-619.34 1037.75,-583.34 1112.25,-583.34 1112.25,-619.34"/>
<text xml:space="preserve" text-anchor="middle" x="1075" y="-603.29" font-family="Helvetica,sans-Serif" font-size="9.00">server_host_0</text>
<text xml:space="preserve" text-anchor="middle" x="1075" y="-592.79" font-family="Helvetica,sans-Serif" font-size="9.00">(chokepoint)</text>
</g>
<!-- con_server_0&#45;&gt;off_server_0 -->
<g id="edge10" class="edge">
<title>con_server_0&#45;&gt;off_server_0</title>
<path fill="none" stroke="#333333" d="M696.84,-762.56C696.84,-746.85 696.84,-684 696.84,-684 696.84,-684 1044.35,-684 1044.35,-684 1044.35,-684 1044.35,-631.2 1044.35,-631.2"/>
<polygon fill="#333333" stroke="#333333" points="1047.85,-631.2 1044.35,-621.2 1040.85,-631.2 1047.85,-631.2"/>
<text xml:space="preserve" text-anchor="middle" x="952.25" y="-718.49" font-family="Helvetica,sans-Serif" font-size="8.00">Office&lt;&#45;&gt;Contractor</text>
<text xml:space="preserve" text-anchor="middle" x="952.25" y="-708.74" font-family="Helvetica,sans-Serif" font-size="8.00">all phases</text>
</g>
<!-- rza_server_0 -->
<g id="node29" class="node">
<title>rza_server_0</title>
<polygon fill="#ffcc80" stroke="black" stroke-width="2" points="284.62,-458.84 203.38,-458.84 203.38,-422.84 284.62,-422.84 284.62,-458.84"/>
<text xml:space="preserve" text-anchor="middle" x="244" y="-442.79" font-family="Helvetica,sans-Serif" font-size="9.00">server_host_0</text>
<text xml:space="preserve" text-anchor="middle" x="244" y="-432.29" font-family="Helvetica,sans-Serif" font-size="9.00">(CHOKEPOINT)</text>
</g>
<!-- con_server_0&#45;&gt;rza_server_0 -->
<g id="edge19" class="edge">
<title>con_server_0&#45;&gt;rza_server_0</title>
<path fill="none" stroke="#f44336" stroke-width="2" stroke-dasharray="5,2" d="M608.47,-772C500.38,-772 223.69,-772 223.69,-772 223.69,-772 223.69,-472.62 223.69,-472.62"/>
<polygon fill="#f44336" stroke="#f44336" stroke-width="2" points="227.19,-472.62 223.69,-462.62 220.19,-472.62 227.19,-472.62"/>
<text xml:space="preserve" text-anchor="middle" x="232.88" y="-608.36" font-family="Helvetica,sans-Serif" font-size="8.00">Contractor&lt;&#45;&gt;RZA</text>
<text xml:space="preserve" text-anchor="middle" x="232.88" y="-598.61" font-family="Helvetica,sans-Serif" font-size="8.00">Phase 0,2</text>
<text xml:space="preserve" text-anchor="middle" x="232.88" y="-588.86" font-family="Helvetica,sans-Serif" font-size="8.00">BLOCKED Phase 1</text>
</g>
<!-- rzb_server_0 -->
<g id="node38" class="node">
<title>rzb_server_0</title>
<polygon fill="#ce93d8" stroke="black" stroke-width="2" points="842.62,-300.34 761.38,-300.34 761.38,-264.34 842.62,-264.34 842.62,-300.34"/>
<text xml:space="preserve" text-anchor="middle" x="802" y="-284.29" font-family="Helvetica,sans-Serif" font-size="9.00">server_host_0</text>
<text xml:space="preserve" text-anchor="middle" x="802" y="-273.79" font-family="Helvetica,sans-Serif" font-size="9.00">(CHOKEPOINT)</text>
</g>
<!-- con_server_0&#45;&gt;rzb_server_0 -->
<g id="edge20" class="edge">
<title>con_server_0&#45;&gt;rzb_server_0</title>
<path fill="none" stroke="#2196f3" stroke-width="2" stroke-dasharray="5,2" d="M692.55,-759.42C692.55,-713.6 692.55,-447 692.55,-447 692.55,-447 781.58,-447 781.58,-447 781.58,-447 781.58,-314.25 781.58,-314.25"/>
<polygon fill="#2196f3" stroke="#2196f3" stroke-width="2" points="785.08,-314.25 781.58,-304.25 778.08,-314.25 785.08,-314.25"/>
<text xml:space="preserve" text-anchor="middle" x="1511.88" y="-551.74" font-family="Helvetica,sans-Serif" font-size="8.00">Contractor&lt;&#45;&gt;RZB</text>
<text xml:space="preserve" text-anchor="middle" x="1511.88" y="-541.99" font-family="Helvetica,sans-Serif" font-size="8.00">Phase 0,1</text>
<text xml:space="preserve" text-anchor="middle" x="1511.88" y="-532.24" font-family="Helvetica,sans-Serif" font-size="8.00">BLOCKED Phase 2</text>
</g>
<!-- con_user_0 -->
<g id="node13" class="node">
<title>con_user_0</title>
<ellipse fill="#fff9c4" stroke="black" cx="769" cy="-766.09" rx="39.05" ry="18"/>
<text xml:space="preserve" text-anchor="middle" x="769" y="-762.79" font-family="Helvetica,sans-Serif" font-size="9.00">user_host_0</text>
</g>
<!-- con_user_1 -->
<g id="node14" class="node">
<title>con_user_1</title>
<ellipse fill="#fff9c4" stroke="black" cx="876" cy="-766.09" rx="39.05" ry="18"/>
<text xml:space="preserve" text-anchor="middle" x="876" y="-762.79" font-family="Helvetica,sans-Serif" font-size="9.00">user_host_1</text>
</g>
<!-- con_user_2 -->
<g id="node15" class="node">
<title>con_user_2</title>
<ellipse fill="#fff9c4" stroke="black" cx="983" cy="-766.09" rx="39.05" ry="18"/>
<text xml:space="preserve" text-anchor="middle" x="983" y="-762.79" font-family="Helvetica,sans-Serif" font-size="9.00">user_host_2</text>
</g>
<!-- con_user_3 -->
<g id="node16" class="node">
<title>con_user_3</title>
<ellipse fill="#fff9c4" stroke="black" cx="1090" cy="-766.09" rx="39.05" ry="18"/>
<text xml:space="preserve" text-anchor="middle" x="1090" y="-762.79" font-family="Helvetica,sans-Serif" font-size="9.00">user_host_3</text>
</g>
<!-- con_user_4 -->
<g id="node17" class="node">
<title>con_user_4</title>
<ellipse fill="#fff9c4" stroke="black" cx="1197" cy="-766.09" rx="39.05" ry="18"/>
<text xml:space="preserve" text-anchor="middle" x="1197" y="-762.79" font-family="Helvetica,sans-Serif" font-size="9.00">user_host_4</text>
</g>
<!-- paz_server_0&#45;&gt;rza_server_0 -->
<g id="edge11" class="edge">
<title>paz_server_0&#45;&gt;rza_server_0</title>
<path fill="none" stroke="#333333" d="M302.27,-582.94C302.27,-540.83 302.27,-441 302.27,-441 302.27,-441 296.93,-441 296.93,-441"/>
<polygon fill="#333333" stroke="#333333" points="296.93,-437.5 286.93,-441 296.93,-444.5 296.93,-437.5"/>
<text xml:space="preserve" text-anchor="middle" x="312.75" y="-546.86" font-family="Helvetica,sans-Serif" font-size="8.00">PAZ&lt;&#45;&gt;RZA</text>
<text xml:space="preserve" text-anchor="middle" x="312.75" y="-537.11" font-family="Helvetica,sans-Serif" font-size="8.00">all phases</text>
</g>
<!-- paz_server_0&#45;&gt;rzb_server_0 -->
<g id="edge14" class="edge">
<title>paz_server_0&#45;&gt;rzb_server_0</title>
<path fill="none" stroke="#333333" d="M342.6,-582.96C342.6,-571.15 342.6,-558 342.6,-558 342.6,-558 788.32,-558 788.32,-558 788.32,-558 788.32,-312.8 788.32,-312.8"/>
<polygon fill="#333333" stroke="#333333" points="791.82,-312.8 788.32,-302.8 784.82,-312.8 791.82,-312.8"/>
<text xml:space="preserve" text-anchor="middle" x="685.75" y="-442.99" font-family="Helvetica,sans-Serif" font-size="8.00">PAZ&lt;&#45;&gt;RZB</text>
<text xml:space="preserve" text-anchor="middle" x="685.75" y="-433.24" font-family="Helvetica,sans-Serif" font-size="8.00">all phases</text>
</g>
<!-- paz_user_0 -->
<g id="node19" class="node">
<title>paz_user_0</title>
<ellipse fill="#c8e6c9" stroke="black" cx="439" cy="-601.34" rx="39.05" ry="18"/>
<text xml:space="preserve" text-anchor="middle" x="439" y="-598.04" font-family="Helvetica,sans-Serif" font-size="9.00">user_host_0</text>
</g>
<!-- paz_user_1 -->
<g id="node20" class="node">
<title>paz_user_1</title>
<ellipse fill="#c8e6c9" stroke="black" cx="546" cy="-601.34" rx="39.05" ry="18"/>
<text xml:space="preserve" text-anchor="middle" x="546" y="-598.04" font-family="Helvetica,sans-Serif" font-size="9.00">user_host_1</text>
</g>
<!-- adm_server_0&#45;&gt;rza_server_0 -->
<g id="edge12" class="edge">
<title>adm_server_0&#45;&gt;rza_server_0</title>
<path fill="none" stroke="#333333" d="M619.4,-582.94C619.4,-563 619.4,-534 619.4,-534 619.4,-534 244,-534 244,-534 244,-534 244,-471.2 244,-471.2"/>
<polygon fill="#333333" stroke="#333333" points="247.5,-471.2 244,-461.2 240.5,-471.2 247.5,-471.2"/>
<text xml:space="preserve" text-anchor="middle" x="738.5" y="-546.86" font-family="Helvetica,sans-Serif" font-size="8.00">Admin&lt;&#45;&gt;RZA</text>
<text xml:space="preserve" text-anchor="middle" x="738.5" y="-537.11" font-family="Helvetica,sans-Serif" font-size="8.00">all phases</text>
</g>
<!-- adm_server_0&#45;&gt;rzb_server_0 -->
<g id="edge15" class="edge">
<title>adm_server_0&#45;&gt;rzb_server_0</title>
<path fill="none" stroke="#333333" d="M671.1,-582.9C671.1,-539.59 671.1,-435 671.1,-435 671.1,-435 774.85,-435 774.85,-435 774.85,-435 774.85,-312.57 774.85,-312.57"/>
<polygon fill="#333333" stroke="#333333" points="778.35,-312.57 774.85,-302.57 771.35,-312.57 778.35,-312.57"/>
<text xml:space="preserve" text-anchor="middle" x="823.5" y="-442.99" font-family="Helvetica,sans-Serif" font-size="8.00">Admin&lt;&#45;&gt;RZB</text>
<text xml:space="preserve" text-anchor="middle" x="823.5" y="-433.24" font-family="Helvetica,sans-Serif" font-size="8.00">all phases</text>
</g>
<!-- adm_user_0 -->
<g id="node22" class="node">
<title>adm_user_0</title>
<ellipse fill="#c8e6c9" stroke="black" cx="756" cy="-601.34" rx="39.05" ry="18"/>
<text xml:space="preserve" text-anchor="middle" x="756" y="-598.04" font-family="Helvetica,sans-Serif" font-size="9.00">user_host_0</text>
</g>
<!-- adm_user_1 -->
<g id="node23" class="node">
<title>adm_user_1</title>
<ellipse fill="#c8e6c9" stroke="black" cx="863" cy="-601.34" rx="39.05" ry="18"/>
<text xml:space="preserve" text-anchor="middle" x="863" y="-598.04" font-family="Helvetica,sans-Serif" font-size="9.00">user_host_1</text>
</g>
<!-- adm_user_2 -->
<g id="node24" class="node">
<title>adm_user_2</title>
<ellipse fill="#c8e6c9" stroke="black" cx="970" cy="-601.34" rx="39.05" ry="18"/>
<text xml:space="preserve" text-anchor="middle" x="970" y="-598.04" font-family="Helvetica,sans-Serif" font-size="9.00">user_host_2</text>
</g>
<!-- off_server_0&#45;&gt;rza_server_0 -->
<g id="edge13" class="edge">
<title>off_server_0&#45;&gt;rza_server_0</title>
<path fill="none" stroke="#333333" d="M1044.18,-583.09C1044.18,-556.18 1044.18,-509 1044.18,-509 1044.18,-509 264.31,-509 264.31,-509 264.31,-509 264.31,-471.34 264.31,-471.34"/>
<polygon fill="#333333" stroke="#333333" points="267.81,-471.34 264.31,-461.34 260.81,-471.34 267.81,-471.34"/>
<text xml:space="preserve" text-anchor="middle" x="898.38" y="-546.86" font-family="Helvetica,sans-Serif" font-size="8.00">Office&lt;&#45;&gt;RZA</text>
<text xml:space="preserve" text-anchor="middle" x="898.38" y="-537.11" font-family="Helvetica,sans-Serif" font-size="8.00">all phases</text>
</g>
<!-- off_server_0&#45;&gt;rzb_server_0 -->
<g id="edge16" class="edge">
<title>off_server_0&#45;&gt;rzb_server_0</title>
<path fill="none" stroke="#333333" d="M1050.62,-583C1050.62,-550 1050.62,-484 1050.62,-484 1050.62,-484 833.29,-484 833.29,-484 833.29,-484 833.29,-312.82 833.29,-312.82"/>
<polygon fill="#333333" stroke="#333333" points="836.79,-312.82 833.29,-302.82 829.79,-312.82 836.79,-312.82"/>
<text xml:space="preserve" text-anchor="middle" x="1011.38" y="-442.99" font-family="Helvetica,sans-Serif" font-size="8.00">Office&lt;&#45;&gt;RZB</text>
<text xml:space="preserve" text-anchor="middle" x="1011.38" y="-433.24" font-family="Helvetica,sans-Serif" font-size="8.00">all phases</text>
</g>
<!-- off_user_0 -->
<g id="node26" class="node">
<title>off_user_0</title>
<ellipse fill="#c8e6c9" stroke="black" cx="1180" cy="-601.34" rx="39.05" ry="18"/>
<text xml:space="preserve" text-anchor="middle" x="1180" y="-598.04" font-family="Helvetica,sans-Serif" font-size="9.00">user_host_0</text>
</g>
<!-- off_user_1 -->
<g id="node27" class="node">
<title>off_user_1</title>
<ellipse fill="#c8e6c9" stroke="black" cx="1287" cy="-601.34" rx="39.05" ry="18"/>
<text xml:space="preserve" text-anchor="middle" x="1287" y="-598.04" font-family="Helvetica,sans-Serif" font-size="9.00">user_host_1</text>
</g>
<!-- off_user_2 -->
<g id="node28" class="node">
<title>off_user_2</title>
<ellipse fill="#c8e6c9" stroke="black" cx="1394" cy="-601.34" rx="39.05" ry="18"/>
<text xml:space="preserve" text-anchor="middle" x="1394" y="-598.04" font-family="Helvetica,sans-Serif" font-size="9.00">user_host_2</text>
</g>
<!-- oza_server_0 -->
<g id="node33" class="node">
<title>oza_server_0</title>
<polygon fill="#ff5252" stroke="black" stroke-width="3" points="303.8,-273.14 303.8,-291.53 262.32,-304.53 203.68,-304.53 162.2,-291.53 162.2,-273.14 203.68,-260.14 262.32,-260.14 303.8,-273.14"/>
<polygon fill="none" stroke="black" stroke-width="3" points="307.8,-270.21 307.8,-294.47 262.94,-308.53 203.06,-308.53 158.2,-294.47 158.2,-270.21 203.06,-256.14 262.94,-256.14 307.8,-270.21"/>
<text xml:space="preserve" text-anchor="middle" x="233" y="-284.29" font-family="Helvetica,sans-Serif" font-size="9.00" fill="white">server_host_0</text>
<text xml:space="preserve" text-anchor="middle" x="233" y="-273.79" font-family="Helvetica,sans-Serif" font-size="9.00" fill="white">(IMPACT TARGET)</text>
</g>
<!-- rza_server_0&#45;&gt;oza_server_0 -->
<g id="edge17" class="edge">
<title>rza_server_0&#45;&gt;oza_server_0</title>
<path fill="none" stroke="#f44336" stroke-width="2" d="M230.46,-422.03C230.46,-422.03 230.46,-322.91 230.46,-322.91"/>
<polygon fill="#f44336" stroke="#f44336" stroke-width="2" points="233.96,-322.91 230.46,-312.91 226.96,-322.91 233.96,-322.91"/>
<text xml:space="preserve" text-anchor="middle" x="271.88" y="-393.24" font-family="Helvetica,sans-Serif" font-size="8.00">RZA&lt;&#45;&gt;OZA</text>
<text xml:space="preserve" text-anchor="middle" x="271.88" y="-383.49" font-family="Helvetica,sans-Serif" font-size="8.00">Phase 0,2 only</text>
<text xml:space="preserve" text-anchor="middle" x="271.88" y="-373.74" font-family="Helvetica,sans-Serif" font-size="8.00">BLOCKED Phase 1</text>
</g>
<!-- rza_server_0&#45;&gt;rzb_server_0 -->
<g id="edge21" class="edge">
<title>rza_server_0&#45;&gt;rzb_server_0</title>
<path fill="none" stroke="#ff9800" stroke-dasharray="5,2" d="M257.54,-421.95C257.54,-399.78 257.54,-366 257.54,-366 257.54,-366 768.11,-366 768.11,-366 768.11,-366 768.11,-312.83 768.11,-312.83"/>
<polygon fill="#ff9800" stroke="#ff9800" points="771.61,-312.83 768.11,-302.83 764.61,-312.83 771.61,-312.83"/>
<text xml:space="preserve" text-anchor="middle" x="492.25" y="-393.24" font-family="Helvetica,sans-Serif" font-size="8.00">RZA&lt;&#45;&gt;RZB</text>
<text xml:space="preserve" text-anchor="middle" x="492.25" y="-383.49" font-family="Helvetica,sans-Serif" font-size="8.00">Phase 0 only</text>
<text xml:space="preserve" text-anchor="middle" x="492.25" y="-373.74" font-family="Helvetica,sans-Serif" font-size="8.00">BLOCKED Phase 1,2</text>
</g>
<!-- rza_user_0 -->
<g id="node30" class="node">
<title>rza_user_0</title>
<ellipse fill="#ffe0b2" stroke="black" cx="353" cy="-440.84" rx="39.05" ry="18"/>
<text xml:space="preserve" text-anchor="middle" x="353" y="-437.54" font-family="Helvetica,sans-Serif" font-size="9.00">user_host_0</text>
</g>
<!-- rza_user_1 -->
<g id="node31" class="node">
<title>rza_user_1</title>
<ellipse fill="#ffe0b2" stroke="black" cx="460" cy="-440.84" rx="39.05" ry="18"/>
<text xml:space="preserve" text-anchor="middle" x="460" y="-437.54" font-family="Helvetica,sans-Serif" font-size="9.00">user_host_1</text>
</g>
<!-- rza_user_2 -->
<g id="node32" class="node">
<title>rza_user_2</title>
<ellipse fill="#ffe0b2" stroke="black" cx="567" cy="-440.84" rx="39.05" ry="18"/>
<text xml:space="preserve" text-anchor="middle" x="567" y="-437.54" font-family="Helvetica,sans-Serif" font-size="9.00">user_host_2</text>
</g>
<!-- oza_server_1 -->
<g id="node34" class="node">
<title>oza_server_1</title>
<polygon fill="#ef9a9a" stroke="black" points="411.25,-300.34 336.75,-300.34 336.75,-264.34 411.25,-264.34 411.25,-300.34"/>
<text xml:space="preserve" text-anchor="middle" x="374" y="-279.04" font-family="Helvetica,sans-Serif" font-size="9.00">server_host_1</text>
</g>
<!-- oza_user_0 -->
<g id="node35" class="node">
<title>oza_user_0</title>
<ellipse fill="#ffcdd2" stroke="black" cx="479" cy="-282.34" rx="39.05" ry="18"/>
<text xml:space="preserve" text-anchor="middle" x="479" y="-279.04" font-family="Helvetica,sans-Serif" font-size="9.00">user_host_0</text>
</g>
<!-- oza_user_1 -->
<g id="node36" class="node">
<title>oza_user_1</title>
<ellipse fill="#ffcdd2" stroke="black" cx="586" cy="-282.34" rx="39.05" ry="18"/>
<text xml:space="preserve" text-anchor="middle" x="586" y="-279.04" font-family="Helvetica,sans-Serif" font-size="9.00">user_host_1</text>
</g>
<!-- oza_user_2 -->
<g id="node37" class="node">
<title>oza_user_2</title>
<ellipse fill="#ffcdd2" stroke="black" cx="693" cy="-282.34" rx="39.05" ry="18"/>
<text xml:space="preserve" text-anchor="middle" x="693" y="-279.04" font-family="Helvetica,sans-Serif" font-size="9.00">user_host_2</text>
</g>
<!-- ozb_server_0 -->
<g id="node42" class="node">
<title>ozb_server_0</title>
<polygon fill="#2196f3" stroke="black" stroke-width="3" points="872.8,-114 872.8,-132.39 831.32,-145.39 772.68,-145.39 731.2,-132.39 731.2,-114 772.68,-101 831.32,-101 872.8,-114"/>
<polygon fill="none" stroke="black" stroke-width="3" points="876.8,-111.06 876.8,-135.33 831.94,-149.39 772.06,-149.39 727.2,-135.33 727.2,-111.06 772.06,-97 831.94,-97 876.8,-111.06"/>
<text xml:space="preserve" text-anchor="middle" x="802" y="-125.15" font-family="Helvetica,sans-Serif" font-size="9.00" fill="white">server_host_0</text>
<text xml:space="preserve" text-anchor="middle" x="802" y="-114.65" font-family="Helvetica,sans-Serif" font-size="9.00" fill="white">(IMPACT TARGET)</text>
</g>
<!-- rzb_server_0&#45;&gt;ozb_server_0 -->
<g id="edge18" class="edge">
<title>rzb_server_0&#45;&gt;ozb_server_0</title>
<path fill="none" stroke="#2196f3" stroke-width="2" d="M802,-263.46C802,-263.46 802,-163.88 802,-163.88"/>
<polygon fill="#2196f3" stroke="#2196f3" stroke-width="2" points="805.5,-163.88 802,-153.88 798.5,-163.88 805.5,-163.88"/>
<text xml:space="preserve" text-anchor="middle" x="836.88" y="-226.54" font-family="Helvetica,sans-Serif" font-size="8.00">RZB&lt;&#45;&gt;OZB</text>
<text xml:space="preserve" text-anchor="middle" x="836.88" y="-216.79" font-family="Helvetica,sans-Serif" font-size="8.00">Phase 0,1 only</text>
<text xml:space="preserve" text-anchor="middle" x="836.88" y="-207.04" font-family="Helvetica,sans-Serif" font-size="8.00">BLOCKED Phase 2</text>
</g>
<!-- rzb_user_0 -->
<g id="node39" class="node">
<title>rzb_user_0</title>
<ellipse fill="#e1bee7" stroke="black" cx="911" cy="-282.34" rx="39.05" ry="18"/>
<text xml:space="preserve" text-anchor="middle" x="911" y="-279.04" font-family="Helvetica,sans-Serif" font-size="9.00">user_host_0</text>
</g>
<!-- rzb_user_1 -->
<g id="node40" class="node">
<title>rzb_user_1</title>
<ellipse fill="#e1bee7" stroke="black" cx="1018" cy="-282.34" rx="39.05" ry="18"/>
<text xml:space="preserve" text-anchor="middle" x="1018" y="-279.04" font-family="Helvetica,sans-Serif" font-size="9.00">user_host_1</text>
</g>
<!-- rzb_user_2 -->
<g id="node41" class="node">
<title>rzb_user_2</title>
<ellipse fill="#e1bee7" stroke="black" cx="1125" cy="-282.34" rx="39.05" ry="18"/>
<text xml:space="preserve" text-anchor="middle" x="1125" y="-279.04" font-family="Helvetica,sans-Serif" font-size="9.00">user_host_2</text>
</g>
<!-- ozb_server_1 -->
<g id="node43" class="node">
<title>ozb_server_1</title>
<polygon fill="#90caf9" stroke="black" points="980.25,-141.2 905.75,-141.2 905.75,-105.2 980.25,-105.2 980.25,-141.2"/>
<text xml:space="preserve" text-anchor="middle" x="943" y="-119.9" font-family="Helvetica,sans-Serif" font-size="9.00">server_host_1</text>
</g>
<!-- ozb_user_0 -->
<g id="node44" class="node">
<title>ozb_user_0</title>
<ellipse fill="#bbdefb" stroke="black" cx="1048" cy="-123.2" rx="39.05" ry="18"/>
<text xml:space="preserve" text-anchor="middle" x="1048" y="-119.9" font-family="Helvetica,sans-Serif" font-size="9.00">user_host_0</text>
</g>
<!-- ozb_user_1 -->
<g id="node45" class="node">
<title>ozb_user_1</title>
<ellipse fill="#bbdefb" stroke="black" cx="1155" cy="-123.2" rx="39.05" ry="18"/>
<text xml:space="preserve" text-anchor="middle" x="1155" y="-119.9" font-family="Helvetica,sans-Serif" font-size="9.00">user_host_1</text>
</g>
<!-- ozb_user_2 -->
<g id="node46" class="node">
<title>ozb_user_2</title>
<ellipse fill="#bbdefb" stroke="black" cx="1262" cy="-123.2" rx="39.05" ry="18"/>
<text xml:space="preserve" text-anchor="middle" x="1262" y="-119.9" font-family="Helvetica,sans-Serif" font-size="9.00">user_host_2</text>
</g>
</g>
</svg>
