<?xml version="1.0" encoding="UTF-8" standalone="no"?>
<!DOCTYPE svg PUBLIC "-//W3C//DTD SVG 1.1//EN"
 "http://www.w3.org/Graphics/SVG/1.1/DTD/svg11.dtd">
<!-- Generated by graphviz version 14.1.4 (20260321.0153)
 -->
<!-- Title: OracleVsHeuristic Pages: 1 -->
<svg width="1097pt" height="1098pt"
 viewBox="0.00 0.00 1097.00 1098.00" xmlns="http://www.w3.org/2000/svg" xmlns:xlink="http://www.w3.org/1999/xlink">
<g id="graph0" class="graph" transform="scale(1 1) rotate(0) translate(4 1094.11)">
<title>OracleVsHeuristic</title>
<polygon fill="white" stroke="none" points="-4,4 -4,-1094.11 1093,-1094.11 1093,4 -4,4"/>
<text xml:space="preserve" text-anchor="middle" x="544.5" y="-1072.81" font-family="Helvetica,sans-Serif" font-size="14.00">Oracle vs Heuristic Agent Decision Comparison</text>
<text xml:space="preserve" text-anchor="middle" x="544.5" y="-1057.06" font-family="Helvetica,sans-Serif" font-size="14.00">Oracle: Remove&#45;first (cheaper) | Heuristic: Restore&#45;first (safer)</text>
<g id="clust1" class="cluster">
<title>cluster_oracle</title>
<path fill="#e8f5e9" stroke="black" d="M20,-110.68C20,-110.68 274,-110.68 274,-110.68 280,-110.68 286,-116.68 286,-122.68 286,-122.68 286,-810.87 286,-810.87 286,-816.87 280,-822.87 274,-822.87 274,-822.87 20,-822.87 20,-822.87 14,-822.87 8,-816.87 8,-810.87 8,-810.87 8,-122.68 8,-122.68 8,-116.68 14,-110.68 20,-110.68"/>
<text xml:space="preserve" text-anchor="middle" x="147" y="-807.47" font-family="Helvetica,sans-Serif" font-size="12.00">ORACLE AGENT (Perfect Information)</text>
</g>
<g id="clust2" class="cluster">
<title>cluster_heuristic</title>
<path fill="#ffebee" stroke="black" d="M306,-8C306,-8 637,-8 637,-8 643,-8 649,-14 649,-20 649,-20 649,-810.87 649,-810.87 649,-816.87 643,-822.87 637,-822.87 637,-822.87 306,-822.87 306,-822.87 300,-822.87 294,-816.87 294,-810.87 294,-810.87 294,-20 294,-20 294,-14 300,-8 306,-8"/>
<text xml:space="preserve" text-anchor="middle" x="471.5" y="-807.47" font-family="Helvetica,sans-Serif" font-size="12.00">HEURISTIC AGENT (Observation Only)</text>
</g>
<g id="clust3" class="cluster">
<title>cluster_divergence</title>
<path fill="#f3e5f5" stroke="black" d="M669,-574.86C669,-574.86 1069,-574.86 1069,-574.86 1075,-574.86 1081,-580.86 1081,-586.86 1081,-586.86 1081,-1030.61 1081,-1030.61 1081,-1036.61 1075,-1042.61 1069,-1042.61 1069,-1042.61 669,-1042.61 669,-1042.61 663,-1042.61 657,-1036.61 657,-1030.61 657,-1030.61 657,-586.86 657,-586.86 657,-580.86 663,-574.86 669,-574.86"/>
<text xml:space="preserve" text-anchor="middle" x="869" y="-1025.31" font-family="Helvetica,sans-Serif" font-size="14.00">KEY DIVERGENCES</text>
</g>
<!-- scenario -->
<g id="node1" class="node">
<title>scenario</title>
<polygon fill="#fff9c4" stroke="black" points="387.88,-966.61 196.12,-966.61 196.12,-915.11 393.88,-915.11 393.88,-960.61 387.88,-966.61"/>
<polyline fill="none" stroke="black" points="387.88,-966.61 387.88,-960.61"/>
<polyline fill="none" stroke="black" points="393.88,-960.61 387.88,-960.61"/>
<text xml:space="preserve" text-anchor="start" x="214.38" y="-953.06" font-family="Helvetica,sans-Serif" font-weight="bold" font-size="9.00">Same Scenario: Red detected on host</text>
<text xml:space="preserve" text-anchor="start" x="221.88" y="-937.86" font-family="Helvetica,sans-Serif" font-size="9.00">conn_flag=1, proc_flag=1, malfile=0</text>
<text xml:space="preserve" text-anchor="start" x="206.12" y="-923.36" font-family="Helvetica,sans-Serif" font-size="9.00">Host in operational_zone_a, Phase 1 active</text>
</g>
<!-- o_start -->
<g id="node2" class="node">
<title>o_start</title>
<ellipse fill="#a5d6a7" stroke="black" cx="210" cy="-772.11" rx="67" ry="20.51"/>
<text xml:space="preserve" text-anchor="middle" x="210" y="-774.06" font-family="Helvetica,sans-Serif" font-size="9.00">Read Ground Truth</text>
<text xml:space="preserve" text-anchor="middle" x="210" y="-763.56" font-family="Helvetica,sans-Serif" font-size="9.00">(simulator state)</text>
</g>
<!-- scenario&#45;&gt;o_start -->
<g id="edge21" class="edge">
<title>scenario&#45;&gt;o_start</title>
<path fill="none" stroke="#666666" stroke-dasharray="5,2" d="M282.27,-914.9C267,-884.94 241.43,-834.76 225.15,-802.84"/>
<polygon fill="#666666" stroke="#666666" points="228.36,-801.43 220.7,-794.11 222.13,-804.61 228.36,-801.43"/>
</g>
<!-- h_start -->
<g id="node11" class="node">
<title>h_start</title>
<ellipse fill="#ffcdd2" stroke="black" cx="382" cy="-772.11" rx="80.26" ry="20.51"/>
<text xml:space="preserve" text-anchor="middle" x="382" y="-774.06" font-family="Helvetica,sans-Serif" font-size="9.00">Read Observation</text>
<text xml:space="preserve" text-anchor="middle" x="382" y="-763.56" font-family="Helvetica,sans-Serif" font-size="9.00">(conn/proc/malfile flags)</text>
</g>
<!-- scenario&#45;&gt;h_start -->
<g id="edge22" class="edge">
<title>scenario&#45;&gt;h_start</title>
<path fill="none" stroke="#666666" stroke-dasharray="5,2" d="M308.02,-914.9C323.65,-884.94 349.83,-834.76 366.49,-802.84"/>
<polygon fill="#666666" stroke="#666666" points="369.52,-804.59 371.05,-794.1 363.32,-801.35 369.52,-804.59"/>
</g>
<!-- o_q1 -->
<g id="node3" class="node">
<title>o_q1</title>
<polygon fill="#c8e6c9" stroke="black" points="209,-657.11 139.75,-628.11 209,-599.11 278.25,-628.11 209,-657.11"/>
<text xml:space="preserve" text-anchor="middle" x="209" y="-630.06" font-family="Helvetica,sans-Serif" font-size="9.00">Root session</text>
<text xml:space="preserve" text-anchor="middle" x="209" y="-619.56" font-family="Helvetica,sans-Serif" font-size="9.00">present?</text>
</g>
<!-- o_start&#45;&gt;o_q1 -->
<g id="edge1" class="edge">
<title>o_start&#45;&gt;o_q1</title>
<path fill="none" stroke="black" d="M209.86,-751.37C209.71,-730.12 209.47,-695.77 209.28,-668.89"/>
<polygon fill="black" stroke="black" points="212.78,-668.99 209.21,-659.02 205.78,-669.04 212.78,-668.99"/>
</g>
<!-- o_restore -->
<g id="node4" class="node">
<title>o_restore</title>
<ellipse fill="#ff6b6b" stroke="black" cx="82" cy="-498.36" rx="65.94" ry="27.93"/>
<text xml:space="preserve" text-anchor="middle" x="82" y="-505.56" font-family="Helvetica,sans-Serif" font-size="9.00">RESTORE</text>
<text xml:space="preserve" text-anchor="middle" x="82" y="-495.06" font-family="Helvetica,sans-Serif" font-size="9.00">(&#45;1 cost, 5 steps)</text>
<text xml:space="preserve" text-anchor="middle" x="82" y="-484.56" font-family="Helvetica,sans-Serif" font-size="9.00">Only option for root</text>
</g>
<!-- o_q1&#45;&gt;o_restore -->
<g id="edge2" class="edge">
<title>o_q1&#45;&gt;o_restore</title>
<path fill="none" stroke="black" d="M189.16,-607.15C169.31,-587.19 138.44,-556.14 114.92,-532.48"/>
<polygon fill="black" stroke="black" points="117.54,-530.15 108.01,-525.52 112.57,-535.08 117.54,-530.15"/>
<text xml:space="preserve" text-anchor="middle" x="172.88" y="-557.26" font-family="Helvetica,sans-Serif" font-size="8.00">YES</text>
<text xml:space="preserve" text-anchor="middle" x="172.88" y="-547.51" font-family="Helvetica,sans-Serif" font-size="8.00">(knows exactly)</text>
</g>
<!-- o_q2 -->
<g id="node5" class="node">
<title>o_q2</title>
<polygon fill="#c8e6c9" stroke="black" points="222,-527.36 166.25,-498.36 222,-469.36 277.75,-498.36 222,-527.36"/>
<text xml:space="preserve" text-anchor="middle" x="222" y="-500.31" font-family="Helvetica,sans-Serif" font-size="9.00">User&#45;only</text>
<text xml:space="preserve" text-anchor="middle" x="222" y="-489.81" font-family="Helvetica,sans-Serif" font-size="9.00">session?</text>
</g>
<!-- o_q1&#45;&gt;o_q2 -->
<g id="edge3" class="edge">
<title>o_q1&#45;&gt;o_q2</title>
<path fill="none" stroke="black" d="M211.76,-600.02C213.6,-581.9 216.06,-557.78 218.1,-537.7"/>
<polygon fill="black" stroke="black" points="221.56,-538.22 219.09,-527.92 214.6,-537.51 221.56,-538.22"/>
<text xml:space="preserve" text-anchor="middle" x="223.05" y="-552.39" font-family="Helvetica,sans-Serif" font-size="8.00">NO</text>
</g>
<!-- o_remove -->
<g id="node6" class="node">
<title>o_remove</title>
<ellipse fill="#81c784" stroke="black" cx="94" cy="-364.61" rx="64.88" ry="27.93"/>
<text xml:space="preserve" text-anchor="middle" x="94" y="-371.81" font-family="Helvetica,sans-Serif" font-size="9.00">REMOVE first</text>
<text xml:space="preserve" text-anchor="middle" x="94" y="-361.31" font-family="Helvetica,sans-Serif" font-size="9.00">(0 cost, 3 steps)</text>
<text xml:space="preserve" text-anchor="middle" x="94" y="-350.81" font-family="Helvetica,sans-Serif" font-size="9.00">Kills user sessions</text>
</g>
<!-- o_q2&#45;&gt;o_remove -->
<g id="edge4" class="edge">
<title>o_q2&#45;&gt;o_remove</title>
<path fill="none" stroke="black" d="M201.9,-479.36C192.77,-471.01 181.92,-460.85 172.5,-451.36 156.06,-434.8 138.47,-415.71 124.11,-399.76"/>
<polygon fill="black" stroke="black" points="126.78,-397.49 117.5,-392.38 121.56,-402.16 126.78,-397.49"/>
<text xml:space="preserve" text-anchor="middle" x="195.75" y="-438.89" font-family="Helvetica,sans-Serif" font-size="8.00">YES</text>
<text xml:space="preserve" text-anchor="middle" x="195.75" y="-429.14" font-family="Helvetica,sans-Serif" font-size="8.00">(knows level)</text>
</g>
<!-- o_no_red -->
<g id="node10" class="node">
<title>o_no_red</title>
<ellipse fill="#e0e0e0" stroke="black" cx="226" cy="-364.61" rx="48.97" ry="27.93"/>
<text xml:space="preserve" text-anchor="middle" x="226" y="-371.81" font-family="Helvetica,sans-Serif" font-size="9.00">No red found</text>
<text xml:space="preserve" text-anchor="middle" x="226" y="-361.31" font-family="Helvetica,sans-Serif" font-size="9.00">(green FP)</text>
<text xml:space="preserve" text-anchor="middle" x="226" y="-350.81" font-family="Helvetica,sans-Serif" font-size="9.00">SLEEP</text>
</g>
<!-- o_q2&#45;&gt;o_no_red -->
<g id="edge5" class="edge">
<title>o_q2&#45;&gt;o_no_red</title>
<path fill="none" stroke="black" d="M222.85,-469.42C223.43,-450.39 224.2,-424.95 224.83,-404.02"/>
<polygon fill="black" stroke="black" points="228.33,-404.23 225.13,-394.12 221.33,-404.01 228.33,-404.23"/>
<text xml:space="preserve" text-anchor="middle" x="248.61" y="-443.76" font-family="Helvetica,sans-Serif" font-size="8.00">NO red</text>
<text xml:space="preserve" text-anchor="middle" x="248.61" y="-434.01" font-family="Helvetica,sans-Serif" font-size="8.00">(perfect info</text>
<text xml:space="preserve" text-anchor="middle" x="248.61" y="-424.26" font-family="Helvetica,sans-Serif" font-size="8.00">skips all FPs!)</text>
</g>
<!-- o_q3 -->
<g id="node7" class="node">
<title>o_q3</title>
<polygon fill="#c8e6c9" stroke="black" points="94,-279.36 18,-250.36 94,-221.36 170,-250.36 94,-279.36"/>
<text xml:space="preserve" text-anchor="middle" x="94" y="-252.31" font-family="Helvetica,sans-Serif" font-size="9.00">Red returns</text>
<text xml:space="preserve" text-anchor="middle" x="94" y="-241.81" font-family="Helvetica,sans-Serif" font-size="9.00">after Remove?</text>
</g>
<!-- o_remove&#45;&gt;o_q3 -->
<g id="edge6" class="edge">
<title>o_remove&#45;&gt;o_q3</title>
<path fill="none" stroke="black" d="M94,-336.44C94,-322.79 94,-305.99 94,-290.94"/>
<polygon fill="black" stroke="black" points="97.5,-291.36 94,-281.36 90.5,-291.36 97.5,-291.36"/>
</g>
<!-- o_escalate -->
<g id="node8" class="node">
<title>o_escalate</title>
<ellipse fill="#ff6b6b" stroke="black" cx="74" cy="-146.61" rx="42.07" ry="20.51"/>
<text xml:space="preserve" text-anchor="middle" x="74" y="-148.56" font-family="Helvetica,sans-Serif" font-size="9.00">RESTORE</text>
<text xml:space="preserve" text-anchor="middle" x="74" y="-138.06" font-family="Helvetica,sans-Serif" font-size="9.00">(escalate)</text>
</g>
<!-- o_q3&#45;&gt;o_escalate -->
<g id="edge7" class="edge">
<title>o_q3&#45;&gt;o_escalate</title>
<path fill="none" stroke="black" d="M88.8,-222.89C86.14,-209.37 82.89,-192.83 80.11,-178.7"/>
<polygon fill="black" stroke="black" points="83.57,-178.14 78.2,-169 76.7,-179.49 83.57,-178.14"/>
<text xml:space="preserve" text-anchor="middle" x="92.47" y="-195.76" font-family="Helvetica,sans-Serif" font-size="8.00">YES</text>
</g>
<!-- o_done -->
<g id="node9" class="node">
<title>o_done</title>
<ellipse fill="#a5d6a7" stroke="black" cx="198" cy="-146.61" rx="64.35" ry="27.93"/>
<text xml:space="preserve" text-anchor="middle" x="198" y="-153.81" font-family="Helvetica,sans-Serif" font-size="9.00">CLEAN</text>
<text xml:space="preserve" text-anchor="middle" x="198" y="-143.31" font-family="Helvetica,sans-Serif" font-size="9.00">(Remove worked!)</text>
<text xml:space="preserve" text-anchor="middle" x="198" y="-132.81" font-family="Helvetica,sans-Serif" font-size="9.00">Saved &#45;1 cost</text>
</g>
<!-- o_q3&#45;&gt;o_done -->
<g id="edge8" class="edge">
<title>o_q3&#45;&gt;o_done</title>
<path fill="none" stroke="black" d="M114.55,-229.26C128.89,-215.22 148.36,-196.18 164.88,-180.02"/>
<polygon fill="black" stroke="black" points="166.93,-182.9 171.63,-173.41 162.04,-177.9 166.93,-182.9"/>
<text xml:space="preserve" text-anchor="middle" x="155.12" y="-195.76" font-family="Helvetica,sans-Serif" font-size="8.00">NO</text>
</g>
<!-- h_q1 -->
<g id="node12" class="node">
<title>h_q1</title>
<polygon fill="#ffcdd2" stroke="black" points="382,-657.11 306,-628.11 382,-599.11 458,-628.11 382,-657.11"/>
<text xml:space="preserve" text-anchor="middle" x="382" y="-630.06" font-family="Helvetica,sans-Serif" font-size="9.00">conn + (malfile</text>
<text xml:space="preserve" text-anchor="middle" x="382" y="-619.56" font-family="Helvetica,sans-Serif" font-size="9.00">OR proc)?</text>
</g>
<!-- h_start&#45;&gt;h_q1 -->
<g id="edge9" class="edge">
<title>h_start&#45;&gt;h_q1</title>
<path fill="none" stroke="black" d="M382,-751.37C382,-730.12 382,-695.77 382,-668.89"/>
<polygon fill="black" stroke="black" points="385.5,-669.02 382,-659.02 378.5,-669.02 385.5,-669.02"/>
</g>
<!-- h_restore -->
<g id="node13" class="node">
<title>h_restore</title>
<ellipse fill="#ff6b6b" stroke="black" cx="380" cy="-364.61" rx="77.6" ry="35.36"/>
<text xml:space="preserve" text-anchor="middle" x="380" y="-377.06" font-family="Helvetica,sans-Serif" font-size="9.00">RESTORE</text>
<text xml:space="preserve" text-anchor="middle" x="380" y="-366.56" font-family="Helvetica,sans-Serif" font-size="9.00">immediate!</text>
<text xml:space="preserve" text-anchor="middle" x="380" y="-356.06" font-family="Helvetica,sans-Serif" font-size="9.00">(&#45;1 cost, 5 steps)</text>
<text xml:space="preserve" text-anchor="middle" x="380" y="-345.56" font-family="Helvetica,sans-Serif" font-size="9.00">Cannot tell user vs root</text>
</g>
<!-- h_q1&#45;&gt;h_restore -->
<g id="edge10" class="edge">
<title>h_q1&#45;&gt;h_restore</title>
<path fill="none" stroke="black" d="M381.78,-598.88C381.44,-553.97 380.77,-465.82 380.35,-411.67"/>
<polygon fill="black" stroke="black" points="383.85,-411.82 380.28,-401.85 376.85,-411.88 383.85,-411.82"/>
<text xml:space="preserve" text-anchor="middle" x="415.73" y="-510.26" font-family="Helvetica,sans-Serif" font-size="8.00">YES</text>
<text xml:space="preserve" text-anchor="middle" x="415.73" y="-500.51" font-family="Helvetica,sans-Serif" font-size="8.00">CONFIRMED RED</text>
<text xml:space="preserve" text-anchor="middle" x="415.73" y="-490.76" font-family="Helvetica,sans-Serif" font-size="8.00">(cannot determine</text>
<text xml:space="preserve" text-anchor="middle" x="415.73" y="-481.01" font-family="Helvetica,sans-Serif" font-size="8.00">user vs root)</text>
</g>
<!-- h_q2 -->
<g id="node14" class="node">
<title>h_q2</title>
<polygon fill="#ffcdd2" stroke="black" points="551,-527.36 466.75,-498.36 551,-469.36 635.25,-498.36 551,-527.36"/>
<text xml:space="preserve" text-anchor="middle" x="551" y="-500.31" font-family="Helvetica,sans-Serif" font-size="9.00">proc only?</text>
<text xml:space="preserve" text-anchor="middle" x="551" y="-489.81" font-family="Helvetica,sans-Serif" font-size="9.00">(no conn/malfile)</text>
</g>
<!-- h_q1&#45;&gt;h_q2 -->
<g id="edge11" class="edge">
<title>h_q1&#45;&gt;h_q2</title>
<path fill="none" stroke="black" d="M406.94,-608.26C435.77,-586.47 483.42,-550.45 515.97,-525.84"/>
<polygon fill="black" stroke="black" points="518.05,-528.65 523.92,-519.83 513.83,-523.07 518.05,-528.65"/>
<text xml:space="preserve" text-anchor="middle" x="492.61" y="-552.39" font-family="Helvetica,sans-Serif" font-size="8.00">NO</text>
</g>
<!-- h_q2&#45;&gt;h_restore -->
<g id="edge18" class="edge">
<title>h_q2&#45;&gt;h_restore</title>
<path fill="none" stroke="black" stroke-dasharray="5,2" d="M525.77,-477.92C500.04,-458.1 459.49,-426.86 427.69,-402.35"/>
<polygon fill="black" stroke="black" points="430.22,-399.89 420.17,-396.56 425.95,-405.43 430.22,-399.89"/>
<text xml:space="preserve" text-anchor="middle" x="515.56" y="-438.89" font-family="Helvetica,sans-Serif" font-size="8.00">conn&#45;only</text>
<text xml:space="preserve" text-anchor="middle" x="515.56" y="-429.14" font-family="Helvetica,sans-Serif" font-size="8.00">or malfile&#45;only</text>
</g>
<!-- h_tier -->
<g id="node15" class="node">
<title>h_tier</title>
<polygon fill="#ffe082" stroke="black" points="558,-404.11 475.25,-364.61 558,-325.11 640.75,-364.61 558,-404.11"/>
<text xml:space="preserve" text-anchor="middle" x="558" y="-371.81" font-family="Helvetica,sans-Serif" font-size="9.00">Check upstream</text>
<text xml:space="preserve" text-anchor="middle" x="558" y="-361.31" font-family="Helvetica,sans-Serif" font-size="9.00">messages for</text>
<text xml:space="preserve" text-anchor="middle" x="558" y="-350.81" font-family="Helvetica,sans-Serif" font-size="9.00">escalation tier</text>
</g>
<!-- h_q2&#45;&gt;h_tier -->
<g id="edge12" class="edge">
<title>h_q2&#45;&gt;h_tier</title>
<path fill="none" stroke="black" d="M552.48,-469.42C553.32,-453.61 554.4,-433.37 555.38,-414.97"/>
<polygon fill="black" stroke="black" points="558.87,-415.19 555.91,-405.02 551.88,-414.82 558.87,-415.19"/>
<text xml:space="preserve" text-anchor="middle" x="562.79" y="-434.01" font-family="Helvetica,sans-Serif" font-size="8.00">YES</text>
</g>
<!-- h_t3 -->
<g id="node16" class="node">
<title>h_t3</title>
<ellipse fill="#ff6b6b" stroke="black" cx="418" cy="-250.36" rx="62.23" ry="20.51"/>
<text xml:space="preserve" text-anchor="middle" x="418" y="-252.31" font-family="Helvetica,sans-Serif" font-size="9.00">T3: red_count&gt;=3</text>
<text xml:space="preserve" text-anchor="middle" x="418" y="-241.81" font-family="Helvetica,sans-Serif" font-size="9.00">RESTORE now!</text>
</g>
<!-- h_tier&#45;&gt;h_t3 -->
<g id="edge13" class="edge">
<title>h_tier&#45;&gt;h_t3</title>
<path fill="none" stroke="black" d="M527.62,-339.25C504.62,-320.81 473.11,-295.54 449.77,-276.83"/>
<polygon fill="black" stroke="black" points="452.12,-274.23 442.13,-270.71 447.74,-279.69 452.12,-274.23"/>
<text xml:space="preserve" text-anchor="middle" x="488.68" y="-299.51" font-family="Helvetica,sans-Serif" font-size="8.00">T3</text>
</g>
<!-- h_remove -->
<g id="node17" class="node">
<title>h_remove</title>
<ellipse fill="#ffab40" stroke="black" cx="563" cy="-250.36" rx="64.35" ry="27.93"/>
<text xml:space="preserve" text-anchor="middle" x="563" y="-257.56" font-family="Helvetica,sans-Serif" font-size="9.00">REMOVE first</text>
<text xml:space="preserve" text-anchor="middle" x="563" y="-247.06" font-family="Helvetica,sans-Serif" font-size="9.00">(0 cost, 3 steps)</text>
<text xml:space="preserve" text-anchor="middle" x="563" y="-236.56" font-family="Helvetica,sans-Serif" font-size="9.00">May be green FP...</text>
</g>
<!-- h_tier&#45;&gt;h_remove -->
<g id="edge14" class="edge">
<title>h_tier&#45;&gt;h_remove</title>
<path fill="none" stroke="black" d="M559.69,-325.61C560.2,-314.19 560.76,-301.64 561.27,-290.16"/>
<polygon fill="black" stroke="black" points="564.77,-290.34 561.72,-280.2 557.77,-290.03 564.77,-290.34"/>
<text xml:space="preserve" text-anchor="middle" x="572.95" y="-299.51" font-family="Helvetica,sans-Serif" font-size="8.00">default</text>
</g>
<!-- h_q3 -->
<g id="node18" class="node">
<title>h_q3</title>
<polygon fill="#ffcdd2" stroke="black" points="563,-175.61 487,-146.61 563,-117.61 639,-146.61 563,-175.61"/>
<text xml:space="preserve" text-anchor="middle" x="563" y="-148.56" font-family="Helvetica,sans-Serif" font-size="9.00">Flag persists</text>
<text xml:space="preserve" text-anchor="middle" x="563" y="-138.06" font-family="Helvetica,sans-Serif" font-size="9.00">after Remove?</text>
</g>
<!-- h_remove&#45;&gt;h_q3 -->
<g id="edge15" class="edge">
<title>h_remove&#45;&gt;h_q3</title>
<path fill="none" stroke="black" d="M563,-222.09C563,-211.41 563,-198.94 563,-187.29"/>
<polygon fill="black" stroke="black" points="566.5,-187.53 563,-177.53 559.5,-187.53 566.5,-187.53"/>
</g>
<!-- h_escalate -->
<g id="node19" class="node">
<title>h_escalate</title>
<ellipse fill="#ff6b6b" stroke="black" cx="427" cy="-43.93" rx="63.82" ry="20.51"/>
<text xml:space="preserve" text-anchor="middle" x="427" y="-45.88" font-family="Helvetica,sans-Serif" font-size="9.00">RESTORE</text>
<text xml:space="preserve" text-anchor="middle" x="427" y="-35.38" font-family="Helvetica,sans-Serif" font-size="9.00">(was root session)</text>
</g>
<!-- h_q3&#45;&gt;h_escalate -->
<g id="edge16" class="edge">
<title>h_q3&#45;&gt;h_escalate</title>
<path fill="none" stroke="black" d="M537.74,-126.91C516.04,-110.85 484.57,-87.55 460.72,-69.9"/>
<polygon fill="black" stroke="black" points="463,-67.23 452.88,-64.09 458.84,-72.86 463,-67.23"/>
<text xml:space="preserve" text-anchor="middle" x="506.95" y="-92.01" font-family="Helvetica,sans-Serif" font-size="8.00">YES</text>
</g>
<!-- h_maybe_fp -->
<g id="node20" class="node">
<title>h_maybe_fp</title>
<ellipse fill="#fff9c4" stroke="black" cx="574" cy="-43.93" rx="65.41" ry="27.93"/>
<text xml:space="preserve" text-anchor="middle" x="574" y="-51.13" font-family="Helvetica,sans-Serif" font-size="9.00">Maybe clean</text>
<text xml:space="preserve" text-anchor="middle" x="574" y="-40.63" font-family="Helvetica,sans-Serif" font-size="9.00">(or was FP)</text>
<text xml:space="preserve" text-anchor="middle" x="574" y="-30.13" font-family="Helvetica,sans-Serif" font-size="9.00">33&#45;54% of the time</text>
</g>
<!-- h_q3&#45;&gt;h_maybe_fp -->
<g id="edge17" class="edge">
<title>h_q3&#45;&gt;h_maybe_fp</title>
<path fill="none" stroke="black" d="M565.98,-118.37C567.15,-107.62 568.52,-95.08 569.79,-83.44"/>
<polygon fill="black" stroke="black" points="573.25,-84.02 570.86,-73.7 566.29,-83.26 573.25,-84.02"/>
<text xml:space="preserve" text-anchor="middle" x="574.83" y="-92.01" font-family="Helvetica,sans-Serif" font-size="8.00">NO</text>
</g>
<!-- div1 -->
<g id="node21" class="node">
<title>div1</title>
<polygon fill="#e1bee7" stroke="black" points="1033.75,-1010.86 704.25,-1010.86 704.25,-870.86 1033.75,-870.86 1033.75,-1010.86"/>
<polygon fill="#e1bee7" stroke="none" points="712.25,-874.86 712.25,-1006.86 1025.75,-1006.86 1025.75,-874.86 712.25,-874.86"/>
<polygon fill="none" stroke="black" points="712.25,-990.36 712.25,-1006.86 1025.75,-1006.86 1025.75,-990.36 712.25,-990.36"/>
<text xml:space="preserve" text-anchor="start" x="824.38" y="-996.31" font-family="Helvetica,sans-Serif" font-weight="bold" font-size="9.00">Divergence Analysis</text>
<polygon fill="none" stroke="black" points="712.25,-973.86 712.25,-990.36 799.25,-990.36 799.25,-973.86 712.25,-973.86"/>
<text xml:space="preserve" text-anchor="start" x="740.38" y="-979.81" font-family="Helvetica,sans-Serif" font-weight="bold" font-size="9.00">Aspect</text>
<polygon fill="none" stroke="black" points="799.25,-973.86 799.25,-990.36 900.5,-990.36 900.5,-973.86 799.25,-973.86"/>
<text xml:space="preserve" text-anchor="start" x="835.62" y="-979.81" font-family="Helvetica,sans-Serif" font-weight="bold" font-size="9.00">Oracle</text>
<polygon fill="none" stroke="black" points="900.5,-973.86 900.5,-990.36 1025.75,-990.36 1025.75,-973.86 900.5,-973.86"/>
<text xml:space="preserve" text-anchor="start" x="943.62" y="-979.81" font-family="Helvetica,sans-Serif" font-weight="bold" font-size="9.00">Heuristic</text>
<polygon fill="none" stroke="black" points="712.25,-957.36 712.25,-973.86 799.25,-973.86 799.25,-957.36 712.25,-957.36"/>
<text xml:space="preserve" text-anchor="start" x="726.88" y="-962.61" font-family="Helvetica,sans-Serif" font-size="9.00">User&#45;level red</text>
<polygon fill="none" stroke="black" points="799.25,-957.36 799.25,-973.86 900.5,-973.86 900.5,-957.36 799.25,-957.36"/>
<text xml:space="preserve" text-anchor="start" x="812.38" y="-962.61" font-family="Helvetica,sans-Serif" font-size="9.00">Remove first (free)</text>
<polygon fill="none" stroke="black" points="900.5,-957.36 900.5,-973.86 1025.75,-973.86 1025.75,-957.36 900.5,-957.36"/>
<text xml:space="preserve" text-anchor="start" x="914" y="-962.61" font-family="Helvetica,sans-Serif" font-size="9.00">Restore always (cost &#45;1)</text>
<polygon fill="none" stroke="black" points="712.25,-940.86 712.25,-957.36 799.25,-957.36 799.25,-940.86 712.25,-940.86"/>
<text xml:space="preserve" text-anchor="start" x="715.25" y="-946.11" font-family="Helvetica,sans-Serif" font-size="9.00">Green false positive</text>
<polygon fill="none" stroke="black" points="799.25,-940.86 799.25,-957.36 900.5,-957.36 900.5,-940.86 799.25,-940.86"/>
<text xml:space="preserve" text-anchor="start" x="813.12" y="-946.11" font-family="Helvetica,sans-Serif" font-size="9.00">SKIP (perfect info)</text>
<polygon fill="none" stroke="black" points="900.5,-940.86 900.5,-957.36 1025.75,-957.36 1025.75,-940.86 900.5,-940.86"/>
<text xml:space="preserve" text-anchor="start" x="903.5" y="-946.11" font-family="Helvetica,sans-Serif" font-size="9.00">Remove then maybe Restore</text>
<polygon fill="none" stroke="black" points="712.25,-924.36 712.25,-940.86 799.25,-940.86 799.25,-924.36 712.25,-924.36"/>
<text xml:space="preserve" text-anchor="start" x="726.12" y="-929.61" font-family="Helvetica,sans-Serif" font-size="9.00">Root detection</text>
<polygon fill="none" stroke="black" points="799.25,-924.36 799.25,-940.86 900.5,-940.86 900.5,-924.36 799.25,-924.36"/>
<text xml:space="preserve" text-anchor="start" x="810.12" y="-929.61" font-family="Helvetica,sans-Serif" font-size="9.00">Knows immediately</text>
<polygon fill="none" stroke="black" points="900.5,-924.36 900.5,-940.86 1025.75,-940.86 1025.75,-924.36 900.5,-924.36"/>
<text xml:space="preserve" text-anchor="start" x="923.38" y="-929.61" font-family="Helvetica,sans-Serif" font-size="9.00">Only via malfile flag</text>
<polygon fill="none" stroke="black" points="712.25,-907.86 712.25,-924.36 799.25,-924.36 799.25,-907.86 712.25,-907.86"/>
<text xml:space="preserve" text-anchor="start" x="733.62" y="-913.11" font-family="Helvetica,sans-Serif" font-size="9.00">Action cost</text>
<polygon fill="none" stroke="black" points="799.25,-907.86 799.25,-924.36 900.5,-924.36 900.5,-907.86 799.25,-907.86"/>
<text xml:space="preserve" text-anchor="start" x="802.25" y="-913.11" font-family="Helvetica,sans-Serif" font-size="9.00">Lower (fewer Restores)</text>
<polygon fill="none" stroke="black" points="900.5,-907.86 900.5,-924.36 1025.75,-924.36 1025.75,-907.86 900.5,-907.86"/>
<text xml:space="preserve" text-anchor="start" x="905.75" y="-913.11" font-family="Helvetica,sans-Serif" font-size="9.00">Higher (defensive Restores)</text>
<polygon fill="none" stroke="black" points="712.25,-891.36 712.25,-907.86 799.25,-907.86 799.25,-891.36 712.25,-891.36"/>
<text xml:space="preserve" text-anchor="start" x="742.25" y="-896.61" font-family="Helvetica,sans-Serif" font-size="9.00">Speed</text>
<polygon fill="none" stroke="black" points="799.25,-891.36 799.25,-907.86 900.5,-907.86 900.5,-891.36 799.25,-891.36"/>
<text xml:space="preserve" text-anchor="start" x="805.62" y="-896.61" font-family="Helvetica,sans-Serif" font-size="9.00">Slower (Remove&#45;first)</text>
<polygon fill="none" stroke="black" points="900.5,-891.36 900.5,-907.86 1025.75,-907.86 1025.75,-891.36 900.5,-891.36"/>
<text xml:space="preserve" text-anchor="start" x="907.62" y="-896.61" font-family="Helvetica,sans-Serif" font-size="9.00">Faster (immediate Restore)</text>
<polygon fill="none" stroke="black" points="712.25,-874.86 712.25,-891.36 799.25,-891.36 799.25,-874.86 712.25,-874.86"/>
<text xml:space="preserve" text-anchor="start" x="737.38" y="-880.11" font-family="Helvetica,sans-Serif" font-size="9.00">Miss rate</text>
<polygon fill="none" stroke="black" points="799.25,-874.86 799.25,-891.36 900.5,-891.36 900.5,-874.86 799.25,-874.86"/>
<text xml:space="preserve" text-anchor="start" x="816.5" y="-880.11" font-family="Helvetica,sans-Serif" font-size="9.00">0% (perfect info)</text>
<polygon fill="none" stroke="black" points="900.5,-874.86 900.5,-891.36 1025.75,-891.36 1025.75,-874.86 900.5,-874.86"/>
<text xml:space="preserve" text-anchor="start" x="915.88" y="-880.11" font-family="Helvetica,sans-Serif" font-size="9.00">~5% (invisible exploits)</text>
</g>
<!-- div2 -->
<g id="node22" class="node">
<title>div2</title>
<polygon fill="#d1c4e9" stroke="black" points="1073.12,-833.86 664.88,-833.86 664.88,-710.36 1073.12,-710.36 1073.12,-833.86"/>
<polygon fill="#d1c4e9" stroke="none" points="672.88,-714.36 672.88,-829.86 1065.12,-829.86 1065.12,-714.36 672.88,-714.36"/>
<polygon fill="none" stroke="black" points="672.88,-813.36 672.88,-829.86 1065.12,-829.86 1065.12,-813.36 672.88,-813.36"/>
<text xml:space="preserve" text-anchor="start" x="806.38" y="-819.31" font-family="Helvetica,sans-Serif" font-weight="bold" font-size="9.00">Why Heuristic Wins on Speed</text>
<polygon fill="none" stroke="black" points="672.88,-796.86 672.88,-813.36 782.38,-813.36 782.38,-796.86 672.88,-796.86"/>
<text xml:space="preserve" text-anchor="start" x="675.88" y="-802.11" font-family="Helvetica,sans-Serif" font-size="9.00">Oracle Remove&#45;first path:</text>
<polygon fill="none" stroke="black" points="782.38,-796.86 782.38,-813.36 1065.12,-813.36 1065.12,-796.86 782.38,-796.86"/>
<text xml:space="preserve" text-anchor="start" x="785.38" y="-802.11" font-family="Helvetica,sans-Serif" font-size="9.00">3 steps (Remove) + 5 steps (Restore if needed) = 8 steps worst case</text>
<polygon fill="none" stroke="black" points="672.88,-780.36 672.88,-796.86 782.38,-796.86 782.38,-780.36 672.88,-780.36"/>
<text xml:space="preserve" text-anchor="start" x="675.88" y="-785.61" font-family="Helvetica,sans-Serif" font-size="9.00">Heuristic Restore&#45;first:</text>
<polygon fill="none" stroke="black" points="782.38,-780.36 782.38,-796.86 1065.12,-796.86 1065.12,-780.36 782.38,-780.36"/>
<text xml:space="preserve" text-anchor="start" x="810.5" y="-785.61" font-family="Helvetica,sans-Serif" font-size="9.00">5 steps (always clears everything) = 5 steps guaranteed</text>
<polygon fill="none" stroke="black" points="672.88,-763.86 672.88,-780.36 782.38,-780.36 782.38,-763.86 672.88,-763.86"/>
<text xml:space="preserve" text-anchor="start" x="675.88" y="-769.11" font-family="Helvetica,sans-Serif" font-size="9.00">On OZ during mission:</text>
<polygon fill="none" stroke="black" points="782.38,-763.86 782.38,-780.36 1065.12,-780.36 1065.12,-763.86 782.38,-763.86"/>
<text xml:space="preserve" text-anchor="start" x="831.12" y="-769.11" font-family="Helvetica,sans-Serif" font-size="9.00">Each step of red persistence costs &#45;10 to &#45;20+</text>
<polygon fill="none" stroke="black" points="672.88,-747.36 672.88,-763.86 782.38,-763.86 782.38,-747.36 672.88,-747.36"/>
<text xml:space="preserve" text-anchor="start" x="675.88" y="-752.61" font-family="Helvetica,sans-Serif" font-size="9.00">Speed advantage:</text>
<polygon fill="none" stroke="black" points="782.38,-747.36 782.38,-763.86 1065.12,-763.86 1065.12,-747.36 782.38,-747.36"/>
<text xml:space="preserve" text-anchor="start" x="825.88" y="-752.61" font-family="Helvetica,sans-Serif" font-size="9.00">3 fewer steps x &#45;10/step = saves &#45;30 per incident</text>
<polygon fill="none" stroke="black" points="672.88,-730.86 672.88,-747.36 782.38,-747.36 782.38,-730.86 672.88,-730.86"/>
<text xml:space="preserve" text-anchor="start" x="675.88" y="-736.11" font-family="Helvetica,sans-Serif" font-size="9.00">vs extra Restore cost:</text>
<polygon fill="none" stroke="black" points="782.38,-730.86 782.38,-747.36 1065.12,-747.36 1065.12,-730.86 782.38,-730.86"/>
<text xml:space="preserve" text-anchor="start" x="867.12" y="-736.11" font-family="Helvetica,sans-Serif" font-size="9.00">&#45;1 per unnecessary Restore</text>
<polygon fill="none" stroke="black" points="672.88,-714.36 672.88,-730.86 782.38,-730.86 782.38,-714.36 672.88,-714.36"/>
<text xml:space="preserve" text-anchor="start" x="675.88" y="-720.31" font-family="Helvetica,sans-Serif" font-weight="bold" font-size="9.00">Conclusion:</text>
<polygon fill="none" stroke="black" points="782.38,-714.36 782.38,-730.86 1065.12,-730.86 1065.12,-714.36 782.38,-714.36"/>
<text xml:space="preserve" text-anchor="start" x="838.62" y="-720.31" font-family="Helvetica,sans-Serif" font-weight="bold" font-size="9.00">Speed (&#45;30 saved) &gt;&gt; Economy (&#45;1 cost)</text>
</g>
<!-- div1&#45;&gt;div2 -->
<!-- div3 -->
<g id="node23" class="node">
<title>div3</title>
<polygon fill="#b39ddb" stroke="black" points="1001.88,-673.36 736.12,-673.36 736.12,-582.86 1001.88,-582.86 1001.88,-673.36"/>
<polygon fill="#b39ddb" stroke="none" points="744.12,-586.86 744.12,-669.36 993.88,-669.36 993.88,-586.86 744.12,-586.86"/>
<polygon fill="none" stroke="black" points="744.12,-652.86 744.12,-669.36 993.88,-669.36 993.88,-652.86 744.12,-652.86"/>
<text xml:space="preserve" text-anchor="start" x="813.5" y="-658.81" font-family="Helvetica,sans-Serif" font-weight="bold" font-size="9.00" fill="white">Performance Comparison</text>
<polygon fill="none" stroke="black" points="744.12,-636.36 744.12,-652.86 840.88,-652.86 840.88,-636.36 744.12,-636.36"/>
<text xml:space="preserve" text-anchor="start" x="764.75" y="-641.61" font-family="Helvetica,sans-Serif" font-size="9.00" fill="white">Heuristic v9.1</text>
<polygon fill="none" stroke="black" points="840.88,-636.36 840.88,-652.86 993.88,-652.86 993.88,-636.36 840.88,-636.36"/>
<text xml:space="preserve" text-anchor="start" x="857.75" y="-641.61" font-family="Helvetica,sans-Serif" font-size="9.00" fill="white">&#45;1,039 mean (97.6% capture)</text>
<polygon fill="none" stroke="black" points="744.12,-619.86 744.12,-636.36 840.88,-636.36 840.88,-619.86 744.12,-619.86"/>
<text xml:space="preserve" text-anchor="start" x="760.62" y="-625.11" font-family="Helvetica,sans-Serif" font-size="9.00" fill="white">Oracle estimate</text>
<polygon fill="none" stroke="black" points="840.88,-619.86 840.88,-636.36 993.88,-636.36 993.88,-619.86 840.88,-619.86"/>
<text xml:space="preserve" text-anchor="start" x="860" y="-625.11" font-family="Helvetica,sans-Serif" font-size="9.00" fill="white">approx &#45;300 theoretical floor</text>
<polygon fill="none" stroke="black" points="744.12,-603.36 744.12,-619.86 840.88,-619.86 840.88,-603.36 744.12,-603.36"/>
<text xml:space="preserve" text-anchor="start" x="768.88" y="-608.61" font-family="Helvetica,sans-Serif" font-size="9.00" fill="white">Gap source</text>
<polygon fill="none" stroke="black" points="840.88,-603.36 840.88,-619.86 993.88,-619.86 993.88,-603.36 840.88,-603.36"/>
<text xml:space="preserve" text-anchor="start" x="860.38" y="-608.61" font-family="Helvetica,sans-Serif" font-size="9.00" fill="white">FP discrimination + Phase 0</text>
<polygon fill="none" stroke="black" points="744.12,-586.86 744.12,-603.36 840.88,-603.36 840.88,-586.86 744.12,-586.86"/>
<text xml:space="preserve" text-anchor="start" x="747.12" y="-592.11" font-family="Helvetica,sans-Serif" font-size="9.00" fill="white">Ablation: Restore&#45;only</text>
<polygon fill="none" stroke="black" points="840.88,-586.86 840.88,-603.36 993.88,-603.36 993.88,-586.86 840.88,-586.86"/>
<text xml:space="preserve" text-anchor="start" x="843.88" y="-592.11" font-family="Helvetica,sans-Serif" font-size="9.00" fill="white">&#45;932 (better than Remove+Restore!)</text>
</g>
<!-- div2&#45;&gt;div3 -->
</g>
</svg>
