<?xml version="1.0" encoding="UTF-8" standalone="no"?>
<!DOCTYPE svg PUBLIC "-//W3C//DTD SVG 1.1//EN"
 "http://www.w3.org/Graphics/SVG/1.1/DTD/svg11.dtd">
<!-- Generated by graphviz version 14.1.4 (20260321.0153)
 -->
<!-- Title: RedFSM Pages: 1 -->
<svg width="1319pt" height="731pt"
 viewBox="0.00 0.00 1319.00 731.00" xmlns="http://www.w3.org/2000/svg" xmlns:xlink="http://www.w3.org/1999/xlink">
<g id="graph0" class="graph" transform="scale(1 1) rotate(0) translate(4 726.5)">
<title>RedFSM</title>
<polygon fill="white" stroke="none" points="-4,4 -4,-726.5 1315.17,-726.5 1315.17,4 -4,4"/>
<text xml:space="preserve" text-anchor="middle" x="655.58" y="-705.2" font-family="Helvetica,sans-Serif" font-size="14.00">Red Agent Finite State Machine (FiniteStateRedAgent)</text>
<text xml:space="preserve" text-anchor="middle" x="655.58" y="-689.45" font-family="Helvetica,sans-Serif" font-size="14.00">CC4 Attack Progression per Host</text>
<g id="clust1" class="cluster">
<title>cluster_legend</title>
<polygon fill="#f0f0f0" stroke="black" points="8,-286.75 8,-647.75 104,-647.75 104,-286.75 8,-286.75"/>
<text xml:space="preserve" text-anchor="middle" x="56" y="-634.25" font-family="Helvetica,sans-Serif" font-size="10.00">Legend</text>
</g>
<g id="clust2" class="cluster">
<title>cluster_normal</title>
<path fill="none" stroke="#555555" stroke-dasharray="5,2" d="M260,-136C260,-136 585,-136 585,-136 591,-136 597,-142 597,-148 597,-148 597,-663 597,-663 597,-669 591,-675 585,-675 585,-675 260,-675 260,-675 254,-675 248,-669 248,-663 248,-663 248,-148 248,-148 248,-142 254,-136 260,-136"/>
<text xml:space="preserve" text-anchor="middle" x="422.5" y="-660.55" font-family="Helvetica,sans-Serif" font-size="11.00">Normal States</text>
<text xml:space="preserve" text-anchor="middle" x="422.5" y="-647.05" font-family="Helvetica,sans-Serif" font-size="11.00">(No Decoy Awareness)</text>
</g>
<g id="clust3" class="cluster">
<title>cluster_decoy</title>
<path fill="none" stroke="#ff9800" stroke-dasharray="5,2" d="M771,-8C771,-8 1223,-8 1223,-8 1229,-8 1235,-14 1235,-20 1235,-20 1235,-502 1235,-502 1235,-508 1229,-514 1223,-514 1223,-514 771,-514 771,-514 765,-514 759,-508 759,-502 759,-502 759,-20 759,-20 759,-14 765,-8 771,-8"/>
<text xml:space="preserve" text-anchor="middle" x="997" y="-499.55" font-family="Helvetica,sans-Serif" font-size="11.00">Decoy&#45;Aware States</text>
<text xml:space="preserve" text-anchor="middle" x="997" y="-486.05" font-family="Helvetica,sans-Serif" font-size="11.00">(After DiscoverDeception)</text>
</g>
<!-- leg_inv -->
<g id="node1" class="node">
<title>leg_inv</title>
<polygon fill="#90ee90" stroke="black" points="96.25,-619.75 15.75,-619.75 15.75,-583.75 96.25,-583.75 96.25,-619.75"/>
<text xml:space="preserve" text-anchor="middle" x="56" y="-598.45" font-family="Helvetica,sans-Serif" font-size="9.00">Invisible to Blue</text>
</g>
<!-- leg_vis -->
<g id="node2" class="node">
<title>leg_vis</title>
<polygon fill="#ff6b6b" stroke="black" points="93.25,-458.75 18.75,-458.75 18.75,-422.75 93.25,-422.75 93.25,-458.75"/>
<text xml:space="preserve" text-anchor="middle" x="56" y="-437.45" font-family="Helvetica,sans-Serif" font-size="9.00">Visible to Blue</text>
</g>
<!-- leg_inv&#45;&gt;leg_vis -->
<!-- leg_part -->
<g id="node3" class="node">
<title>leg_part</title>
<polygon fill="#ffeb3b" stroke="black" points="95.5,-330.75 16.5,-330.75 16.5,-294.75 95.5,-294.75 95.5,-330.75"/>
<text xml:space="preserve" text-anchor="middle" x="56" y="-309.45" font-family="Helvetica,sans-Serif" font-size="9.00">Partially Visible</text>
</g>
<!-- leg_vis&#45;&gt;leg_part -->
<!-- INIT -->
<g id="node4" class="node">
<title>INIT</title>
<ellipse fill="#b0bec5" stroke="black" cx="175" cy="-440.75" rx="62.76" ry="24.75"/>
<text xml:space="preserve" text-anchor="middle" x="175" y="-443.8" font-family="Helvetica,sans-Serif" font-size="11.00">INIT</text>
<text xml:space="preserve" text-anchor="middle" x="175" y="-430.3" font-family="Helvetica,sans-Serif" font-size="11.00">(Episode Start)</text>
</g>
<!-- U -->
<g id="node7" class="node">
<title>U</title>
<polygon fill="#ff6b6b" stroke="black" points="404.25,-343 289.75,-343 289.75,-282.5 404.25,-282.5 404.25,-343"/>
<text xml:space="preserve" text-anchor="start" x="310.62" y="-327.55" font-family="Helvetica,sans-Serif" font-weight="bold" font-size="11.00">U (User Shell)</text>
<text xml:space="preserve" text-anchor="start" x="303.12" y="-309" font-family="Helvetica,sans-Serif" font-size="11.00">User&#45;level session</text>
<text xml:space="preserve" text-anchor="start" x="299.75" y="-291.5" font-family="Helvetica,sans-Serif" font-size="11.00">Can run commands</text>
</g>
<!-- INIT&#45;&gt;U -->
<g id="edge3" class="edge">
<title>INIT&#45;&gt;U</title>
<path fill="none" stroke="#333333" stroke-width="2" d="M190.23,-416.62C202.45,-399.48 220.91,-376.5 241.5,-361 252.82,-352.48 265.93,-345.06 278.97,-338.79"/>
<polygon fill="#333333" stroke="#333333" stroke-width="2" points="279,-342.62 286.63,-335.27 276.08,-336.26 279,-342.62"/>
<text xml:space="preserve" text-anchor="middle" x="282.75" y="-378.7" font-family="Helvetica,sans-Serif" font-size="9.00">Starting host</text>
<text xml:space="preserve" text-anchor="middle" x="282.75" y="-368.2" font-family="Helvetica,sans-Serif" font-size="9.00">(begin at User shell)</text>
</g>
<!-- K -->
<g id="node5" class="node">
<title>K</title>
<polygon fill="#90ee90" stroke="black" points="465.62,-632 374.38,-632 374.38,-571.5 465.62,-571.5 465.62,-632"/>
<text xml:space="preserve" text-anchor="start" x="392.25" y="-616.55" font-family="Helvetica,sans-Serif" font-weight="bold" font-size="11.00">K (Known)</text>
<text xml:space="preserve" text-anchor="start" x="387.38" y="-598" font-family="Helvetica,sans-Serif" font-size="11.00">IP discovered</text>
<text xml:space="preserve" text-anchor="start" x="384.38" y="-580.5" font-family="Helvetica,sans-Serif" font-size="11.00">No service info</text>
</g>
<!-- K&#45;&gt;K -->
<g id="edge7" class="edge">
<title>K&#45;&gt;K</title>
<path fill="none" stroke="#999999" stroke-dasharray="1,5" d="M466.04,-613.43C476.21,-612.33 483.62,-608.44 483.62,-601.75 483.62,-597.88 481.15,-594.95 477.09,-592.95"/>
<polygon fill="#999999" stroke="#999999" points="478.06,-589.59 467.51,-590.45 476.3,-596.36 478.06,-589.59"/>
<text xml:space="preserve" text-anchor="middle" x="529" y="-603.7" font-family="Helvetica,sans-Serif" font-size="9.00">AggrSvc/StlthSvc FAIL</text>
<text xml:space="preserve" text-anchor="middle" x="529" y="-593.2" font-family="Helvetica,sans-Serif" font-size="9.00">stay at K</text>
</g>
<!-- S -->
<g id="node6" class="node">
<title>S</title>
<polygon fill="#90ee90" stroke="black" points="378,-471 256,-471 256,-410.5 378,-410.5 378,-471"/>
<text xml:space="preserve" text-anchor="start" x="285.12" y="-455.55" font-family="Helvetica,sans-Serif" font-weight="bold" font-size="11.00">S (Scanned)</text>
<text xml:space="preserve" text-anchor="start" x="266" y="-437" font-family="Helvetica,sans-Serif" font-size="11.00">Ports/services known</text>
<text xml:space="preserve" text-anchor="start" x="278.38" y="-419.5" font-family="Helvetica,sans-Serif" font-size="11.00">Ready to exploit</text>
</g>
<!-- K&#45;&gt;S -->
<g id="edge4" class="edge">
<title>K&#45;&gt;S</title>
<path fill="none" stroke="#2e7d32" d="M373.91,-591.06C353.31,-584.2 330.91,-572.68 318.5,-553.5 305.13,-532.83 304.64,-505.2 307.55,-482.58"/>
<polygon fill="#2e7d32" stroke="#2e7d32" points="311,-483.19 309.1,-472.77 304.09,-482.1 311,-483.19"/>
<text xml:space="preserve" text-anchor="middle" x="358.25" y="-539.7" font-family="Helvetica,sans-Serif" font-size="9.00">AggrSvcDisc (25%)</text>
<text xml:space="preserve" text-anchor="middle" x="358.25" y="-529.2" font-family="Helvetica,sans-Serif" font-size="9.00">1 step, invisible</text>
</g>
<!-- K&#45;&gt;S -->
<g id="edge5" class="edge">
<title>K&#45;&gt;S</title>
<path fill="none" stroke="#2e7d32" stroke-dasharray="5,2" d="M415.52,-571.26C412.27,-555.82 406.85,-537.05 398,-522 388.7,-506.17 375.5,-491.28 362.46,-478.72"/>
<polygon fill="#2e7d32" stroke="#2e7d32" points="365.21,-476.49 355.5,-472.25 360.44,-481.62 365.21,-476.49"/>
<text xml:space="preserve" text-anchor="middle" x="449.87" y="-539.7" font-family="Helvetica,sans-Serif" font-size="9.00">StlthSvcDisc (25%)</text>
<text xml:space="preserve" text-anchor="middle" x="449.87" y="-529.2" font-family="Helvetica,sans-Serif" font-size="9.00">3 steps, invisible</text>
</g>
<!-- KD -->
<g id="node9" class="node">
<title>KD</title>
<polygon fill="#c8e6c9" stroke="black" points="925.38,-471 766.62,-471 766.62,-410.5 925.38,-410.5 925.38,-471"/>
<text xml:space="preserve" text-anchor="start" x="794.25" y="-455.55" font-family="Helvetica,sans-Serif" font-weight="bold" font-size="11.00">KD (Known+Decoy)</text>
<text xml:space="preserve" text-anchor="start" x="780.75" y="-437" font-family="Helvetica,sans-Serif" font-size="11.00">IP known + decoy detected</text>
<text xml:space="preserve" text-anchor="start" x="776.62" y="-419.5" font-family="Helvetica,sans-Serif" font-size="11.00">Will avoid known decoy PIDs</text>
</g>
<!-- K&#45;&gt;KD -->
<g id="edge6" class="edge">
<title>K&#45;&gt;KD</title>
<path fill="none" stroke="#2e7d32" d="M465.99,-583.58C535.15,-557.77 667.25,-508.47 756,-475.34"/>
<polygon fill="#2e7d32" stroke="#2e7d32" points="757.04,-478.69 765.18,-471.91 754.59,-472.13 757.04,-478.69"/>
<text xml:space="preserve" text-anchor="middle" x="666.35" y="-544.95" font-family="Helvetica,sans-Serif" font-size="9.00">DiscRemSys (50%)</text>
<text xml:space="preserve" text-anchor="middle" x="666.35" y="-534.45" font-family="Helvetica,sans-Serif" font-size="9.00">1 step, invisible</text>
<text xml:space="preserve" text-anchor="middle" x="666.35" y="-523.95" font-family="Helvetica,sans-Serif" font-size="9.00">(discovers more hosts)</text>
</g>
<!-- S&#45;&gt;S -->
<g id="edge12" class="edge">
<title>S&#45;&gt;S</title>
<path fill="none" stroke="#2e7d32" d="M378.28,-446.35C388.75,-445.59 396,-443.72 396,-440.75 396,-439.03 393.58,-437.69 389.51,-436.71"/>
<polygon fill="#2e7d32" stroke="#2e7d32" points="390.16,-433.26 379.78,-435.36 389.2,-440.2 390.16,-433.26"/>
<text xml:space="preserve" text-anchor="middle" x="439.5" y="-442.7" font-family="Helvetica,sans-Serif" font-size="9.00">DiscDeception (25%)</text>
<text xml:space="preserve" text-anchor="middle" x="439.5" y="-432.2" font-family="Helvetica,sans-Serif" font-size="9.00">2 steps, invisible</text>
</g>
<!-- S&#45;&gt;S -->
<g id="edge14" class="edge">
<title>S&#45;&gt;S</title>
<path fill="none" stroke="#999999" stroke-dasharray="1,5" d="M378.46,-451.69C426.8,-454.77 483,-451.12 483,-440.75 483,-431.19 435.24,-427.34 389.91,-429.21"/>
<polygon fill="#999999" stroke="#999999" points="389.78,-425.71 379.98,-429.73 390.14,-432.7 389.78,-425.71"/>
<text xml:space="preserve" text-anchor="middle" x="526.88" y="-447.95" font-family="Helvetica,sans-Serif" font-size="9.00">Exploit FAIL</text>
<text xml:space="preserve" text-anchor="middle" x="526.88" y="-437.45" font-family="Helvetica,sans-Serif" font-size="9.00">stay at S</text>
<text xml:space="preserve" text-anchor="middle" x="526.88" y="-426.95" font-family="Helvetica,sans-Serif" font-size="9.00">(decoy hit or blocked)</text>
</g>
<!-- S&#45;&gt;U -->
<g id="edge11" class="edge">
<title>S&#45;&gt;U</title>
<path fill="none" stroke="#d32f2f" stroke-width="2" d="M324.03,-410.21C327.91,-393.94 332.78,-373.47 337.04,-355.58"/>
<polygon fill="#d32f2f" stroke="#d32f2f" stroke-width="2" points="340.4,-356.59 339.31,-346.05 333.59,-354.97 340.4,-356.59"/>
<text xml:space="preserve" text-anchor="middle" x="398.57" y="-383.95" font-family="Helvetica,sans-Serif" font-size="9.00">ExploitRemSvc (50%)</text>
<text xml:space="preserve" text-anchor="middle" x="398.57" y="-373.45" font-family="Helvetica,sans-Serif" font-size="9.00">4 steps</text>
<text xml:space="preserve" text-anchor="middle" x="398.57" y="-362.95" font-family="Helvetica,sans-Serif" font-size="9.00">95% proc_flag + conn + malfile</text>
</g>
<!-- SD -->
<g id="node10" class="node">
<title>SD</title>
<polygon fill="#c8e6c9" stroke="black" points="909.12,-343 766.88,-343 766.88,-282.5 909.12,-282.5 909.12,-343"/>
<text xml:space="preserve" text-anchor="start" x="782.12" y="-327.55" font-family="Helvetica,sans-Serif" font-weight="bold" font-size="11.00">SD (Scanned+Decoy)</text>
<text xml:space="preserve" text-anchor="start" x="776.88" y="-309" font-family="Helvetica,sans-Serif" font-size="11.00">Services + decoys known</text>
<text xml:space="preserve" text-anchor="start" x="776.88" y="-291.5" font-family="Helvetica,sans-Serif" font-size="11.00">Uses PIDSelectiveExploit</text>
</g>
<!-- S&#45;&gt;SD -->
<g id="edge13" class="edge">
<title>S&#45;&gt;SD</title>
<path fill="none" stroke="#2e7d32" d="M378.3,-424.93C471.86,-402.3 650.46,-359.11 755.37,-333.73"/>
<polygon fill="#2e7d32" stroke="#2e7d32" points="756.17,-337.14 765.07,-331.39 754.53,-330.34 756.17,-337.14"/>
<text xml:space="preserve" text-anchor="middle" x="679.24" y="-378.7" font-family="Helvetica,sans-Serif" font-size="9.00">DiscRemSys (25%)</text>
<text xml:space="preserve" text-anchor="middle" x="679.24" y="-368.2" font-family="Helvetica,sans-Serif" font-size="9.00">1 step, invisible</text>
</g>
<!-- U&#45;&gt;U -->
<g id="edge20" class="edge">
<title>U&#45;&gt;U</title>
<path fill="none" stroke="#999999" stroke-dasharray="1,5" d="M404.74,-324.05C415.05,-322.58 422.25,-318.81 422.25,-312.75 422.25,-309.25 419.84,-306.51 415.82,-304.54"/>
<polygon fill="#999999" stroke="#999999" points="416.77,-301.17 406.19,-301.86 414.89,-307.91 416.77,-301.17"/>
<text xml:space="preserve" text-anchor="middle" x="448.12" y="-314.7" font-family="Helvetica,sans-Serif" font-size="9.00">PrivEsc FAIL</text>
<text xml:space="preserve" text-anchor="middle" x="448.12" y="-304.2" font-family="Helvetica,sans-Serif" font-size="9.00">stay at U</text>
</g>
<!-- R -->
<g id="node8" class="node">
<title>R</title>
<polygon fill="#ffeb3b" stroke="black" points="400.12,-204.5 293.88,-204.5 293.88,-144 400.12,-144 400.12,-204.5"/>
<text xml:space="preserve" text-anchor="start" x="324.88" y="-189.05" font-family="Helvetica,sans-Serif" font-weight="bold" font-size="11.00">R (Root)</text>
<text xml:space="preserve" text-anchor="start" x="303.88" y="-170.5" font-family="Helvetica,sans-Serif" font-size="11.00">Privileged session</text>
<text xml:space="preserve" text-anchor="start" x="309.88" y="-153" font-family="Helvetica,sans-Serif" font-size="11.00">Can run Impact</text>
</g>
<!-- U&#45;&gt;R -->
<g id="edge18" class="edge">
<title>U&#45;&gt;R</title>
<path fill="none" stroke="#ff9800" stroke-width="2" d="M347,-282.13C347,-263.26 347,-238.51 347,-217.59"/>
<polygon fill="#ff9800" stroke="#ff9800" stroke-width="2" points="350.5,-217.84 347,-207.84 343.5,-217.84 350.5,-217.84"/>
<text xml:space="preserve" text-anchor="middle" x="391.25" y="-250.7" font-family="Helvetica,sans-Serif" font-size="9.00">PrivEsc (50%)</text>
<text xml:space="preserve" text-anchor="middle" x="391.25" y="-240.2" font-family="Helvetica,sans-Serif" font-size="9.00">2 steps</text>
<text xml:space="preserve" text-anchor="middle" x="391.25" y="-229.7" font-family="Helvetica,sans-Serif" font-size="9.00">invisible (only malfile)</text>
</g>
<!-- U&#45;&gt;KD -->
<g id="edge27" class="edge">
<title>U&#45;&gt;KD</title>
<path fill="none" stroke="#1565c0" stroke-dasharray="5,2" d="M404.7,-317.81C560.03,-328.79 975.57,-358.38 978,-361 999.81,-384.5 972.07,-403.29 936.5,-416.61"/>
<polygon fill="#1565c0" stroke="#1565c0" points="935.46,-413.26 927.2,-419.89 937.79,-419.86 935.46,-413.26"/>
<text xml:space="preserve" text-anchor="middle" x="1030.71" y="-378.7" font-family="Helvetica,sans-Serif" font-size="9.00">Blue Remove/Restore</text>
<text xml:space="preserve" text-anchor="middle" x="1030.71" y="-368.2" font-family="Helvetica,sans-Serif" font-size="9.00">(session lost &#45;&gt; KD)</text>
</g>
<!-- UD -->
<g id="node11" class="node">
<title>UD</title>
<polygon fill="#ffcdd2" stroke="black" points="911.12,-204.5 768.88,-204.5 768.88,-144 911.12,-144 911.12,-204.5"/>
<text xml:space="preserve" text-anchor="start" x="794.25" y="-189.05" font-family="Helvetica,sans-Serif" font-weight="bold" font-size="11.00">UD (User+Decoy)</text>
<text xml:space="preserve" text-anchor="start" x="778.88" y="-170.5" font-family="Helvetica,sans-Serif" font-size="11.00">User shell + decoy aware</text>
<text xml:space="preserve" text-anchor="start" x="782.62" y="-153" font-family="Helvetica,sans-Serif" font-size="11.00">Bypasses 75% trap rate</text>
</g>
<!-- U&#45;&gt;UD -->
<g id="edge19" class="edge">
<title>U&#45;&gt;UD</title>
<path fill="none" stroke="#2e7d32" d="M404.61,-307.29C465.4,-301.51 563.51,-289.1 645,-264.5 690.12,-250.88 738.3,-228.9 775.49,-210.16"/>
<polygon fill="#2e7d32" stroke="#2e7d32" points="777,-213.32 784.32,-205.66 773.82,-207.08 777,-213.32"/>
<text xml:space="preserve" text-anchor="middle" x="787.81" y="-245.45" font-family="Helvetica,sans-Serif" font-size="9.00">DiscRemSys (50%)</text>
<text xml:space="preserve" text-anchor="middle" x="787.81" y="-234.95" font-family="Helvetica,sans-Serif" font-size="9.00">1 step, invisible</text>
</g>
<!-- F -->
<g id="node13" class="node">
<title>F</title>
<polygon fill="#e0e0e0" stroke="black" points="750.62,-204.5 605.38,-204.5 605.38,-144 750.62,-144 750.62,-204.5"/>
<text xml:space="preserve" text-anchor="start" x="649.12" y="-189.05" font-family="Helvetica,sans-Serif" font-weight="bold" font-size="11.00">F (Foreign)</text>
<text xml:space="preserve" text-anchor="start" x="615.38" y="-170.5" font-family="Helvetica,sans-Serif" font-size="11.00">Host outside agent subnet</text>
<text xml:space="preserve" text-anchor="start" x="627" y="-153" font-family="Helvetica,sans-Serif" font-size="11.00">Cannot act &#45;&#45; ignored</text>
</g>
<!-- U&#45;&gt;F -->
<g id="edge31" class="edge">
<title>U&#45;&gt;F</title>
<path fill="none" stroke="#757575" stroke-dasharray="5,2" d="M404.66,-287.97C457.42,-266.21 536.1,-233.77 595.52,-209.27"/>
<polygon fill="#757575" stroke="#757575" points="596.69,-212.57 604.6,-205.52 594.02,-206.1 596.69,-212.57"/>
<text xml:space="preserve" text-anchor="middle" x="601.24" y="-245.45" font-family="Helvetica,sans-Serif" font-size="9.00">Exploit lands on</text>
<text xml:space="preserve" text-anchor="middle" x="601.24" y="-234.95" font-family="Helvetica,sans-Serif" font-size="9.00">host outside subnet</text>
</g>
<!-- R&#45;&gt;R -->
<g id="edge22" class="edge">
<title>R&#45;&gt;R</title>
<path fill="none" stroke="#b71c1c" stroke-width="2" d="M400.35,-179.98C410.74,-179.32 418.12,-177.41 418.12,-174.25 418.12,-172.67 416.28,-171.41 413.14,-170.45"/>
<polygon fill="#b71c1c" stroke="#b71c1c" stroke-width="2" points="413.75,-167 403.34,-168.97 412.71,-173.92 413.75,-167"/>
<text xml:space="preserve" text-anchor="middle" x="452.62" y="-181.45" font-family="Helvetica,sans-Serif" font-size="9.00">Impact (25%)</text>
<text xml:space="preserve" text-anchor="middle" x="452.62" y="-170.95" font-family="Helvetica,sans-Serif" font-size="9.00">2 steps, invisible</text>
<text xml:space="preserve" text-anchor="middle" x="452.62" y="-160.45" font-family="Helvetica,sans-Serif" font-size="9.00">Stops OT service</text>
</g>
<!-- R&#45;&gt;R -->
<g id="edge23" class="edge">
<title>R&#45;&gt;R</title>
<path fill="none" stroke="#e65100" d="M400.32,-185.22C440.98,-188.25 487.12,-184.59 487.12,-174.25 487.12,-164.84 448.9,-160.96 411.38,-162.63"/>
<polygon fill="#e65100" stroke="#e65100" points="411.61,-159.11 401.83,-163.19 412.02,-166.09 411.61,-159.11"/>
<text xml:space="preserve" text-anchor="middle" x="528.38" y="-181.45" font-family="Helvetica,sans-Serif" font-size="9.00">DegradeSvcs (25%)</text>
<text xml:space="preserve" text-anchor="middle" x="528.38" y="-170.95" font-family="Helvetica,sans-Serif" font-size="9.00">2 steps, invisible</text>
<text xml:space="preserve" text-anchor="middle" x="528.38" y="-160.45" font-family="Helvetica,sans-Serif" font-size="9.00">&#45;20% reliability</text>
</g>
<!-- R&#45;&gt;KD -->
<g id="edge29" class="edge">
<title>R&#45;&gt;KD</title>
<path fill="none" stroke="#1565c0" stroke-dasharray="5,2" d="M400.3,-182.86C450.63,-189.72 528.28,-199.48 596,-204.5 628.15,-206.88 1150.29,-203.05 1176,-222.5 1219.24,-255.21 1224.81,-297.71 1195,-343 1166.55,-386.21 1030.47,-413.85 936.88,-428.08"/>
<polygon fill="#1565c0" stroke="#1565c0" points="936.56,-424.59 927.19,-429.52 937.59,-431.51 936.56,-424.59"/>
<text xml:space="preserve" text-anchor="middle" x="1262.42" y="-314.7" font-family="Helvetica,sans-Serif" font-size="9.00">Blue Restore</text>
<text xml:space="preserve" text-anchor="middle" x="1262.42" y="-304.2" font-family="Helvetica,sans-Serif" font-size="9.00">(root session lost &#45;&gt; KD)</text>
</g>
<!-- RD -->
<g id="node12" class="node">
<title>RD</title>
<polygon fill="#fff9c4" stroke="black" points="891.75,-76.5 774.25,-76.5 774.25,-16 891.75,-16 891.75,-76.5"/>
<text xml:space="preserve" text-anchor="start" x="786.88" y="-61.05" font-family="Helvetica,sans-Serif" font-weight="bold" font-size="11.00">RD (Root+Decoy)</text>
<text xml:space="preserve" text-anchor="start" x="784.25" y="-42.5" font-family="Helvetica,sans-Serif" font-size="11.00">Root + decoy aware</text>
<text xml:space="preserve" text-anchor="start" x="806.75" y="-25" font-family="Helvetica,sans-Serif" font-size="11.00">Full control</text>
</g>
<!-- R&#45;&gt;RD -->
<g id="edge24" class="edge">
<title>R&#45;&gt;RD</title>
<path fill="none" stroke="#2e7d32" d="M400.4,-159.41C488.61,-136.54 664.72,-90.88 762.86,-65.44"/>
<polygon fill="#2e7d32" stroke="#2e7d32" points="763.58,-68.86 772.38,-62.97 761.82,-62.09 763.58,-68.86"/>
<text xml:space="preserve" text-anchor="middle" x="687.57" y="-112.2" font-family="Helvetica,sans-Serif" font-size="9.00">DiscRemSys (50%)</text>
<text xml:space="preserve" text-anchor="middle" x="687.57" y="-101.7" font-family="Helvetica,sans-Serif" font-size="9.00">1 step, invisible</text>
</g>
<!-- KD&#45;&gt;KD -->
<g id="edge10" class="edge">
<title>KD&#45;&gt;KD</title>
<path fill="none" stroke="#2e7d32" d="M925.85,-451.33C936.39,-449.53 943.38,-446 943.38,-440.75 943.38,-437.63 940.91,-435.12 936.7,-433.22"/>
<polygon fill="#2e7d32" stroke="#2e7d32" points="937.88,-429.92 927.3,-430.58 935.98,-436.65 937.88,-429.92"/>
<text xml:space="preserve" text-anchor="middle" x="983.12" y="-442.7" font-family="Helvetica,sans-Serif" font-size="9.00">DiscRemSys (50%)</text>
<text xml:space="preserve" text-anchor="middle" x="983.12" y="-432.2" font-family="Helvetica,sans-Serif" font-size="9.00">1 step, invisible</text>
</g>
<!-- KD&#45;&gt;SD -->
<g id="edge8" class="edge">
<title>KD&#45;&gt;SD</title>
<path fill="none" stroke="#2e7d32" d="M821.03,-410.23C817.52,-404.65 814.45,-398.63 812.5,-392.5 808.25,-379.16 809.07,-374.57 812.5,-361 813.11,-358.58 813.88,-356.14 814.75,-353.73"/>
<polygon fill="#2e7d32" stroke="#2e7d32" points="817.89,-355.3 818.6,-344.73 811.45,-352.55 817.89,-355.3"/>
<text xml:space="preserve" text-anchor="middle" x="852.25" y="-378.7" font-family="Helvetica,sans-Serif" font-size="9.00">AggrSvcDisc (25%)</text>
<text xml:space="preserve" text-anchor="middle" x="852.25" y="-368.2" font-family="Helvetica,sans-Serif" font-size="9.00">1 step, invisible</text>
</g>
<!-- KD&#45;&gt;SD -->
<g id="edge9" class="edge">
<title>KD&#45;&gt;SD</title>
<path fill="none" stroke="#2e7d32" stroke-dasharray="5,2" d="M881.06,-410.26C885.51,-404.84 889.41,-398.86 892,-392.5 897.27,-379.53 897.79,-373.75 892,-361 890.62,-357.97 888.95,-355.06 887.05,-352.27"/>
<polygon fill="#2e7d32" stroke="#2e7d32" points="889.78,-350.08 880.79,-344.47 884.32,-354.46 889.78,-350.08"/>
<text xml:space="preserve" text-anchor="middle" x="935.15" y="-378.7" font-family="Helvetica,sans-Serif" font-size="9.00">StlthSvcDisc (25%)</text>
<text xml:space="preserve" text-anchor="middle" x="935.15" y="-368.2" font-family="Helvetica,sans-Serif" font-size="9.00">3 steps, invisible</text>
</g>
<!-- SD&#45;&gt;SD -->
<g id="edge16" class="edge">
<title>SD&#45;&gt;SD</title>
<path fill="none" stroke="#2e7d32" d="M909.33,-318.19C919.94,-317.35 927.12,-315.53 927.12,-312.75 927.12,-311.14 924.72,-309.86 920.65,-308.9"/>
<polygon fill="#2e7d32" stroke="#2e7d32" points="921.21,-305.44 910.82,-307.52 920.24,-312.37 921.21,-305.44"/>
<text xml:space="preserve" text-anchor="middle" x="970.62" y="-314.7" font-family="Helvetica,sans-Serif" font-size="9.00">DiscDeception (25%)</text>
<text xml:space="preserve" text-anchor="middle" x="970.62" y="-304.2" font-family="Helvetica,sans-Serif" font-size="9.00">2 steps, invisible</text>
</g>
<!-- SD&#45;&gt;SD -->
<g id="edge17" class="edge">
<title>SD&#45;&gt;SD</title>
<path fill="none" stroke="#999999" stroke-dasharray="1,5" d="M909.42,-324C959.27,-326.5 1014.12,-322.75 1014.12,-312.75 1014.12,-303.51 967.31,-299.61 920.87,-301.04"/>
<polygon fill="#999999" stroke="#999999" points="920.78,-297.54 910.93,-301.44 921.06,-304.53 920.78,-297.54"/>
<text xml:space="preserve" text-anchor="middle" x="1038.5" y="-314.7" font-family="Helvetica,sans-Serif" font-size="9.00">Exploit FAIL</text>
<text xml:space="preserve" text-anchor="middle" x="1038.5" y="-304.2" font-family="Helvetica,sans-Serif" font-size="9.00">stay at SD</text>
</g>
<!-- SD&#45;&gt;UD -->
<g id="edge15" class="edge">
<title>SD&#45;&gt;UD</title>
<path fill="none" stroke="#d32f2f" stroke-width="2" d="M838.43,-282.13C838.71,-263.26 839.07,-238.51 839.38,-217.59"/>
<polygon fill="#d32f2f" stroke="#d32f2f" stroke-width="2" points="842.88,-217.89 839.52,-207.84 835.88,-217.79 842.88,-217.89"/>
<text xml:space="preserve" text-anchor="middle" x="895.92" y="-255.95" font-family="Helvetica,sans-Serif" font-size="9.00">ExploitRemSvc (75%)</text>
<text xml:space="preserve" text-anchor="middle" x="895.92" y="-245.45" font-family="Helvetica,sans-Serif" font-size="9.00">4 steps</text>
<text xml:space="preserve" text-anchor="middle" x="895.92" y="-234.95" font-family="Helvetica,sans-Serif" font-size="9.00">PIDSelective avoids decoys</text>
<text xml:space="preserve" text-anchor="middle" x="895.92" y="-224.45" font-family="Helvetica,sans-Serif" font-size="9.00">95% proc + conn + malfile</text>
</g>
<!-- UD&#45;&gt;KD -->
<g id="edge28" class="edge">
<title>UD&#45;&gt;KD</title>
<path fill="none" stroke="#1565c0" stroke-dasharray="5,2" d="M911.34,-203.53C926.46,-209.67 942.29,-216.22 957,-222.5 958.86,-223.3 1088.9,-280.8 1090,-282.5 1104.59,-305.09 1104.68,-320.47 1090,-343 1056.73,-394.08 991.59,-418.2 936.99,-429.58"/>
<polygon fill="#1565c0" stroke="#1565c0" points="936.49,-426.11 927.35,-431.47 937.84,-432.98 936.49,-426.11"/>
<text xml:space="preserve" text-anchor="middle" x="1145.97" y="-314.7" font-family="Helvetica,sans-Serif" font-size="9.00">Blue Remove/Restore</text>
<text xml:space="preserve" text-anchor="middle" x="1145.97" y="-304.2" font-family="Helvetica,sans-Serif" font-size="9.00">(session lost &#45;&gt; KD)</text>
</g>
<!-- UD&#45;&gt;RD -->
<g id="edge21" class="edge">
<title>UD&#45;&gt;RD</title>
<path fill="none" stroke="#ff9800" stroke-width="2" d="M838.36,-143.71C837.46,-127.59 836.34,-107.37 835.35,-89.6"/>
<polygon fill="#ff9800" stroke="#ff9800" stroke-width="2" points="838.85,-89.42 834.8,-79.63 831.86,-89.81 838.85,-89.42"/>
<text xml:space="preserve" text-anchor="middle" x="881.58" y="-117.45" font-family="Helvetica,sans-Serif" font-size="9.00">PrivEsc (100%)</text>
<text xml:space="preserve" text-anchor="middle" x="881.58" y="-106.95" font-family="Helvetica,sans-Serif" font-size="9.00">2 steps</text>
<text xml:space="preserve" text-anchor="middle" x="881.58" y="-96.45" font-family="Helvetica,sans-Serif" font-size="9.00">invisible (only malfile)</text>
</g>
<!-- RD&#45;&gt;KD -->
<g id="edge30" class="edge">
<title>RD&#45;&gt;KD</title>
<path fill="none" stroke="#1565c0" stroke-dasharray="5,2" d="M892.18,-65.51C1019.13,-107.62 1298.04,-217.59 1195,-343 1168.83,-374.86 1141.56,-343.99 1104,-361 1083.07,-370.48 1083.84,-382.82 1063,-392.5 1023.69,-410.76 977.06,-422.09 937.12,-429.06"/>
<polygon fill="#1565c0" stroke="#1565c0" points="936.55,-425.61 927.26,-430.71 937.7,-432.51 936.55,-425.61"/>
<text xml:space="preserve" text-anchor="middle" x="1262.37" y="-245.45" font-family="Helvetica,sans-Serif" font-size="9.00">Blue Restore</text>
<text xml:space="preserve" text-anchor="middle" x="1262.37" y="-234.95" font-family="Helvetica,sans-Serif" font-size="9.00">(root session lost &#45;&gt; KD)</text>
</g>
<!-- RD&#45;&gt;RD -->
<g id="edge25" class="edge">
<title>RD&#45;&gt;RD</title>
<path fill="none" stroke="#b71c1c" stroke-width="2" d="M892.21,-51.88C902.55,-51.12 909.75,-49.25 909.75,-46.25 909.75,-44.75 907.95,-43.53 904.86,-42.59"/>
<polygon fill="#b71c1c" stroke="#b71c1c" stroke-width="2" points="905.62,-39.17 895.2,-41.09 904.55,-46.09 905.62,-39.17"/>
<text xml:space="preserve" text-anchor="middle" x="943.5" y="-48.2" font-family="Helvetica,sans-Serif" font-size="9.00">Impact (50%)</text>
<text xml:space="preserve" text-anchor="middle" x="943.5" y="-37.7" font-family="Helvetica,sans-Serif" font-size="9.00">2 steps, invisible</text>
</g>
<!-- RD&#45;&gt;RD -->
<g id="edge26" class="edge">
<title>RD&#45;&gt;RD</title>
<path fill="none" stroke="#e65100" d="M892.14,-57.48C932.96,-60.02 977.25,-56.28 977.25,-46.25 977.25,-37.12 940.56,-33.2 903.19,-34.49"/>
<polygon fill="#e65100" stroke="#e65100" points="903.47,-30.97 893.65,-34.95 903.81,-37.96 903.47,-30.97"/>
<text xml:space="preserve" text-anchor="middle" x="1018.5" y="-48.2" font-family="Helvetica,sans-Serif" font-size="9.00">DegradeSvcs (50%)</text>
<text xml:space="preserve" text-anchor="middle" x="1018.5" y="-37.7" font-family="Helvetica,sans-Serif" font-size="9.00">2 steps, invisible</text>
</g>
</g>
</svg>
