<?xml version="1.0" encoding="UTF-8" standalone="no"?>
<!DOCTYPE svg PUBLIC "-//W3C//DTD SVG 1.1//EN"
 "http://www.w3.org/Graphics/SVG/1.1/DTD/svg11.dtd">
<!-- Generated by graphviz version 14.1.4 (20260321.0153)
 -->
<!-- Title: RewardFlow Pages: 1 -->
<svg width="1069pt" height="654pt"
 viewBox="0.00 0.00 1069.00 654.00" xmlns="http://www.w3.org/2000/svg" xmlns:xlink="http://www.w3.org/1999/xlink">
<g id="graph0" class="graph" transform="scale(1 1) rotate(0) translate(4 650.25)">
<title>RewardFlow</title>
<polygon fill="white" stroke="none" points="-4,4 -4,-650.25 1065.25,-650.25 1065.25,4 -4,4"/>
<text xml:space="preserve" text-anchor="middle" x="530.62" y="-628.95" font-family="Helvetica,sans-Serif" font-size="14.00">CC4 Reward Flow Diagram</text>
<text xml:space="preserve" text-anchor="middle" x="530.62" y="-613.2" font-family="Helvetica,sans-Serif" font-size="14.00">All Rewards are Negative (Best Possible = 0)</text>
<text xml:space="preserve" text-anchor="middle" x="530.62" y="-597.45" font-family="Helvetica,sans-Serif" font-size="14.00">Mean Episode Total: &#45;1,039</text>
<g id="clust1" class="cluster">
<title>cluster_sources</title>
<path fill="#ffebee" stroke="black" d="M20,-10C20,-10 360.75,-10 360.75,-10 366.75,-10 372.75,-16 372.75,-22 372.75,-22 372.75,-464 372.75,-464 372.75,-470 366.75,-476 360.75,-476 360.75,-476 20,-476 20,-476 14,-476 8,-470 8,-464 8,-464 8,-22 8,-22 8,-16 14,-10 20,-10"/>
<text xml:space="preserve" text-anchor="middle" x="190.38" y="-458.7" font-family="Helvetica,sans-Serif" font-size="14.00">Penalty Sources</text>
</g>
<g id="clust2" class="cluster">
<title>cluster_zones</title>
<path fill="#fff8e1" stroke="black" d="M455,-71C455,-71 660,-71 660,-71 666,-71 672,-77 672,-83 672,-83 672,-571 672,-571 672,-577 666,-583 660,-583 660,-583 455,-583 455,-583 449,-583 443,-577 443,-571 443,-571 443,-83 443,-83 443,-77 449,-71 455,-71"/>
<text xml:space="preserve" text-anchor="middle" x="557.5" y="-565.7" font-family="Helvetica,sans-Serif" font-size="14.00">Per&#45;Zone Penalty Rates (per event)</text>
</g>
<g id="clust3" class="cluster">
<title>cluster_totals</title>
<path fill="#f3e5f5" stroke="black" d="M705,-8C705,-8 1041.25,-8 1041.25,-8 1047.25,-8 1053.25,-14 1053.25,-20 1053.25,-20 1053.25,-376 1053.25,-376 1053.25,-382 1047.25,-388 1041.25,-388 1041.25,-388 705,-388 705,-388 699,-388 693,-382 693,-376 693,-376 693,-20 693,-20 693,-14 699,-8 705,-8"/>
<text xml:space="preserve" text-anchor="middle" x="873.12" y="-370.7" font-family="Helvetica,sans-Serif" font-size="14.00">Estimated Loss Breakdown (per episode)</text>
</g>
<!-- red_impact -->
<g id="node1" class="node">
<title>red_impact</title>
<polygon fill="#f44336" stroke="black" points="352.75,-266 252.25,-266 252.25,-202 352.75,-202 352.75,-266"/>
<text xml:space="preserve" text-anchor="start" x="275.88" y="-249.5" font-family="Helvetica,sans-Serif" font-weight="bold" font-size="10.00" fill="white">Red Impact</text>
<text xml:space="preserve" text-anchor="start" x="264.25" y="-230.25" font-family="Helvetica,sans-Serif" font-size="10.00" fill="white">Stops OT service</text>
<text xml:space="preserve" text-anchor="start" x="272.5" y="-212.25" font-family="Helvetica,sans-Serif" font-size="10.00" fill="white">on target host</text>
</g>
<!-- oz_mission -->
<g id="node8" class="node">
<title>oz_mission</title>
<polygon fill="#ffe082" stroke="black" points="628,-465 486,-465 486,-385 628,-385 628,-465"/>
<polygon fill="#ffe082" stroke="none" points="494,-389 494,-461 620,-461 620,-389 494,-389"/>
<polygon fill="none" stroke="black" points="494,-443 494,-461 620,-461 620,-443 494,-443"/>
<text xml:space="preserve" text-anchor="start" x="497" y="-449.5" font-family="Helvetica,sans-Serif" font-weight="bold" font-size="10.00">OZ During Active Mission</text>
<polygon fill="none" stroke="black" points="494,-425 494,-443 590.38,-443 590.38,-425 494,-425"/>
<text xml:space="preserve" text-anchor="start" x="514.44" y="-430.25" font-family="Helvetica,sans-Serif" font-size="10.00">RIA (Impact)</text>
<polygon fill="none" stroke="black" points="590.38,-425 590.38,-443 620,-443 620,-425 590.38,-425"/>
<text xml:space="preserve" text-anchor="start" x="598.44" y="-431.5" font-family="Helvetica,sans-Serif" font-weight="bold" font-size="10.00">&#45;10</text>
<polygon fill="none" stroke="black" points="494,-407 494,-425 590.38,-425 590.38,-407 494,-407"/>
<text xml:space="preserve" text-anchor="start" x="506.94" y="-412.25" font-family="Helvetica,sans-Serif" font-size="10.00">LWF (Work Fail)</text>
<polygon fill="none" stroke="black" points="590.38,-407 590.38,-425 620,-425 620,-407 590.38,-407"/>
<text xml:space="preserve" text-anchor="start" x="598.44" y="-413.5" font-family="Helvetica,sans-Serif" font-weight="bold" font-size="10.00">&#45;10</text>
<polygon fill="none" stroke="black" points="494,-389 494,-407 590.38,-407 590.38,-389 494,-389"/>
<text xml:space="preserve" text-anchor="start" x="502.06" y="-394.25" font-family="Helvetica,sans-Serif" font-size="10.00">ASF (Access Fail)</text>
<polygon fill="none" stroke="black" points="590.38,-389 590.38,-407 620,-407 620,-389 590.38,-389"/>
<text xml:space="preserve" text-anchor="start" x="602.56" y="-394.25" font-family="Helvetica,sans-Serif" font-size="10.00">0</text>
</g>
<!-- red_impact&#45;&gt;oz_mission -->
<g id="edge1" class="edge">
<title>red_impact&#45;&gt;oz_mission</title>
<path fill="none" stroke="#d32f2f" stroke-width="4" d="M327.8,-266.42C342.35,-284.34 362.02,-306.12 382.75,-322 402.63,-337.23 416.28,-328.85 433,-347.5 441.4,-356.87 434.38,-364.82 443,-374 451.14,-382.67 461.04,-389.98 471.55,-396.1"/>
<polygon fill="#d32f2f" stroke="#d32f2f" stroke-width="4" points="469.78,-399.13 480.26,-400.68 473.04,-392.93 469.78,-399.13"/>
<text xml:space="preserve" text-anchor="middle" x="407.88" y="-349.45" font-family="Helvetica,sans-Serif" font-size="9.00">&#45;10/event</text>
</g>
<!-- rz_mission -->
<g id="node9" class="node">
<title>rz_mission</title>
<polygon fill="#fff9c4" stroke="black" points="628,-363 486,-363 486,-283 628,-283 628,-363"/>
<polygon fill="#fff9c4" stroke="none" points="494,-287 494,-359 620,-359 620,-287 494,-287"/>
<polygon fill="none" stroke="black" points="494,-341 494,-359 620,-359 620,-341 494,-341"/>
<text xml:space="preserve" text-anchor="start" x="497" y="-347.5" font-family="Helvetica,sans-Serif" font-weight="bold" font-size="10.00">RZ During Active Mission</text>
<polygon fill="none" stroke="black" points="494,-323 494,-341 563,-341 563,-323 494,-323"/>
<text xml:space="preserve" text-anchor="start" x="519.88" y="-328.25" font-family="Helvetica,sans-Serif" font-size="10.00">RIA</text>
<polygon fill="none" stroke="black" points="563,-323 563,-341 620,-341 620,-323 563,-323"/>
<text xml:space="preserve" text-anchor="start" x="587.38" y="-329.5" font-family="Helvetica,sans-Serif" font-weight="bold" font-size="10.00">&#45;3</text>
<polygon fill="none" stroke="black" points="494,-305 494,-323 563,-323 563,-305 494,-305"/>
<text xml:space="preserve" text-anchor="start" x="518.38" y="-310.25" font-family="Helvetica,sans-Serif" font-size="10.00">LWF</text>
<polygon fill="none" stroke="black" points="563,-305 563,-323 620,-323 620,-305 563,-305"/>
<text xml:space="preserve" text-anchor="start" x="587.38" y="-310.25" font-family="Helvetica,sans-Serif" font-size="10.00">&#45;2</text>
<polygon fill="none" stroke="black" points="494,-287 494,-305 563,-305 563,-287 494,-287"/>
<text xml:space="preserve" text-anchor="start" x="518.75" y="-292.25" font-family="Helvetica,sans-Serif" font-size="10.00">ASF</text>
<polygon fill="none" stroke="black" points="563,-287 563,-305 620,-305 620,-287 563,-287"/>
<text xml:space="preserve" text-anchor="start" x="587.38" y="-292.25" font-family="Helvetica,sans-Serif" font-size="10.00">&#45;1</text>
</g>
<!-- red_impact&#45;&gt;rz_mission -->
<g id="edge2" class="edge">
<title>red_impact&#45;&gt;rz_mission</title>
<path fill="none" stroke="#d32f2f" stroke-width="2" d="M353.07,-247.47C377.35,-254.39 406.9,-263.29 433,-272.5 446.3,-277.19 460.26,-282.52 473.8,-287.92"/>
<polygon fill="#d32f2f" stroke="#d32f2f" stroke-width="2" points="472.18,-291.04 482.77,-291.53 474.8,-284.55 472.18,-291.04"/>
<text xml:space="preserve" text-anchor="middle" x="407.88" y="-274.45" font-family="Helvetica,sans-Serif" font-size="9.00">&#45;3/event</text>
</g>
<!-- hq_always -->
<g id="node10" class="node">
<title>hq_always</title>
<polygon fill="#c8e6c9" stroke="black" points="605.12,-261 508.88,-261 508.88,-181 605.12,-181 605.12,-261"/>
<polygon fill="#c8e6c9" stroke="none" points="516.88,-185 516.88,-257 597.12,-257 597.12,-185 516.88,-185"/>
<polygon fill="none" stroke="black" points="516.88,-239 516.88,-257 597.12,-257 597.12,-239 516.88,-239"/>
<text xml:space="preserve" text-anchor="start" x="519.88" y="-245.5" font-family="Helvetica,sans-Serif" font-weight="bold" font-size="10.00">HQ (All Phases)</text>
<polygon fill="none" stroke="black" points="516.88,-221 516.88,-239 563,-239 563,-221 516.88,-221"/>
<text xml:space="preserve" text-anchor="start" x="531.31" y="-226.25" font-family="Helvetica,sans-Serif" font-size="10.00">RIA</text>
<polygon fill="none" stroke="black" points="563,-221 563,-239 597.12,-239 597.12,-221 563,-221"/>
<text xml:space="preserve" text-anchor="start" x="575.94" y="-227.5" font-family="Helvetica,sans-Serif" font-weight="bold" font-size="10.00">&#45;3</text>
<polygon fill="none" stroke="black" points="516.88,-203 516.88,-221 563,-221 563,-203 516.88,-203"/>
<text xml:space="preserve" text-anchor="start" x="529.81" y="-208.25" font-family="Helvetica,sans-Serif" font-size="10.00">LWF</text>
<polygon fill="none" stroke="black" points="563,-203 563,-221 597.12,-221 597.12,-203 563,-203"/>
<text xml:space="preserve" text-anchor="start" x="575.94" y="-208.25" font-family="Helvetica,sans-Serif" font-size="10.00">&#45;1</text>
<polygon fill="none" stroke="black" points="516.88,-185 516.88,-203 563,-203 563,-185 516.88,-185"/>
<text xml:space="preserve" text-anchor="start" x="530.19" y="-190.25" font-family="Helvetica,sans-Serif" font-size="10.00">ASF</text>
<polygon fill="none" stroke="black" points="563,-185 563,-203 597.12,-203 597.12,-185 563,-185"/>
<text xml:space="preserve" text-anchor="start" x="575.94" y="-190.25" font-family="Helvetica,sans-Serif" font-size="10.00">&#45;1</text>
</g>
<!-- red_impact&#45;&gt;hq_always -->
<g id="edge3" class="edge">
<title>red_impact&#45;&gt;hq_always</title>
<path fill="none" stroke="#d32f2f" stroke-width="2" d="M353.08,-231.45C394.04,-229.34 452.33,-226.34 495.93,-224.09"/>
<polygon fill="#d32f2f" stroke="#d32f2f" stroke-width="2" points="495.84,-227.6 505.64,-223.59 495.48,-220.61 495.84,-227.6"/>
<text xml:space="preserve" text-anchor="middle" x="407.88" y="-231.75" font-family="Helvetica,sans-Serif" font-size="9.00">&#45;3/event</text>
</g>
<!-- contractor_ph0 -->
<g id="node11" class="node">
<title>contractor_ph0</title>
<polygon fill="#ffe0b2" stroke="black" points="627.25,-159 486.75,-159 486.75,-79 627.25,-79 627.25,-159"/>
<polygon fill="#ffe0b2" stroke="none" points="494.75,-83 494.75,-155 619.25,-155 619.25,-83 494.75,-83"/>
<polygon fill="none" stroke="black" points="494.75,-137 494.75,-155 619.25,-155 619.25,-137 494.75,-137"/>
<text xml:space="preserve" text-anchor="start" x="497.75" y="-143.5" font-family="Helvetica,sans-Serif" font-weight="bold" font-size="10.00">Contractor (Phase 0 only)</text>
<polygon fill="none" stroke="black" points="494.75,-119 494.75,-137 563,-137 563,-119 494.75,-119"/>
<text xml:space="preserve" text-anchor="start" x="520.25" y="-124.25" font-family="Helvetica,sans-Serif" font-size="10.00">RIA</text>
<polygon fill="none" stroke="black" points="563,-119 563,-137 619.25,-137 619.25,-119 563,-119"/>
<text xml:space="preserve" text-anchor="start" x="587" y="-125.5" font-family="Helvetica,sans-Serif" font-weight="bold" font-size="10.00">&#45;5</text>
<polygon fill="none" stroke="black" points="494.75,-101 494.75,-119 563,-119 563,-101 494.75,-101"/>
<text xml:space="preserve" text-anchor="start" x="518.75" y="-106.25" font-family="Helvetica,sans-Serif" font-size="10.00">LWF</text>
<polygon fill="none" stroke="black" points="563,-101 563,-119 619.25,-119 619.25,-101 563,-101"/>
<text xml:space="preserve" text-anchor="start" x="588.5" y="-106.25" font-family="Helvetica,sans-Serif" font-size="10.00">0</text>
<polygon fill="none" stroke="black" points="494.75,-83 494.75,-101 563,-101 563,-83 494.75,-83"/>
<text xml:space="preserve" text-anchor="start" x="519.12" y="-88.25" font-family="Helvetica,sans-Serif" font-size="10.00">ASF</text>
<polygon fill="none" stroke="black" points="563,-83 563,-101 619.25,-101 619.25,-83 563,-83"/>
<text xml:space="preserve" text-anchor="start" x="587" y="-88.25" font-family="Helvetica,sans-Serif" font-size="10.00">&#45;5</text>
</g>
<!-- red_impact&#45;&gt;contractor_ph0 -->
<g id="edge4" class="edge">
<title>red_impact&#45;&gt;contractor_ph0</title>
<path fill="none" stroke="#d32f2f" stroke-width="2" d="M353.18,-211.12C379.8,-198.88 413.17,-183.57 443,-170 453.29,-165.32 464.11,-160.41 474.81,-155.57"/>
<polygon fill="#d32f2f" stroke="#d32f2f" stroke-width="2" points="475.92,-158.91 483.59,-151.6 473.03,-152.53 475.92,-158.91"/>
<text xml:space="preserve" text-anchor="middle" x="407.88" y="-198.23" font-family="Helvetica,sans-Serif" font-size="9.00">&#45;5 (Ph0)</text>
</g>
<!-- red_degrade -->
<g id="node2" class="node">
<title>red_degrade</title>
<polygon fill="#e57373" stroke="black" points="149.5,-444 25,-444 25,-380 149.5,-380 149.5,-444"/>
<text xml:space="preserve" text-anchor="start" x="37" y="-427.5" font-family="Helvetica,sans-Serif" font-weight="bold" font-size="10.00">Red DegradeServices</text>
<text xml:space="preserve" text-anchor="start" x="48.62" y="-408.25" font-family="Helvetica,sans-Serif" font-size="10.00">&#45;20% reliability/hit</text>
<text xml:space="preserve" text-anchor="start" x="41.5" y="-390.25" font-family="Helvetica,sans-Serif" font-size="10.00">Causes LWF failures</text>
</g>
<!-- green_lwf -->
<g id="node3" class="node">
<title>green_lwf</title>
<polygon fill="#ff9800" stroke="black" points="364.75,-418 240.25,-418 240.25,-354 364.75,-354 364.75,-418"/>
<text xml:space="preserve" text-anchor="start" x="252.25" y="-401.5" font-family="Helvetica,sans-Serif" font-weight="bold" font-size="10.00">Green LocalWork Fail</text>
<text xml:space="preserve" text-anchor="start" x="264.25" y="-382.25" font-family="Helvetica,sans-Serif" font-size="10.00">No active service</text>
<text xml:space="preserve" text-anchor="start" x="256.38" y="-364.25" font-family="Helvetica,sans-Serif" font-size="10.00">or degraded reliability</text>
</g>
<!-- red_degrade&#45;&gt;green_lwf -->
<g id="edge5" class="edge">
<title>red_degrade&#45;&gt;green_lwf</title>
<path fill="none" stroke="#e57373" stroke-dasharray="5,2" d="M149.93,-404.48C174.58,-401.47 203.14,-397.99 228.79,-394.87"/>
<polygon fill="#e57373" stroke="#e57373" points="228.95,-398.37 238.46,-393.69 228.11,-391.42 228.95,-398.37"/>
<text xml:space="preserve" text-anchor="middle" x="199.38" y="-413.01" font-family="Helvetica,sans-Serif" font-size="9.00">degrades</text>
<text xml:space="preserve" text-anchor="middle" x="199.38" y="-402.51" font-family="Helvetica,sans-Serif" font-size="9.00">reliability</text>
</g>
<!-- green_lwf&#45;&gt;oz_mission -->
<g id="edge6" class="edge">
<title>green_lwf&#45;&gt;oz_mission</title>
<path fill="none" stroke="#ff9800" stroke-width="4" d="M364.95,-395.49C396.59,-400.38 435.69,-406.42 470.26,-411.76"/>
<polygon fill="#ff9800" stroke="#ff9800" stroke-width="4" points="469.38,-415.16 479.8,-413.23 470.45,-408.25 469.38,-415.16"/>
<text xml:space="preserve" text-anchor="middle" x="407.88" y="-407.45" font-family="Helvetica,sans-Serif" font-size="9.00">&#45;10/event</text>
</g>
<!-- green_lwf&#45;&gt;rz_mission -->
<g id="edge7" class="edge">
<title>green_lwf&#45;&gt;rz_mission</title>
<path fill="none" stroke="#ff9800" d="M365.03,-374.88C386.62,-370.65 410.98,-365.51 433,-360 446.57,-356.6 460.88,-352.65 474.74,-348.62"/>
<polygon fill="#ff9800" stroke="#ff9800" points="475.69,-351.99 484.29,-345.8 473.71,-345.27 475.69,-351.99"/>
<text xml:space="preserve" text-anchor="middle" x="407.88" y="-373.13" font-family="Helvetica,sans-Serif" font-size="9.00">&#45;2/event</text>
</g>
<!-- green_lwf&#45;&gt;hq_always -->
<g id="edge8" class="edge">
<title>green_lwf&#45;&gt;hq_always</title>
<path fill="none" stroke="#ff9800" d="M333.36,-353.75C347.52,-339.5 365.16,-323.14 382.75,-310.5 403.25,-295.76 413.38,-299.89 433,-284 438.4,-279.63 437.47,-276.2 443,-272 459.48,-259.47 479.52,-249.16 498.12,-241.17"/>
<polygon fill="#ff9800" stroke="#ff9800" points="499.27,-244.48 507.18,-237.43 496.6,-238.01 499.27,-244.48"/>
<text xml:space="preserve" text-anchor="middle" x="407.88" y="-312.45" font-family="Helvetica,sans-Serif" font-size="9.00">&#45;1/event</text>
</g>
<!-- green_asf -->
<g id="node4" class="node">
<title>green_asf</title>
<polygon fill="#ffc107" stroke="black" points="158.5,-168 16,-168 16,-104 158.5,-104 158.5,-168"/>
<text xml:space="preserve" text-anchor="start" x="28" y="-151.5" font-family="Helvetica,sans-Serif" font-weight="bold" font-size="10.00">Green AccessService Fail</text>
<text xml:space="preserve" text-anchor="start" x="46" y="-132.25" font-family="Helvetica,sans-Serif" font-size="10.00">Blocked by firewall</text>
<text xml:space="preserve" text-anchor="start" x="40" y="-114.25" font-family="Helvetica,sans-Serif" font-size="10.00">or service unavailable</text>
</g>
<!-- green_asf&#45;&gt;hq_always -->
<g id="edge10" class="edge">
<title>green_asf&#45;&gt;hq_always</title>
<path fill="none" stroke="#ffc107" d="M158.63,-141.34C243.97,-148.2 382.64,-160.7 433,-173 454.71,-178.3 477.72,-186.52 497.89,-194.68"/>
<polygon fill="#ffc107" stroke="#ffc107" points="496.49,-197.88 507.07,-198.47 499.16,-191.42 496.49,-197.88"/>
<text xml:space="preserve" text-anchor="middle" x="302.5" y="-164.08" font-family="Helvetica,sans-Serif" font-size="9.00">&#45;1/event</text>
</g>
<!-- green_asf&#45;&gt;contractor_ph0 -->
<g id="edge9" class="edge">
<title>green_asf&#45;&gt;contractor_ph0</title>
<path fill="none" stroke="#ffc107" stroke-width="2" d="M158.88,-126.75C184.46,-123.82 213.61,-120.96 240.25,-119.5 319.37,-115.16 409.8,-115.56 473.55,-116.73"/>
<polygon fill="#ffc107" stroke="#ffc107" stroke-width="2" points="473.24,-120.23 483.31,-116.92 473.38,-113.23 473.24,-120.23"/>
<text xml:space="preserve" text-anchor="middle" x="302.5" y="-121.45" font-family="Helvetica,sans-Serif" font-size="9.00">&#45;5 (Ph0)</text>
</g>
<!-- blue_restore -->
<g id="node5" class="node">
<title>blue_restore</title>
<polygon fill="#2196f3" stroke="black" points="146.12,-82 28.38,-82 28.38,-18 146.12,-18 146.12,-82"/>
<text xml:space="preserve" text-anchor="start" x="40.38" y="-65.5" font-family="Helvetica,sans-Serif" font-weight="bold" font-size="10.00" fill="white">Blue Restore Action</text>
<text xml:space="preserve" text-anchor="start" x="54.25" y="-46.25" font-family="Helvetica,sans-Serif" font-size="10.00" fill="white">Reimages host</text>
<text xml:space="preserve" text-anchor="start" x="56.12" y="-28.25" font-family="Helvetica,sans-Serif" font-size="10.00" fill="white">Direct cost: &#45;1</text>
</g>
<!-- loss_restore -->
<g id="node15" class="node">
<title>loss_restore</title>
<polygon fill="#d1c4e9" stroke="black" points="842.75,-80 728,-80 728,-16 842.75,-16 842.75,-80"/>
<text xml:space="preserve" text-anchor="start" x="752.38" y="-63.5" font-family="Helvetica,sans-Serif" font-weight="bold" font-size="10.00">Restore Costs</text>
<text xml:space="preserve" text-anchor="start" x="740" y="-44.25" font-family="Helvetica,sans-Serif" font-size="10.00">&#45;88 (88 restores x &#45;1)</text>
<text xml:space="preserve" text-anchor="start" x="747.12" y="-26.25" font-family="Helvetica,sans-Serif" font-size="10.00">8.5% of total loss</text>
</g>
<!-- blue_restore&#45;&gt;loss_restore -->
<g id="edge11" class="edge">
<title>blue_restore&#45;&gt;loss_restore</title>
<path fill="none" stroke="#2196f3" d="M146.4,-49.83C274.36,-49.47 579.77,-48.59 716.35,-48.2"/>
<polygon fill="#2196f3" stroke="#2196f3" points="716.34,-51.7 726.33,-48.17 716.32,-44.7 716.34,-51.7"/>
<text xml:space="preserve" text-anchor="middle" x="407.88" y="-61.6" font-family="Helvetica,sans-Serif" font-size="9.00">&#45;1 each</text>
<text xml:space="preserve" text-anchor="middle" x="407.88" y="-51.1" font-family="Helvetica,sans-Serif" font-size="9.00">x88/episode</text>
</g>
<!-- blue_restore_lwf -->
<g id="node6" class="node">
<title>blue_restore_lwf</title>
<polygon fill="#64b5f6" stroke="black" points="146.12,-358 28.38,-358 28.38,-294 146.12,-294 146.12,-358"/>
<text xml:space="preserve" text-anchor="start" x="43" y="-341.5" font-family="Helvetica,sans-Serif" font-weight="bold" font-size="10.00">Restore Disruption</text>
<text xml:space="preserve" text-anchor="start" x="40.38" y="-322.25" font-family="Helvetica,sans-Serif" font-size="10.00">5&#45;step service outage</text>
<text xml:space="preserve" text-anchor="start" x="45.25" y="-304.25" font-family="Helvetica,sans-Serif" font-size="10.00">Causes green LWF</text>
</g>
<!-- blue_restore_lwf&#45;&gt;green_lwf -->
<g id="edge12" class="edge">
<title>blue_restore_lwf&#45;&gt;green_lwf</title>
<path fill="none" stroke="#64b5f6" stroke-dasharray="5,2" d="M146.52,-342.4C171.99,-349.56 202.13,-358.04 229.03,-365.61"/>
<polygon fill="#64b5f6" stroke="#64b5f6" points="227.91,-368.93 238.49,-368.27 229.81,-362.19 227.91,-368.93"/>
<text xml:space="preserve" text-anchor="middle" x="199.38" y="-375.59" font-family="Helvetica,sans-Serif" font-size="9.00">5 steps</text>
<text xml:space="preserve" text-anchor="middle" x="199.38" y="-365.09" font-family="Helvetica,sans-Serif" font-size="9.00">outage</text>
</g>
<!-- green_phishing -->
<g id="node7" class="node">
<title>green_phishing</title>
<polygon fill="#ff8a65" stroke="black" points="157.75,-272 16.75,-272 16.75,-190 157.75,-190 157.75,-272"/>
<text xml:space="preserve" text-anchor="start" x="50.88" y="-255.5" font-family="Helvetica,sans-Serif" font-weight="bold" font-size="10.00">Green Phishing</text>
<text xml:space="preserve" text-anchor="start" x="34.38" y="-236.25" font-family="Helvetica,sans-Serif" font-size="10.00">1% per GreenLocalWork</text>
<text xml:space="preserve" text-anchor="start" x="28.75" y="-218.25" font-family="Helvetica,sans-Serif" font-size="10.00">Creates REAL red session</text>
<text xml:space="preserve" text-anchor="start" x="43.38" y="-200.25" font-family="Helvetica,sans-Serif" font-size="10.00">Bypasses all blocks</text>
</g>
<!-- green_phishing&#45;&gt;red_impact -->
<g id="edge13" class="edge">
<title>green_phishing&#45;&gt;red_impact</title>
<path fill="none" stroke="#ff8a65" stroke-dasharray="5,2" d="M158.08,-231.98C184.62,-232.36 214.63,-232.78 240.32,-233.14"/>
<polygon fill="#ff8a65" stroke="#ff8a65" points="240.23,-236.64 250.27,-233.28 240.33,-229.64 240.23,-236.64"/>
<text xml:space="preserve" text-anchor="middle" x="199.38" y="-245.31" font-family="Helvetica,sans-Serif" font-size="9.00">creates red</text>
<text xml:space="preserve" text-anchor="middle" x="199.38" y="-234.81" font-family="Helvetica,sans-Serif" font-size="9.00">foothold</text>
</g>
<!-- loss_ph0 -->
<g id="node13" class="node">
<title>loss_ph0</title>
<polygon fill="#ce93d8" stroke="black" points="843.88,-270 726.88,-270 726.88,-188 843.88,-188 843.88,-270"/>
<text xml:space="preserve" text-anchor="start" x="749" y="-253.5" font-family="Helvetica,sans-Serif" font-weight="bold" font-size="10.00">Phase 0 Losses</text>
<text xml:space="preserve" text-anchor="start" x="745.25" y="-234.25" font-family="Helvetica,sans-Serif" font-size="10.00">&#45;520 (50% of total)</text>
<text xml:space="preserve" text-anchor="start" x="738.88" y="-216.25" font-family="Helvetica,sans-Serif" font-size="10.00">No blocking available</text>
<text xml:space="preserve" text-anchor="start" x="752" y="-198.25" font-family="Helvetica,sans-Serif" font-size="10.00">Red acts freely</text>
</g>
<!-- oz_mission&#45;&gt;loss_ph0 -->
<!-- zero_zone -->
<g id="node12" class="node">
<title>zero_zone</title>
<polygon fill="#e0e0e0" stroke="black" points="612.88,-551 501.12,-551 501.12,-487 612.88,-487 612.88,-551"/>
<text xml:space="preserve" text-anchor="start" x="513.12" y="-534.5" font-family="Helvetica,sans-Serif" font-weight="bold" font-size="10.00">Contractor/Internet</text>
<text xml:space="preserve" text-anchor="start" x="531.88" y="-515.25" font-family="Helvetica,sans-Serif" font-size="10.00">(Phase 1&#45;2)</text>
<text xml:space="preserve" text-anchor="start" x="521.75" y="-497.25" font-family="Helvetica,sans-Serif" font-size="10.00">All penalties = 0</text>
</g>
<!-- total -->
<g id="node17" class="node">
<title>total</title>
<polygon fill="#7b1fa2" stroke="black" stroke-width="3" points="1045.25,-222 924.5,-222 924.5,-140 1045.25,-140 1045.25,-222"/>
<text xml:space="preserve" text-anchor="start" x="952.25" y="-205.5" font-family="Helvetica,sans-Serif" font-weight="bold" font-size="10.00" fill="white">TOTAL: &#45;1,039</text>
<text xml:space="preserve" text-anchor="start" x="936.5" y="-186.25" font-family="Helvetica,sans-Serif" font-size="10.00" fill="white">per episode (5 agents)</text>
<text xml:space="preserve" text-anchor="start" x="953.75" y="-168.25" font-family="Helvetica,sans-Serif" font-size="10.00" fill="white">&#45;208 per agent</text>
<text xml:space="preserve" text-anchor="start" x="940.62" y="-150.25" font-family="Helvetica,sans-Serif" font-size="10.00" fill="white">97.6% of achievable</text>
</g>
<!-- loss_ph0&#45;&gt;total -->
<g id="edge15" class="edge">
<title>loss_ph0&#45;&gt;total</title>
<path fill="none" stroke="#7b1fa2" stroke-width="4" d="M844.3,-214.92C864.17,-210.09 886.71,-204.61 907.8,-199.49"/>
<polygon fill="#7b1fa2" stroke="#7b1fa2" stroke-width="4" points="908.43,-202.94 917.32,-197.17 906.78,-196.14 908.43,-202.94"/>
<text xml:space="preserve" text-anchor="middle" x="897.12" y="-205.51" font-family="Helvetica,sans-Serif" font-size="9.00">&#45;520</text>
</g>
<!-- loss_fp -->
<g id="node14" class="node">
<title>loss_fp</title>
<polygon fill="#e1bee7" stroke="black" points="852.12,-166 718.62,-166 718.62,-102 852.12,-102 852.12,-166"/>
<text xml:space="preserve" text-anchor="start" x="740.38" y="-149.5" font-family="Helvetica,sans-Serif" font-weight="bold" font-size="10.00">False Positive Cost</text>
<text xml:space="preserve" text-anchor="start" x="730.62" y="-130.25" font-family="Helvetica,sans-Serif" font-size="10.00">&#45;150 (~50% of Removes)</text>
<text xml:space="preserve" text-anchor="start" x="743.75" y="-112.25" font-family="Helvetica,sans-Serif" font-size="10.00">~740 wasted steps</text>
</g>
<!-- loss_fp&#45;&gt;total -->
<g id="edge16" class="edge">
<title>loss_fp&#45;&gt;total</title>
<path fill="none" stroke="#7b1fa2" stroke-width="2" d="M852.41,-149.72C871.09,-154.16 891.53,-159.02 910.6,-163.56"/>
<polygon fill="#7b1fa2" stroke="#7b1fa2" stroke-width="2" points="909.74,-166.96 920.28,-165.87 911.37,-160.15 909.74,-166.96"/>
<text xml:space="preserve" text-anchor="middle" x="897.12" y="-163.66" font-family="Helvetica,sans-Serif" font-size="9.00">&#45;150</text>
</g>
<!-- loss_restore&#45;&gt;total -->
<g id="edge17" class="edge">
<title>loss_restore&#45;&gt;total</title>
<path fill="none" stroke="#7b1fa2" d="M842.82,-75.24C851.99,-80.19 861.26,-85.53 869.75,-91 888.54,-103.1 907.99,-117.59 925.39,-131.38"/>
<polygon fill="#7b1fa2" stroke="#7b1fa2" points="923.12,-134.05 933.11,-137.57 927.49,-128.58 923.12,-134.05"/>
<text xml:space="preserve" text-anchor="middle" x="897.12" y="-118.14" font-family="Helvetica,sans-Serif" font-size="9.00">&#45;88</text>
</g>
<!-- loss_residual -->
<g id="node16" class="node">
<title>loss_residual</title>
<polygon fill="#d1c4e9" stroke="black" points="869.75,-356 701,-356 701,-292 869.75,-292 869.75,-356"/>
<text xml:space="preserve" text-anchor="start" x="732.12" y="-339.5" font-family="Helvetica,sans-Serif" font-weight="bold" font-size="10.00">Residual Red + Delays</text>
<text xml:space="preserve" text-anchor="start" x="753.5" y="-320.25" font-family="Helvetica,sans-Serif" font-size="10.00">&#45;281 remaining</text>
<text xml:space="preserve" text-anchor="start" x="713" y="-302.25" font-family="Helvetica,sans-Serif" font-size="10.00">Detection delay, transition spikes</text>
</g>
<!-- loss_residual&#45;&gt;total -->
<g id="edge18" class="edge">
<title>loss_residual&#45;&gt;total</title>
<path fill="none" stroke="#7b1fa2" stroke-width="2" d="M852.78,-291.65C858.63,-288.24 864.37,-284.67 869.75,-281 890.98,-266.54 912.59,-248.59 931.22,-231.91"/>
<polygon fill="#7b1fa2" stroke="#7b1fa2" stroke-width="2" points="933.38,-234.67 938.43,-225.36 928.67,-229.49 933.38,-234.67"/>
<text xml:space="preserve" text-anchor="middle" x="897.12" y="-268.39" font-family="Helvetica,sans-Serif" font-size="9.00">&#45;281</text>
</g>
</g>
</svg>
